<?xml version="1.0" encoding="UTF-8" standalone="no"?><svg xmlns="http://www.w3.org/2000/svg" xmlns:xlink="http://www.w3.org/1999/xlink" contentScriptType="application/ecmascript" contentStyleType="text/css" height="799px" preserveAspectRatio="none" style="width:1741px;height:799px;" version="1.1" viewBox="0 0 1741 799" width="1741px" zoomAndPan="magnify"><defs><filter height="300%" id="fxo6ienppipn6" width="300%" x="-1" y="-1"><feGaussianBlur result="blurOut" stdDeviation="2.0"/><feColorMatrix in="blurOut" result="blurOut2" type="matrix" values="0 0 0 0 0 0 0 0 0 0 0 0 0 0 0 0 0 0 .4 0"/><feOffset dx="4.0" dy="4.0" in="blurOut2" result="blurOut3"/><feBlend in="SourceGraphic" in2="blurOut3" mode="normal"/></filter></defs><g><!--MD5=[5d4cd377749310b66bf14896f5cd8d9b]
cluster model--><polygon fill="#FFFFFF" filter="url(#fxo6ienppipn6)" points="202,6,257,6,264,28.2969,502,28.2969,502,660,202,660,202,6" style="stroke: #000000; stroke-width: 1.5;"/><line style="stroke: #000000; stroke-width: 1.5;" x1="202" x2="264" y1="28.2969" y2="28.2969"/><text fill="#000000" font-family="sans-serif" font-size="14" font-weight="bold" lengthAdjust="spacingAndGlyphs" textLength="49" x="206" y="20.9951">model</text><!--MD5=[11f03a07a4422c8eb8f650dbf201ac41]
cluster exception--><polygon fill="#FFFFFF" filter="url(#fxo6ienppipn6)" points="1033,6,1118,6,1125,28.2969,1203,28.2969,1203,213,1033,213,1033,6" style="stroke: #000000; stroke-width: 1.5;"/><line style="stroke: #000000; stroke-width: 1.5;" x1="1033" x2="1125" y1="28.2969" y2="28.2969"/><text fill="#000000" font-family="sans-serif" font-size="14" font-weight="bold" lengthAdjust="spacingAndGlyphs" textLength="79" x="1037" y="20.9951">exception</text><!--MD5=[e471781225fc0f8fbd677bbc1a50d018]
cluster engine--><polygon fill="#FFFFFF" filter="url(#fxo6ienppipn6)" points="526,237,585,237,592,259.2969,1710,259.2969,1710,792,526,792,526,237" style="stroke: #000000; stroke-width: 1.5;"/><line style="stroke: #000000; stroke-width: 1.5;" x1="526" x2="592" y1="259.2969" y2="259.2969"/><text fill="#000000" font-family="sans-serif" font-size="14" font-weight="bold" lengthAdjust="spacingAndGlyphs" textLength="53" x="530" y="251.9951">engine</text><!--MD5=[e2a75efa8a0f57c2afae8bf75386f79c]
cluster views--><polygon fill="#FFFFFF" filter="url(#fxo6ienppipn6)" points="1132,345,1183,345,1190,367.2969,1673,367.2969,1673,768,1132,768,1132,345" style="stroke: #000000; stroke-width: 1.5;"/><line style="stroke: #000000; stroke-width: 1.5;" x1="1132" x2="1190" y1="367.2969" y2="367.2969"/><text fill="#000000" font-family="sans-serif" font-size="14" font-weight="bold" lengthAdjust="spacingAndGlyphs" textLength="45" x="1136" y="359.9951">views</text><!--MD5=[f4e70ef68289585296b9045165e58692]
cluster controllers--><polygon fill="#FFFFFF" filter="url(#fxo6ienppipn6)" points="550,453,645,453,652,475.2969,1108,475.2969,1108,768,550,768,550,453" style="stroke: #000000; stroke-width: 1.5;"/><line style="stroke: #000000; stroke-width: 1.5;" x1="550" x2="652" y1="475.2969" y2="475.2969"/><text fill="#000000" font-family="sans-serif" font-size="14" font-weight="bold" lengthAdjust="spacingAndGlyphs" textLength="89" x="554" y="467.9951">controllers</text><!--MD5=[82f78030d15708ad5ff33f19467d2e14]
class Personnage--><rect codeLine="3" fill="#FEFECE" filter="url(#fxo6ienppipn6)" height="48" id="Personnage" style="stroke: #A80036; stroke-width: 1.5;" width="102" x="384" y="380"/><ellipse cx="399" cy="396" fill="#B4A7E5" rx="11" ry="11" style="stroke: #A80036; stroke-width: 1.0;"/><path d="M399.9531,392.7813 L401.6719,392.7813 C402.0625,392.7813 402.25,392.75 402.375,392.6719 C402.6406,392.5156 402.7813,392.2344 402.7813,391.9375 C402.7813,391.6719 402.6719,391.4063 402.4375,391.2344 C402.2656,391.125 402.125,391.0938 401.6719,391.0938 L396.5313,391.0938 C396.0938,391.0938 395.9688,391.1094 395.8125,391.2031 C395.5625,391.3594 395.4063,391.6563 395.4063,391.9375 C395.4063,392.2188 395.5469,392.4688 395.7656,392.6406 C395.9219,392.75 396.1094,392.7813 396.5313,392.7813 L398.25,392.7813 L398.25,399.2969 L396.5313,399.2969 C396.0938,399.2969 395.9688,399.3125 395.8125,399.4219 C395.5625,399.5781 395.4063,399.8594 395.4063,400.1563 C395.4063,400.4063 395.5469,400.6719 395.7656,400.8281 C395.9219,400.9531 396.125,401 396.5313,401 L401.6719,401 C402.4219,401 402.7813,400.7188 402.7813,400.1563 C402.7813,399.875 402.6719,399.625 402.4375,399.4531 C402.2656,399.3281 402.125,399.2969 401.6719,399.2969 L399.9531,399.2969 L399.9531,392.7813 Z " fill="#000000"/><text fill="#000000" font-family="sans-serif" font-size="12" font-style="italic" lengthAdjust="spacingAndGlyphs" textLength="70" x="413" y="400.1543">Personnage</text><line style="stroke: #A80036; stroke-width: 1.5;" x1="385" x2="485" y1="412" y2="412"/><line style="stroke: #A80036; stroke-width: 1.5;" x1="385" x2="485" y1="420" y2="420"/><!--MD5=[e05bacf3ff4416a0580578814d41bbf6]
class Piece--><rect codeLine="5" fill="#FEFECE" filter="url(#fxo6ienppipn6)" height="48" id="Piece" style="stroke: #A80036; stroke-width: 1.5;" width="63" x="330.5" y="488"/><ellipse cx="345.5" cy="504" fill="#B4A7E5" rx="11" ry="11" style="stroke: #A80036; stroke-width: 1.0;"/><path d="M346.4531,500.7813 L348.1719,500.7813 C348.5625,500.7813 348.75,500.75 348.875,500.6719 C349.1406,500.5156 349.2813,500.2344 349.2813,499.9375 C349.2813,499.6719 349.1719,499.4063 348.9375,499.2344 C348.7656,499.125 348.625,499.0938 348.1719,499.0938 L343.0313,499.0938 C342.5938,499.0938 342.4688,499.1094 342.3125,499.2031 C342.0625,499.3594 341.9063,499.6563 341.9063,499.9375 C341.9063,500.2188 342.0469,500.4688 342.2656,500.6406 C342.4219,500.75 342.6094,500.7813 343.0313,500.7813 L344.75,500.7813 L344.75,507.2969 L343.0313,507.2969 C342.5938,507.2969 342.4688,507.3125 342.3125,507.4219 C342.0625,507.5781 341.9063,507.8594 341.9063,508.1563 C341.9063,508.4063 342.0469,508.6719 342.2656,508.8281 C342.4219,508.9531 342.625,509 343.0313,509 L348.1719,509 C348.9219,509 349.2813,508.7188 349.2813,508.1563 C349.2813,507.875 349.1719,507.625 348.9375,507.4531 C348.7656,507.3281 348.625,507.2969 348.1719,507.2969 L346.4531,507.2969 L346.4531,500.7813 Z " fill="#000000"/><text fill="#000000" font-family="sans-serif" font-size="12" font-style="italic" lengthAdjust="spacingAndGlyphs" textLength="31" x="359.5" y="508.1543">Piece</text><line style="stroke: #A80036; stroke-width: 1.5;" x1="331.5" x2="392.5" y1="520" y2="520"/><line style="stroke: #A80036; stroke-width: 1.5;" x1="331.5" x2="392.5" y1="528" y2="528"/><!--MD5=[13b006024b7757a689cfb8550a66919b]
class PieceAttaque--><rect codeLine="7" fill="#FEFECE" filter="url(#fxo6ienppipn6)" height="48" id="PieceAttaque" style="stroke: #A80036; stroke-width: 1.5;" width="110" x="229" y="596"/><ellipse cx="244" cy="612" fill="#ADD1B2" rx="11" ry="11" style="stroke: #A80036; stroke-width: 1.0;"/><path d="M246.3438,607.6719 C245.4063,607.2344 244.8125,607.0938 243.9375,607.0938 C241.3125,607.0938 239.3125,609.1719 239.3125,611.8906 L239.3125,613.0156 C239.3125,615.5938 241.4219,617.4844 244.3125,617.4844 C245.5313,617.4844 246.6875,617.1875 247.4375,616.6406 C248.0156,616.2344 248.3438,615.7813 248.3438,615.3906 C248.3438,614.9375 247.9531,614.5469 247.4844,614.5469 C247.2656,614.5469 247.0625,614.625 246.875,614.8125 C246.4219,615.2969 246.4219,615.2969 246.2344,615.3906 C245.8125,615.6563 245.125,615.7813 244.3594,615.7813 C242.3125,615.7813 241.0156,614.6875 241.0156,612.9844 L241.0156,611.8906 C241.0156,610.1094 242.2656,608.7969 244,608.7969 C244.5781,608.7969 245.1875,608.9531 245.6563,609.2031 C246.1406,609.4844 246.3125,609.7031 246.4063,610.1094 C246.4688,610.5156 246.5,610.6406 246.6406,610.7656 C246.7813,610.9063 247.0156,611.0156 247.2344,611.0156 C247.5,611.0156 247.7656,610.875 247.9375,610.6563 C248.0469,610.5 248.0781,610.3125 248.0781,609.8906 L248.0781,608.4688 C248.0781,608.0313 248.0625,607.9063 247.9688,607.75 C247.8125,607.4844 247.5313,607.3438 247.2344,607.3438 C246.9375,607.3438 246.7344,607.4375 246.5156,607.75 L246.3438,607.6719 Z " fill="#000000"/><text fill="#000000" font-family="sans-serif" font-size="12" lengthAdjust="spacingAndGlyphs" textLength="78" x="258" y="616.1543">PieceAttaque</text><line style="stroke: #A80036; stroke-width: 1.5;" x1="230" x2="338" y1="628" y2="628"/><line style="stroke: #A80036; stroke-width: 1.5;" x1="230" x2="338" y1="636" y2="636"/><!--MD5=[e362b10ac0e4432dd6557b6ae7a714de]
class PieceScore--><rect codeLine="9" fill="#FEFECE" filter="url(#fxo6ienppipn6)" height="48" id="PieceScore" style="stroke: #A80036; stroke-width: 1.5;" width="100" x="374" y="596"/><ellipse cx="389" cy="612" fill="#ADD1B2" rx="11" ry="11" style="stroke: #A80036; stroke-width: 1.0;"/><path d="M391.3438,607.6719 C390.4063,607.2344 389.8125,607.0938 388.9375,607.0938 C386.3125,607.0938 384.3125,609.1719 384.3125,611.8906 L384.3125,613.0156 C384.3125,615.5938 386.4219,617.4844 389.3125,617.4844 C390.5313,617.4844 391.6875,617.1875 392.4375,616.6406 C393.0156,616.2344 393.3438,615.7813 393.3438,615.3906 C393.3438,614.9375 392.9531,614.5469 392.4844,614.5469 C392.2656,614.5469 392.0625,614.625 391.875,614.8125 C391.4219,615.2969 391.4219,615.2969 391.2344,615.3906 C390.8125,615.6563 390.125,615.7813 389.3594,615.7813 C387.3125,615.7813 386.0156,614.6875 386.0156,612.9844 L386.0156,611.8906 C386.0156,610.1094 387.2656,608.7969 389,608.7969 C389.5781,608.7969 390.1875,608.9531 390.6563,609.2031 C391.1406,609.4844 391.3125,609.7031 391.4063,610.1094 C391.4688,610.5156 391.5,610.6406 391.6406,610.7656 C391.7813,610.9063 392.0156,611.0156 392.2344,611.0156 C392.5,611.0156 392.7656,610.875 392.9375,610.6563 C393.0469,610.5 393.0781,610.3125 393.0781,609.8906 L393.0781,608.4688 C393.0781,608.0313 393.0625,607.9063 392.9688,607.75 C392.8125,607.4844 392.5313,607.3438 392.2344,607.3438 C391.9375,607.3438 391.7344,607.4375 391.5156,607.75 L391.3438,607.6719 Z " fill="#000000"/><text fill="#000000" font-family="sans-serif" font-size="12" lengthAdjust="spacingAndGlyphs" textLength="68" x="403" y="616.1543">PieceScore</text><line style="stroke: #A80036; stroke-width: 1.5;" x1="375" x2="473" y1="628" y2="628"/><line style="stroke: #A80036; stroke-width: 1.5;" x1="375" x2="473" y1="636" y2="636"/><!--MD5=[f1a45077a80ed8733c43779119961b29]
class Pacman--><rect codeLine="11" fill="#FEFECE" filter="url(#fxo6ienppipn6)" height="48" id="Pacman" style="stroke: #A80036; stroke-width: 1.5;" width="77" x="218.5" y="488"/><ellipse cx="233.5" cy="504" fill="#ADD1B2" rx="11" ry="11" style="stroke: #A80036; stroke-width: 1.0;"/><path d="M235.8438,499.6719 C234.9063,499.2344 234.3125,499.0938 233.4375,499.0938 C230.8125,499.0938 228.8125,501.1719 228.8125,503.8906 L228.8125,505.0156 C228.8125,507.5938 230.9219,509.4844 233.8125,509.4844 C235.0313,509.4844 236.1875,509.1875 236.9375,508.6406 C237.5156,508.2344 237.8438,507.7813 237.8438,507.3906 C237.8438,506.9375 237.4531,506.5469 236.9844,506.5469 C236.7656,506.5469 236.5625,506.625 236.375,506.8125 C235.9219,507.2969 235.9219,507.2969 235.7344,507.3906 C235.3125,507.6563 234.625,507.7813 233.8594,507.7813 C231.8125,507.7813 230.5156,506.6875 230.5156,504.9844 L230.5156,503.8906 C230.5156,502.1094 231.7656,500.7969 233.5,500.7969 C234.0781,500.7969 234.6875,500.9531 235.1563,501.2031 C235.6406,501.4844 235.8125,501.7031 235.9063,502.1094 C235.9688,502.5156 236,502.6406 236.1406,502.7656 C236.2813,502.9063 236.5156,503.0156 236.7344,503.0156 C237,503.0156 237.2656,502.875 237.4375,502.6563 C237.5469,502.5 237.5781,502.3125 237.5781,501.8906 L237.5781,500.4688 C237.5781,500.0313 237.5625,499.9063 237.4688,499.75 C237.3125,499.4844 237.0313,499.3438 236.7344,499.3438 C236.4375,499.3438 236.2344,499.4375 236.0156,499.75 L235.8438,499.6719 Z " fill="#000000"/><text fill="#000000" font-family="sans-serif" font-size="12" lengthAdjust="spacingAndGlyphs" textLength="45" x="247.5" y="508.1543">Pacman</text><line style="stroke: #A80036; stroke-width: 1.5;" x1="219.5" x2="294.5" y1="520" y2="520"/><line style="stroke: #A80036; stroke-width: 1.5;" x1="219.5" x2="294.5" y1="528" y2="528"/><!--MD5=[7f9f6f2d8e92938121262dc4c5d80163]
class PacmanGame--><rect codeLine="13" fill="#FEFECE" filter="url(#fxo6ienppipn6)" height="48" id="PacmanGame" style="stroke: #A80036; stroke-width: 1.5;" width="112" x="262" y="149"/><ellipse cx="277" cy="165" fill="#ADD1B2" rx="11" ry="11" style="stroke: #A80036; stroke-width: 1.0;"/><path d="M279.3438,160.6719 C278.4063,160.2344 277.8125,160.0938 276.9375,160.0938 C274.3125,160.0938 272.3125,162.1719 272.3125,164.8906 L272.3125,166.0156 C272.3125,168.5938 274.4219,170.4844 277.3125,170.4844 C278.5313,170.4844 279.6875,170.1875 280.4375,169.6406 C281.0156,169.2344 281.3438,168.7813 281.3438,168.3906 C281.3438,167.9375 280.9531,167.5469 280.4844,167.5469 C280.2656,167.5469 280.0625,167.625 279.875,167.8125 C279.4219,168.2969 279.4219,168.2969 279.2344,168.3906 C278.8125,168.6563 278.125,168.7813 277.3594,168.7813 C275.3125,168.7813 274.0156,167.6875 274.0156,165.9844 L274.0156,164.8906 C274.0156,163.1094 275.2656,161.7969 277,161.7969 C277.5781,161.7969 278.1875,161.9531 278.6563,162.2031 C279.1406,162.4844 279.3125,162.7031 279.4063,163.1094 C279.4688,163.5156 279.5,163.6406 279.6406,163.7656 C279.7813,163.9063 280.0156,164.0156 280.2344,164.0156 C280.5,164.0156 280.7656,163.875 280.9375,163.6563 C281.0469,163.5 281.0781,163.3125 281.0781,162.8906 L281.0781,161.4688 C281.0781,161.0313 281.0625,160.9063 280.9688,160.75 C280.8125,160.4844 280.5313,160.3438 280.2344,160.3438 C279.9375,160.3438 279.7344,160.4375 279.5156,160.75 L279.3438,160.6719 Z " fill="#000000"/><text fill="#000000" font-family="sans-serif" font-size="12" lengthAdjust="spacingAndGlyphs" textLength="80" x="291" y="169.1543">PacmanGame</text><line style="stroke: #A80036; stroke-width: 1.5;" x1="263" x2="373" y1="181" y2="181"/><line style="stroke: #A80036; stroke-width: 1.5;" x1="263" x2="373" y1="189" y2="189"/><!--MD5=[b6dcce5e5ef3c84b0b048d11301373dd]
class Game--><rect codeLine="35" fill="#FEFECE" filter="url(#fxo6ienppipn6)" height="48" id="Game" style="stroke: #A80036; stroke-width: 1.5;" width="67" x="401.5" y="41"/><ellipse cx="416.5" cy="57" fill="#B4A7E5" rx="11" ry="11" style="stroke: #A80036; stroke-width: 1.0;"/><path d="M417.4531,53.7813 L419.1719,53.7813 C419.5625,53.7813 419.75,53.75 419.875,53.6719 C420.1406,53.5156 420.2813,53.2344 420.2813,52.9375 C420.2813,52.6719 420.1719,52.4063 419.9375,52.2344 C419.7656,52.125 419.625,52.0938 419.1719,52.0938 L414.0313,52.0938 C413.5938,52.0938 413.4688,52.1094 413.3125,52.2031 C413.0625,52.3594 412.9063,52.6563 412.9063,52.9375 C412.9063,53.2188 413.0469,53.4688 413.2656,53.6406 C413.4219,53.75 413.6094,53.7813 414.0313,53.7813 L415.75,53.7813 L415.75,60.2969 L414.0313,60.2969 C413.5938,60.2969 413.4688,60.3125 413.3125,60.4219 C413.0625,60.5781 412.9063,60.8594 412.9063,61.1563 C412.9063,61.4063 413.0469,61.6719 413.2656,61.8281 C413.4219,61.9531 413.625,62 414.0313,62 L419.1719,62 C419.9219,62 420.2813,61.7188 420.2813,61.1563 C420.2813,60.875 420.1719,60.625 419.9375,60.4531 C419.7656,60.3281 419.625,60.2969 419.1719,60.2969 L417.4531,60.2969 L417.4531,53.7813 Z " fill="#000000"/><text fill="#000000" font-family="sans-serif" font-size="12" font-style="italic" lengthAdjust="spacingAndGlyphs" textLength="35" x="430.5" y="61.1543">Game</text><line style="stroke: #A80036; stroke-width: 1.5;" x1="402.5" x2="467.5" y1="73" y2="73"/><line style="stroke: #A80036; stroke-width: 1.5;" x1="402.5" x2="467.5" y1="81" y2="81"/><!--MD5=[c45abaa87488010b8b38d7cb3b3cc46f]
class Labyrinthe--><rect codeLine="15" fill="#FEFECE" filter="url(#fxo6ienppipn6)" height="48" id="Labyrinthe" style="stroke: #A80036; stroke-width: 1.5;" width="94" x="255" y="380"/><ellipse cx="270" cy="396" fill="#ADD1B2" rx="11" ry="11" style="stroke: #A80036; stroke-width: 1.0;"/><path d="M272.3438,391.6719 C271.4063,391.2344 270.8125,391.0938 269.9375,391.0938 C267.3125,391.0938 265.3125,393.1719 265.3125,395.8906 L265.3125,397.0156 C265.3125,399.5938 267.4219,401.4844 270.3125,401.4844 C271.5313,401.4844 272.6875,401.1875 273.4375,400.6406 C274.0156,400.2344 274.3438,399.7813 274.3438,399.3906 C274.3438,398.9375 273.9531,398.5469 273.4844,398.5469 C273.2656,398.5469 273.0625,398.625 272.875,398.8125 C272.4219,399.2969 272.4219,399.2969 272.2344,399.3906 C271.8125,399.6563 271.125,399.7813 270.3594,399.7813 C268.3125,399.7813 267.0156,398.6875 267.0156,396.9844 L267.0156,395.8906 C267.0156,394.1094 268.2656,392.7969 270,392.7969 C270.5781,392.7969 271.1875,392.9531 271.6563,393.2031 C272.1406,393.4844 272.3125,393.7031 272.4063,394.1094 C272.4688,394.5156 272.5,394.6406 272.6406,394.7656 C272.7813,394.9063 273.0156,395.0156 273.2344,395.0156 C273.5,395.0156 273.7656,394.875 273.9375,394.6563 C274.0469,394.5 274.0781,394.3125 274.0781,393.8906 L274.0781,392.4688 C274.0781,392.0313 274.0625,391.9063 273.9688,391.75 C273.8125,391.4844 273.5313,391.3438 273.2344,391.3438 C272.9375,391.3438 272.7344,391.4375 272.5156,391.75 L272.3438,391.6719 Z " fill="#000000"/><text fill="#000000" font-family="sans-serif" font-size="12" lengthAdjust="spacingAndGlyphs" textLength="62" x="284" y="400.1543">Labyrinthe</text><line style="stroke: #A80036; stroke-width: 1.5;" x1="256" x2="348" y1="412" y2="412"/><line style="stroke: #A80036; stroke-width: 1.5;" x1="256" x2="348" y1="420" y2="420"/><!--MD5=[d80f71a20ad5bc844207fdd4e8cd5494]
class FileReader--><rect codeLine="17" fill="#FEFECE" filter="url(#fxo6ienppipn6)" height="48" id="FileReader" style="stroke: #A80036; stroke-width: 1.5;" width="96" x="247" y="41"/><ellipse cx="262" cy="57" fill="#ADD1B2" rx="11" ry="11" style="stroke: #A80036; stroke-width: 1.0;"/><path d="M264.3438,52.6719 C263.4063,52.2344 262.8125,52.0938 261.9375,52.0938 C259.3125,52.0938 257.3125,54.1719 257.3125,56.8906 L257.3125,58.0156 C257.3125,60.5938 259.4219,62.4844 262.3125,62.4844 C263.5313,62.4844 264.6875,62.1875 265.4375,61.6406 C266.0156,61.2344 266.3438,60.7813 266.3438,60.3906 C266.3438,59.9375 265.9531,59.5469 265.4844,59.5469 C265.2656,59.5469 265.0625,59.625 264.875,59.8125 C264.4219,60.2969 264.4219,60.2969 264.2344,60.3906 C263.8125,60.6563 263.125,60.7813 262.3594,60.7813 C260.3125,60.7813 259.0156,59.6875 259.0156,57.9844 L259.0156,56.8906 C259.0156,55.1094 260.2656,53.7969 262,53.7969 C262.5781,53.7969 263.1875,53.9531 263.6563,54.2031 C264.1406,54.4844 264.3125,54.7031 264.4063,55.1094 C264.4688,55.5156 264.5,55.6406 264.6406,55.7656 C264.7813,55.9063 265.0156,56.0156 265.2344,56.0156 C265.5,56.0156 265.7656,55.875 265.9375,55.6563 C266.0469,55.5 266.0781,55.3125 266.0781,54.8906 L266.0781,53.4688 C266.0781,53.0313 266.0625,52.9063 265.9688,52.75 C265.8125,52.4844 265.5313,52.3438 265.2344,52.3438 C264.9375,52.3438 264.7344,52.4375 264.5156,52.75 L264.3438,52.6719 Z " fill="#000000"/><text fill="#000000" font-family="sans-serif" font-size="12" lengthAdjust="spacingAndGlyphs" textLength="64" x="276" y="61.1543">FileReader</text><line style="stroke: #A80036; stroke-width: 1.5;" x1="248" x2="342" y1="73" y2="73"/><line style="stroke: #A80036; stroke-width: 1.5;" x1="248" x2="342" y1="81" y2="81"/><!--MD5=[534746343535a0e90169a204d0c759bc]
class Monde--><rect codeLine="19" fill="#FEFECE" filter="url(#fxo6ienppipn6)" height="48" id="Monde" style="stroke: #A80036; stroke-width: 1.5;" width="73" x="265.5" y="272"/><ellipse cx="280.5" cy="288" fill="#ADD1B2" rx="11" ry="11" style="stroke: #A80036; stroke-width: 1.0;"/><path d="M282.8438,283.6719 C281.9063,283.2344 281.3125,283.0938 280.4375,283.0938 C277.8125,283.0938 275.8125,285.1719 275.8125,287.8906 L275.8125,289.0156 C275.8125,291.5938 277.9219,293.4844 280.8125,293.4844 C282.0313,293.4844 283.1875,293.1875 283.9375,292.6406 C284.5156,292.2344 284.8438,291.7813 284.8438,291.3906 C284.8438,290.9375 284.4531,290.5469 283.9844,290.5469 C283.7656,290.5469 283.5625,290.625 283.375,290.8125 C282.9219,291.2969 282.9219,291.2969 282.7344,291.3906 C282.3125,291.6563 281.625,291.7813 280.8594,291.7813 C278.8125,291.7813 277.5156,290.6875 277.5156,288.9844 L277.5156,287.8906 C277.5156,286.1094 278.7656,284.7969 280.5,284.7969 C281.0781,284.7969 281.6875,284.9531 282.1563,285.2031 C282.6406,285.4844 282.8125,285.7031 282.9063,286.1094 C282.9688,286.5156 283,286.6406 283.1406,286.7656 C283.2813,286.9063 283.5156,287.0156 283.7344,287.0156 C284,287.0156 284.2656,286.875 284.4375,286.6563 C284.5469,286.5 284.5781,286.3125 284.5781,285.8906 L284.5781,284.4688 C284.5781,284.0313 284.5625,283.9063 284.4688,283.75 C284.3125,283.4844 284.0313,283.3438 283.7344,283.3438 C283.4375,283.3438 283.2344,283.4375 283.0156,283.75 L282.8438,283.6719 Z " fill="#000000"/><text fill="#000000" font-family="sans-serif" font-size="12" lengthAdjust="spacingAndGlyphs" textLength="41" x="294.5" y="292.1543">Monde</text><line style="stroke: #A80036; stroke-width: 1.5;" x1="266.5" x2="337.5" y1="304" y2="304"/><line style="stroke: #A80036; stroke-width: 1.5;" x1="266.5" x2="337.5" y1="312" y2="312"/><!--MD5=[0a6053ba9badb57dfd155534c16c63a7]
class PlateauException--><rect codeLine="26" fill="#FEFECE" filter="url(#fxo6ienppipn6)" height="48" id="PlateauException" style="stroke: #A80036; stroke-width: 1.5;" width="133" x="1051.5" y="149"/><ellipse cx="1066.5" cy="165" fill="#ADD1B2" rx="11" ry="11" style="stroke: #A80036; stroke-width: 1.0;"/><path d="M1068.8438,160.6719 C1067.9063,160.2344 1067.3125,160.0938 1066.4375,160.0938 C1063.8125,160.0938 1061.8125,162.1719 1061.8125,164.8906 L1061.8125,166.0156 C1061.8125,168.5938 1063.9219,170.4844 1066.8125,170.4844 C1068.0313,170.4844 1069.1875,170.1875 1069.9375,169.6406 C1070.5156,169.2344 1070.8438,168.7813 1070.8438,168.3906 C1070.8438,167.9375 1070.4531,167.5469 1069.9844,167.5469 C1069.7656,167.5469 1069.5625,167.625 1069.375,167.8125 C1068.9219,168.2969 1068.9219,168.2969 1068.7344,168.3906 C1068.3125,168.6563 1067.625,168.7813 1066.8594,168.7813 C1064.8125,168.7813 1063.5156,167.6875 1063.5156,165.9844 L1063.5156,164.8906 C1063.5156,163.1094 1064.7656,161.7969 1066.5,161.7969 C1067.0781,161.7969 1067.6875,161.9531 1068.1563,162.2031 C1068.6406,162.4844 1068.8125,162.7031 1068.9063,163.1094 C1068.9688,163.5156 1069,163.6406 1069.1406,163.7656 C1069.2813,163.9063 1069.5156,164.0156 1069.7344,164.0156 C1070,164.0156 1070.2656,163.875 1070.4375,163.6563 C1070.5469,163.5 1070.5781,163.3125 1070.5781,162.8906 L1070.5781,161.4688 C1070.5781,161.0313 1070.5625,160.9063 1070.4688,160.75 C1070.3125,160.4844 1070.0313,160.3438 1069.7344,160.3438 C1069.4375,160.3438 1069.2344,160.4375 1069.0156,160.75 L1068.8438,160.6719 Z " fill="#000000"/><text fill="#000000" font-family="sans-serif" font-size="12" lengthAdjust="spacingAndGlyphs" textLength="101" x="1080.5" y="169.1543">PlateauException</text><line style="stroke: #A80036; stroke-width: 1.5;" x1="1052.5" x2="1183.5" y1="181" y2="181"/><line style="stroke: #A80036; stroke-width: 1.5;" x1="1052.5" x2="1183.5" y1="189" y2="189"/><!--MD5=[5c6c7d52e42032554528404b62c1d271]
class RuntimeException--><rect fill="#FEFECE" filter="url(#fxo6ienppipn6)" height="48" id="RuntimeException" style="stroke: #A80036; stroke-width: 1.5;" width="138" x="1049" y="41"/><ellipse cx="1064" cy="57" fill="#ADD1B2" rx="11" ry="11" style="stroke: #A80036; stroke-width: 1.0;"/><path d="M1066.3438,52.6719 C1065.4063,52.2344 1064.8125,52.0938 1063.9375,52.0938 C1061.3125,52.0938 1059.3125,54.1719 1059.3125,56.8906 L1059.3125,58.0156 C1059.3125,60.5938 1061.4219,62.4844 1064.3125,62.4844 C1065.5313,62.4844 1066.6875,62.1875 1067.4375,61.6406 C1068.0156,61.2344 1068.3438,60.7813 1068.3438,60.3906 C1068.3438,59.9375 1067.9531,59.5469 1067.4844,59.5469 C1067.2656,59.5469 1067.0625,59.625 1066.875,59.8125 C1066.4219,60.2969 1066.4219,60.2969 1066.2344,60.3906 C1065.8125,60.6563 1065.125,60.7813 1064.3594,60.7813 C1062.3125,60.7813 1061.0156,59.6875 1061.0156,57.9844 L1061.0156,56.8906 C1061.0156,55.1094 1062.2656,53.7969 1064,53.7969 C1064.5781,53.7969 1065.1875,53.9531 1065.6563,54.2031 C1066.1406,54.4844 1066.3125,54.7031 1066.4063,55.1094 C1066.4688,55.5156 1066.5,55.6406 1066.6406,55.7656 C1066.7813,55.9063 1067.0156,56.0156 1067.2344,56.0156 C1067.5,56.0156 1067.7656,55.875 1067.9375,55.6563 C1068.0469,55.5 1068.0781,55.3125 1068.0781,54.8906 L1068.0781,53.4688 C1068.0781,53.0313 1068.0625,52.9063 1067.9688,52.75 C1067.8125,52.4844 1067.5313,52.3438 1067.2344,52.3438 C1066.9375,52.3438 1066.7344,52.4375 1066.5156,52.75 L1066.3438,52.6719 Z " fill="#000000"/><text fill="#000000" font-family="sans-serif" font-size="12" lengthAdjust="spacingAndGlyphs" textLength="106" x="1078" y="61.1543">RuntimeException</text><line style="stroke: #A80036; stroke-width: 1.5;" x1="1050" x2="1186" y1="73" y2="73"/><line style="stroke: #A80036; stroke-width: 1.5;" x1="1050" x2="1186" y1="81" y2="81"/><!--MD5=[2e5679976a773afae2525507978dad9d]
class Cmd--><rect codeLine="33" fill="#FEFECE" filter="url(#fxo6ienppipn6)" height="48" id="Cmd" style="stroke: #A80036; stroke-width: 1.5;" width="59" x="542.5" y="272"/><ellipse cx="557.5" cy="288" fill="#EB937F" rx="11" ry="11" style="stroke: #A80036; stroke-width: 1.0;"/><path d="M556.2969,288.875 L557.75,288.875 L557.75,288.9844 C557.75,289.3906 557.7813,289.5469 557.8594,289.7031 C558.0156,289.9531 558.2969,290.1094 558.5938,290.1094 C558.8438,290.1094 559.1094,289.9688 559.2656,289.75 C559.3906,289.5938 559.4219,289.4375 559.4219,288.9844 L559.4219,287.0625 C559.4219,286.9063 559.4219,286.8594 559.4063,286.7031 C559.3438,286.2344 559.0313,285.9219 558.5781,285.9219 C558.3281,285.9219 558.0625,286.0625 557.8906,286.2813 C557.7813,286.4531 557.75,286.6094 557.75,287.0625 L557.75,287.1875 L556.2969,287.1875 L556.2969,284.7813 L560.2813,284.7813 L560.2813,285.6406 C560.2813,286.0469 560.3125,286.2188 560.3906,286.375 C560.5625,286.625 560.8438,286.7813 561.125,286.7813 C561.3906,286.7813 561.6563,286.6406 561.8281,286.4219 C561.9375,286.25 561.9688,286.1094 561.9688,285.6406 L561.9688,283.0938 L554.3438,283.0938 C553.9063,283.0938 553.7813,283.1094 553.625,283.2031 C553.375,283.3594 553.2188,283.6563 553.2188,283.9375 C553.2188,284.2188 553.3594,284.4688 553.5781,284.6406 C553.7344,284.75 553.9219,284.7813 554.3438,284.7813 L554.5938,284.7813 L554.5938,291.2969 L554.3438,291.2969 C553.9375,291.2969 553.7813,291.3125 553.625,291.4219 C553.375,291.5938 553.2188,291.8594 553.2188,292.1563 C553.2188,292.4219 553.3594,292.6719 553.5781,292.8281 C553.7188,292.9531 553.9531,293 554.3438,293 L562.3438,293 L562.3438,290.4219 C562.3438,289.9844 562.3125,289.8438 562.2344,289.6875 C562.0625,289.4375 561.7813,289.2813 561.5,289.2813 C561.2344,289.2813 560.9688,289.3906 560.7969,289.6406 C560.6875,289.7969 560.6563,289.9375 560.6563,290.4219 L560.6563,291.2969 L556.2969,291.2969 L556.2969,288.875 Z " fill="#000000"/><text fill="#000000" font-family="sans-serif" font-size="12" lengthAdjust="spacingAndGlyphs" textLength="27" x="571.5" y="292.1543">Cmd</text><line style="stroke: #A80036; stroke-width: 1.5;" x1="543.5" x2="600.5" y1="304" y2="304"/><line style="stroke: #A80036; stroke-width: 1.5;" x1="543.5" x2="600.5" y1="312" y2="312"/><!--MD5=[7cc6ce3da43ef94cad7d75512e2834ff]
class GameEngineGraphical--><rect codeLine="37" fill="#FEFECE" filter="url(#fxo6ienppipn6)" height="48" id="GameEngineGraphical" style="stroke: #A80036; stroke-width: 1.5;" width="163" x="1143.5" y="272"/><ellipse cx="1158.5" cy="288" fill="#ADD1B2" rx="11" ry="11" style="stroke: #A80036; stroke-width: 1.0;"/><path d="M1160.8438,283.6719 C1159.9063,283.2344 1159.3125,283.0938 1158.4375,283.0938 C1155.8125,283.0938 1153.8125,285.1719 1153.8125,287.8906 L1153.8125,289.0156 C1153.8125,291.5938 1155.9219,293.4844 1158.8125,293.4844 C1160.0313,293.4844 1161.1875,293.1875 1161.9375,292.6406 C1162.5156,292.2344 1162.8438,291.7813 1162.8438,291.3906 C1162.8438,290.9375 1162.4531,290.5469 1161.9844,290.5469 C1161.7656,290.5469 1161.5625,290.625 1161.375,290.8125 C1160.9219,291.2969 1160.9219,291.2969 1160.7344,291.3906 C1160.3125,291.6563 1159.625,291.7813 1158.8594,291.7813 C1156.8125,291.7813 1155.5156,290.6875 1155.5156,288.9844 L1155.5156,287.8906 C1155.5156,286.1094 1156.7656,284.7969 1158.5,284.7969 C1159.0781,284.7969 1159.6875,284.9531 1160.1563,285.2031 C1160.6406,285.4844 1160.8125,285.7031 1160.9063,286.1094 C1160.9688,286.5156 1161,286.6406 1161.1406,286.7656 C1161.2813,286.9063 1161.5156,287.0156 1161.7344,287.0156 C1162,287.0156 1162.2656,286.875 1162.4375,286.6563 C1162.5469,286.5 1162.5781,286.3125 1162.5781,285.8906 L1162.5781,284.4688 C1162.5781,284.0313 1162.5625,283.9063 1162.4688,283.75 C1162.3125,283.4844 1162.0313,283.3438 1161.7344,283.3438 C1161.4375,283.3438 1161.2344,283.4375 1161.0156,283.75 L1160.8438,283.6719 Z " fill="#000000"/><text fill="#000000" font-family="sans-serif" font-size="12" lengthAdjust="spacingAndGlyphs" textLength="131" x="1172.5" y="292.1543">GameEngineGraphical</text><line style="stroke: #A80036; stroke-width: 1.5;" x1="1144.5" x2="1305.5" y1="304" y2="304"/><line style="stroke: #A80036; stroke-width: 1.5;" x1="1144.5" x2="1305.5" y1="312" y2="312"/><!--MD5=[3ad2a79a7d7d539cf057dae47f26badf]
class DrawingPanel--><rect codeLine="41" fill="#FEFECE" filter="url(#fxo6ienppipn6)" height="48" id="DrawingPanel" style="stroke: #A80036; stroke-width: 1.5;" width="112" x="1545" y="488"/><ellipse cx="1560" cy="504" fill="#ADD1B2" rx="11" ry="11" style="stroke: #A80036; stroke-width: 1.0;"/><path d="M1562.3438,499.6719 C1561.4063,499.2344 1560.8125,499.0938 1559.9375,499.0938 C1557.3125,499.0938 1555.3125,501.1719 1555.3125,503.8906 L1555.3125,505.0156 C1555.3125,507.5938 1557.4219,509.4844 1560.3125,509.4844 C1561.5313,509.4844 1562.6875,509.1875 1563.4375,508.6406 C1564.0156,508.2344 1564.3438,507.7813 1564.3438,507.3906 C1564.3438,506.9375 1563.9531,506.5469 1563.4844,506.5469 C1563.2656,506.5469 1563.0625,506.625 1562.875,506.8125 C1562.4219,507.2969 1562.4219,507.2969 1562.2344,507.3906 C1561.8125,507.6563 1561.125,507.7813 1560.3594,507.7813 C1558.3125,507.7813 1557.0156,506.6875 1557.0156,504.9844 L1557.0156,503.8906 C1557.0156,502.1094 1558.2656,500.7969 1560,500.7969 C1560.5781,500.7969 1561.1875,500.9531 1561.6563,501.2031 C1562.1406,501.4844 1562.3125,501.7031 1562.4063,502.1094 C1562.4688,502.5156 1562.5,502.6406 1562.6406,502.7656 C1562.7813,502.9063 1563.0156,503.0156 1563.2344,503.0156 C1563.5,503.0156 1563.7656,502.875 1563.9375,502.6563 C1564.0469,502.5 1564.0781,502.3125 1564.0781,501.8906 L1564.0781,500.4688 C1564.0781,500.0313 1564.0625,499.9063 1563.9688,499.75 C1563.8125,499.4844 1563.5313,499.3438 1563.2344,499.3438 C1562.9375,499.3438 1562.7344,499.4375 1562.5156,499.75 L1562.3438,499.6719 Z " fill="#000000"/><text fill="#000000" font-family="sans-serif" font-size="12" lengthAdjust="spacingAndGlyphs" textLength="80" x="1574" y="508.1543">DrawingPanel</text><line style="stroke: #A80036; stroke-width: 1.5;" x1="1546" x2="1656" y1="520" y2="520"/><line style="stroke: #A80036; stroke-width: 1.5;" x1="1546" x2="1656" y1="528" y2="528"/><!--MD5=[36afe292eb27441132c327893668631d]
class JPanel--><rect fill="#FEFECE" filter="url(#fxo6ienppipn6)" height="48" id="JPanel" style="stroke: #A80036; stroke-width: 1.5;" width="67" x="1589.5" y="380"/><ellipse cx="1604.5" cy="396" fill="#ADD1B2" rx="11" ry="11" style="stroke: #A80036; stroke-width: 1.0;"/><path d="M1606.8438,391.6719 C1605.9063,391.2344 1605.3125,391.0938 1604.4375,391.0938 C1601.8125,391.0938 1599.8125,393.1719 1599.8125,395.8906 L1599.8125,397.0156 C1599.8125,399.5938 1601.9219,401.4844 1604.8125,401.4844 C1606.0313,401.4844 1607.1875,401.1875 1607.9375,400.6406 C1608.5156,400.2344 1608.8438,399.7813 1608.8438,399.3906 C1608.8438,398.9375 1608.4531,398.5469 1607.9844,398.5469 C1607.7656,398.5469 1607.5625,398.625 1607.375,398.8125 C1606.9219,399.2969 1606.9219,399.2969 1606.7344,399.3906 C1606.3125,399.6563 1605.625,399.7813 1604.8594,399.7813 C1602.8125,399.7813 1601.5156,398.6875 1601.5156,396.9844 L1601.5156,395.8906 C1601.5156,394.1094 1602.7656,392.7969 1604.5,392.7969 C1605.0781,392.7969 1605.6875,392.9531 1606.1563,393.2031 C1606.6406,393.4844 1606.8125,393.7031 1606.9063,394.1094 C1606.9688,394.5156 1607,394.6406 1607.1406,394.7656 C1607.2813,394.9063 1607.5156,395.0156 1607.7344,395.0156 C1608,395.0156 1608.2656,394.875 1608.4375,394.6563 C1608.5469,394.5 1608.5781,394.3125 1608.5781,393.8906 L1608.5781,392.4688 C1608.5781,392.0313 1608.5625,391.9063 1608.4688,391.75 C1608.3125,391.4844 1608.0313,391.3438 1607.7344,391.3438 C1607.4375,391.3438 1607.2344,391.4375 1607.0156,391.75 L1606.8438,391.6719 Z " fill="#000000"/><text fill="#000000" font-family="sans-serif" font-size="12" lengthAdjust="spacingAndGlyphs" textLength="35" x="1618.5" y="400.1543">JPanel</text><line style="stroke: #A80036; stroke-width: 1.5;" x1="1590.5" x2="1655.5" y1="412" y2="412"/><line style="stroke: #A80036; stroke-width: 1.5;" x1="1590.5" x2="1655.5" y1="420" y2="420"/><!--MD5=[d7976c3e31f2093d0743d92749b86f63]
class GraphicalInterface--><rect codeLine="43" fill="#FEFECE" filter="url(#fxo6ienppipn6)" height="48" id="GraphicalInterface" style="stroke: #A80036; stroke-width: 1.5;" width="141" x="1413.5" y="380"/><ellipse cx="1428.5" cy="396" fill="#ADD1B2" rx="11" ry="11" style="stroke: #A80036; stroke-width: 1.0;"/><path d="M1430.8438,391.6719 C1429.9063,391.2344 1429.3125,391.0938 1428.4375,391.0938 C1425.8125,391.0938 1423.8125,393.1719 1423.8125,395.8906 L1423.8125,397.0156 C1423.8125,399.5938 1425.9219,401.4844 1428.8125,401.4844 C1430.0313,401.4844 1431.1875,401.1875 1431.9375,400.6406 C1432.5156,400.2344 1432.8438,399.7813 1432.8438,399.3906 C1432.8438,398.9375 1432.4531,398.5469 1431.9844,398.5469 C1431.7656,398.5469 1431.5625,398.625 1431.375,398.8125 C1430.9219,399.2969 1430.9219,399.2969 1430.7344,399.3906 C1430.3125,399.6563 1429.625,399.7813 1428.8594,399.7813 C1426.8125,399.7813 1425.5156,398.6875 1425.5156,396.9844 L1425.5156,395.8906 C1425.5156,394.1094 1426.7656,392.7969 1428.5,392.7969 C1429.0781,392.7969 1429.6875,392.9531 1430.1563,393.2031 C1430.6406,393.4844 1430.8125,393.7031 1430.9063,394.1094 C1430.9688,394.5156 1431,394.6406 1431.1406,394.7656 C1431.2813,394.9063 1431.5156,395.0156 1431.7344,395.0156 C1432,395.0156 1432.2656,394.875 1432.4375,394.6563 C1432.5469,394.5 1432.5781,394.3125 1432.5781,393.8906 L1432.5781,392.4688 C1432.5781,392.0313 1432.5625,391.9063 1432.4688,391.75 C1432.3125,391.4844 1432.0313,391.3438 1431.7344,391.3438 C1431.4375,391.3438 1431.2344,391.4375 1431.0156,391.75 L1430.8438,391.6719 Z " fill="#000000"/><text fill="#000000" font-family="sans-serif" font-size="12" lengthAdjust="spacingAndGlyphs" textLength="109" x="1442.5" y="400.1543">GraphicalInterface</text><line style="stroke: #A80036; stroke-width: 1.5;" x1="1414.5" x2="1553.5" y1="412" y2="412"/><line style="stroke: #A80036; stroke-width: 1.5;" x1="1414.5" x2="1553.5" y1="420" y2="420"/><!--MD5=[6334a9df84847b1e3cc0f4b3bb7faca9]
class GamePainter--><rect codeLine="45" fill="#FEFECE" filter="url(#fxo6ienppipn6)" height="48" id="GamePainter" style="stroke: #A80036; stroke-width: 1.5;" width="109" x="1546.5" y="596"/><ellipse cx="1561.5" cy="612" fill="#B4A7E5" rx="11" ry="11" style="stroke: #A80036; stroke-width: 1.0;"/><path d="M1562.4531,608.7813 L1564.1719,608.7813 C1564.5625,608.7813 1564.75,608.75 1564.875,608.6719 C1565.1406,608.5156 1565.2813,608.2344 1565.2813,607.9375 C1565.2813,607.6719 1565.1719,607.4063 1564.9375,607.2344 C1564.7656,607.125 1564.625,607.0938 1564.1719,607.0938 L1559.0313,607.0938 C1558.5938,607.0938 1558.4688,607.1094 1558.3125,607.2031 C1558.0625,607.3594 1557.9063,607.6563 1557.9063,607.9375 C1557.9063,608.2188 1558.0469,608.4688 1558.2656,608.6406 C1558.4219,608.75 1558.6094,608.7813 1559.0313,608.7813 L1560.75,608.7813 L1560.75,615.2969 L1559.0313,615.2969 C1558.5938,615.2969 1558.4688,615.3125 1558.3125,615.4219 C1558.0625,615.5781 1557.9063,615.8594 1557.9063,616.1563 C1557.9063,616.4063 1558.0469,616.6719 1558.2656,616.8281 C1558.4219,616.9531 1558.625,617 1559.0313,617 L1564.1719,617 C1564.9219,617 1565.2813,616.7188 1565.2813,616.1563 C1565.2813,615.875 1565.1719,615.625 1564.9375,615.4531 C1564.7656,615.3281 1564.625,615.2969 1564.1719,615.2969 L1562.4531,615.2969 L1562.4531,608.7813 Z " fill="#000000"/><text fill="#000000" font-family="sans-serif" font-size="12" font-style="italic" lengthAdjust="spacingAndGlyphs" textLength="77" x="1575.5" y="616.1543">GamePainter</text><line style="stroke: #A80036; stroke-width: 1.5;" x1="1547.5" x2="1654.5" y1="628" y2="628"/><line style="stroke: #A80036; stroke-width: 1.5;" x1="1547.5" x2="1654.5" y1="636" y2="636"/><!--MD5=[0ebb1e4172d95877344b1d122ba82f65]
class MenuUi--><rect codeLine="47" fill="#FEFECE" filter="url(#fxo6ienppipn6)" height="48" id="MenuUi" style="stroke: #A80036; stroke-width: 1.5;" width="77" x="1301.5" y="380"/><ellipse cx="1316.5" cy="396" fill="#B4A7E5" rx="11" ry="11" style="stroke: #A80036; stroke-width: 1.0;"/><path d="M1317.4531,392.7813 L1319.1719,392.7813 C1319.5625,392.7813 1319.75,392.75 1319.875,392.6719 C1320.1406,392.5156 1320.2813,392.2344 1320.2813,391.9375 C1320.2813,391.6719 1320.1719,391.4063 1319.9375,391.2344 C1319.7656,391.125 1319.625,391.0938 1319.1719,391.0938 L1314.0313,391.0938 C1313.5938,391.0938 1313.4688,391.1094 1313.3125,391.2031 C1313.0625,391.3594 1312.9063,391.6563 1312.9063,391.9375 C1312.9063,392.2188 1313.0469,392.4688 1313.2656,392.6406 C1313.4219,392.75 1313.6094,392.7813 1314.0313,392.7813 L1315.75,392.7813 L1315.75,399.2969 L1314.0313,399.2969 C1313.5938,399.2969 1313.4688,399.3125 1313.3125,399.4219 C1313.0625,399.5781 1312.9063,399.8594 1312.9063,400.1563 C1312.9063,400.4063 1313.0469,400.6719 1313.2656,400.8281 C1313.4219,400.9531 1313.625,401 1314.0313,401 L1319.1719,401 C1319.9219,401 1320.2813,400.7188 1320.2813,400.1563 C1320.2813,399.875 1320.1719,399.625 1319.9375,399.4531 C1319.7656,399.3281 1319.625,399.2969 1319.1719,399.2969 L1317.4531,399.2969 L1317.4531,392.7813 Z " fill="#000000"/><text fill="#000000" font-family="sans-serif" font-size="12" font-style="italic" lengthAdjust="spacingAndGlyphs" textLength="45" x="1330.5" y="400.1543">MenuUi</text><line style="stroke: #A80036; stroke-width: 1.5;" x1="1302.5" x2="1377.5" y1="412" y2="412"/><line style="stroke: #A80036; stroke-width: 1.5;" x1="1302.5" x2="1377.5" y1="420" y2="420"/><!--MD5=[8d2ddd461e593964ccbd45e1418f0370]
class PacmanPainter--><rect codeLine="49" fill="#FEFECE" filter="url(#fxo6ienppipn6)" height="48" id="PacmanPainter" style="stroke: #A80036; stroke-width: 1.5;" width="117" x="1451.5" y="704"/><ellipse cx="1466.5" cy="720" fill="#ADD1B2" rx="11" ry="11" style="stroke: #A80036; stroke-width: 1.0;"/><path d="M1468.8438,715.6719 C1467.9063,715.2344 1467.3125,715.0938 1466.4375,715.0938 C1463.8125,715.0938 1461.8125,717.1719 1461.8125,719.8906 L1461.8125,721.0156 C1461.8125,723.5938 1463.9219,725.4844 1466.8125,725.4844 C1468.0313,725.4844 1469.1875,725.1875 1469.9375,724.6406 C1470.5156,724.2344 1470.8438,723.7813 1470.8438,723.3906 C1470.8438,722.9375 1470.4531,722.5469 1469.9844,722.5469 C1469.7656,722.5469 1469.5625,722.625 1469.375,722.8125 C1468.9219,723.2969 1468.9219,723.2969 1468.7344,723.3906 C1468.3125,723.6563 1467.625,723.7813 1466.8594,723.7813 C1464.8125,723.7813 1463.5156,722.6875 1463.5156,720.9844 L1463.5156,719.8906 C1463.5156,718.1094 1464.7656,716.7969 1466.5,716.7969 C1467.0781,716.7969 1467.6875,716.9531 1468.1563,717.2031 C1468.6406,717.4844 1468.8125,717.7031 1468.9063,718.1094 C1468.9688,718.5156 1469,718.6406 1469.1406,718.7656 C1469.2813,718.9063 1469.5156,719.0156 1469.7344,719.0156 C1470,719.0156 1470.2656,718.875 1470.4375,718.6563 C1470.5469,718.5 1470.5781,718.3125 1470.5781,717.8906 L1470.5781,716.4688 C1470.5781,716.0313 1470.5625,715.9063 1470.4688,715.75 C1470.3125,715.4844 1470.0313,715.3438 1469.7344,715.3438 C1469.4375,715.3438 1469.2344,715.4375 1469.0156,715.75 L1468.8438,715.6719 Z " fill="#000000"/><text fill="#000000" font-family="sans-serif" font-size="12" lengthAdjust="spacingAndGlyphs" textLength="85" x="1480.5" y="724.1543">PacmanPainter</text><line style="stroke: #A80036; stroke-width: 1.5;" x1="1452.5" x2="1567.5" y1="736" y2="736"/><line style="stroke: #A80036; stroke-width: 1.5;" x1="1452.5" x2="1567.5" y1="744" y2="744"/><!--MD5=[17722d8b511704903d3a6159b7ab66da]
class PropertyChangeListener--><rect fill="#FEFECE" filter="url(#fxo6ienppipn6)" height="48" id="PropertyChangeListener" style="stroke: #A80036; stroke-width: 1.5;" width="177" x="1334.5" y="596"/><ellipse cx="1349.5" cy="612" fill="#B4A7E5" rx="11" ry="11" style="stroke: #A80036; stroke-width: 1.0;"/><path d="M1350.4531,608.7813 L1352.1719,608.7813 C1352.5625,608.7813 1352.75,608.75 1352.875,608.6719 C1353.1406,608.5156 1353.2813,608.2344 1353.2813,607.9375 C1353.2813,607.6719 1353.1719,607.4063 1352.9375,607.2344 C1352.7656,607.125 1352.625,607.0938 1352.1719,607.0938 L1347.0313,607.0938 C1346.5938,607.0938 1346.4688,607.1094 1346.3125,607.2031 C1346.0625,607.3594 1345.9063,607.6563 1345.9063,607.9375 C1345.9063,608.2188 1346.0469,608.4688 1346.2656,608.6406 C1346.4219,608.75 1346.6094,608.7813 1347.0313,608.7813 L1348.75,608.7813 L1348.75,615.2969 L1347.0313,615.2969 C1346.5938,615.2969 1346.4688,615.3125 1346.3125,615.4219 C1346.0625,615.5781 1345.9063,615.8594 1345.9063,616.1563 C1345.9063,616.4063 1346.0469,616.6719 1346.2656,616.8281 C1346.4219,616.9531 1346.625,617 1347.0313,617 L1352.1719,617 C1352.9219,617 1353.2813,616.7188 1353.2813,616.1563 C1353.2813,615.875 1353.1719,615.625 1352.9375,615.4531 C1352.7656,615.3281 1352.625,615.2969 1352.1719,615.2969 L1350.4531,615.2969 L1350.4531,608.7813 Z " fill="#000000"/><text fill="#000000" font-family="sans-serif" font-size="12" font-style="italic" lengthAdjust="spacingAndGlyphs" textLength="145" x="1363.5" y="616.1543">PropertyChangeListener</text><line style="stroke: #A80036; stroke-width: 1.5;" x1="1335.5" x2="1510.5" y1="628" y2="628"/><line style="stroke: #A80036; stroke-width: 1.5;" x1="1335.5" x2="1510.5" y1="636" y2="636"/><!--MD5=[c98e9c1b21770c00511a6036e33d3a25]
class MenuPrincipalPainter--><rect codeLine="51" fill="#FEFECE" filter="url(#fxo6ienppipn6)" height="48" id="MenuPrincipalPainter" style="stroke: #A80036; stroke-width: 1.5;" width="153" x="1148.5" y="488"/><ellipse cx="1163.5" cy="504" fill="#ADD1B2" rx="11" ry="11" style="stroke: #A80036; stroke-width: 1.0;"/><path d="M1165.8438,499.6719 C1164.9063,499.2344 1164.3125,499.0938 1163.4375,499.0938 C1160.8125,499.0938 1158.8125,501.1719 1158.8125,503.8906 L1158.8125,505.0156 C1158.8125,507.5938 1160.9219,509.4844 1163.8125,509.4844 C1165.0313,509.4844 1166.1875,509.1875 1166.9375,508.6406 C1167.5156,508.2344 1167.8438,507.7813 1167.8438,507.3906 C1167.8438,506.9375 1167.4531,506.5469 1166.9844,506.5469 C1166.7656,506.5469 1166.5625,506.625 1166.375,506.8125 C1165.9219,507.2969 1165.9219,507.2969 1165.7344,507.3906 C1165.3125,507.6563 1164.625,507.7813 1163.8594,507.7813 C1161.8125,507.7813 1160.5156,506.6875 1160.5156,504.9844 L1160.5156,503.8906 C1160.5156,502.1094 1161.7656,500.7969 1163.5,500.7969 C1164.0781,500.7969 1164.6875,500.9531 1165.1563,501.2031 C1165.6406,501.4844 1165.8125,501.7031 1165.9063,502.1094 C1165.9688,502.5156 1166,502.6406 1166.1406,502.7656 C1166.2813,502.9063 1166.5156,503.0156 1166.7344,503.0156 C1167,503.0156 1167.2656,502.875 1167.4375,502.6563 C1167.5469,502.5 1167.5781,502.3125 1167.5781,501.8906 L1167.5781,500.4688 C1167.5781,500.0313 1167.5625,499.9063 1167.4688,499.75 C1167.3125,499.4844 1167.0313,499.3438 1166.7344,499.3438 C1166.4375,499.3438 1166.2344,499.4375 1166.0156,499.75 L1165.8438,499.6719 Z " fill="#000000"/><text fill="#000000" font-family="sans-serif" font-size="12" lengthAdjust="spacingAndGlyphs" textLength="121" x="1177.5" y="508.1543">MenuPrincipalPainter</text><line style="stroke: #A80036; stroke-width: 1.5;" x1="1149.5" x2="1300.5" y1="520" y2="520"/><line style="stroke: #A80036; stroke-width: 1.5;" x1="1149.5" x2="1300.5" y1="528" y2="528"/><!--MD5=[04935357b5c5a2aec56a7c93da5b843d]
class ActionListener--><rect fill="#FEFECE" filter="url(#fxo6ienppipn6)" height="48" id="ActionListener" style="stroke: #A80036; stroke-width: 1.5;" width="118" x="1148" y="380"/><ellipse cx="1163" cy="396" fill="#B4A7E5" rx="11" ry="11" style="stroke: #A80036; stroke-width: 1.0;"/><path d="M1163.9531,392.7813 L1165.6719,392.7813 C1166.0625,392.7813 1166.25,392.75 1166.375,392.6719 C1166.6406,392.5156 1166.7813,392.2344 1166.7813,391.9375 C1166.7813,391.6719 1166.6719,391.4063 1166.4375,391.2344 C1166.2656,391.125 1166.125,391.0938 1165.6719,391.0938 L1160.5313,391.0938 C1160.0938,391.0938 1159.9688,391.1094 1159.8125,391.2031 C1159.5625,391.3594 1159.4063,391.6563 1159.4063,391.9375 C1159.4063,392.2188 1159.5469,392.4688 1159.7656,392.6406 C1159.9219,392.75 1160.1094,392.7813 1160.5313,392.7813 L1162.25,392.7813 L1162.25,399.2969 L1160.5313,399.2969 C1160.0938,399.2969 1159.9688,399.3125 1159.8125,399.4219 C1159.5625,399.5781 1159.4063,399.8594 1159.4063,400.1563 C1159.4063,400.4063 1159.5469,400.6719 1159.7656,400.8281 C1159.9219,400.9531 1160.125,401 1160.5313,401 L1165.6719,401 C1166.4219,401 1166.7813,400.7188 1166.7813,400.1563 C1166.7813,399.875 1166.6719,399.625 1166.4375,399.4531 C1166.2656,399.3281 1166.125,399.2969 1165.6719,399.2969 L1163.9531,399.2969 L1163.9531,392.7813 Z " fill="#000000"/><text fill="#000000" font-family="sans-serif" font-size="12" font-style="italic" lengthAdjust="spacingAndGlyphs" textLength="86" x="1177" y="400.1543">ActionListener</text><line style="stroke: #A80036; stroke-width: 1.5;" x1="1149" x2="1265" y1="412" y2="412"/><line style="stroke: #A80036; stroke-width: 1.5;" x1="1149" x2="1265" y1="420" y2="420"/><!--MD5=[a20b49d534c803a47c0d272c4b94f75a]
class MenuPausePainter--><rect codeLine="53" fill="#FEFECE" filter="url(#fxo6ienppipn6)" height="48" id="MenuPausePainter" style="stroke: #A80036; stroke-width: 1.5;" width="139" x="1336.5" y="488"/><ellipse cx="1351.5" cy="504" fill="#ADD1B2" rx="11" ry="11" style="stroke: #A80036; stroke-width: 1.0;"/><path d="M1353.8438,499.6719 C1352.9063,499.2344 1352.3125,499.0938 1351.4375,499.0938 C1348.8125,499.0938 1346.8125,501.1719 1346.8125,503.8906 L1346.8125,505.0156 C1346.8125,507.5938 1348.9219,509.4844 1351.8125,509.4844 C1353.0313,509.4844 1354.1875,509.1875 1354.9375,508.6406 C1355.5156,508.2344 1355.8438,507.7813 1355.8438,507.3906 C1355.8438,506.9375 1355.4531,506.5469 1354.9844,506.5469 C1354.7656,506.5469 1354.5625,506.625 1354.375,506.8125 C1353.9219,507.2969 1353.9219,507.2969 1353.7344,507.3906 C1353.3125,507.6563 1352.625,507.7813 1351.8594,507.7813 C1349.8125,507.7813 1348.5156,506.6875 1348.5156,504.9844 L1348.5156,503.8906 C1348.5156,502.1094 1349.7656,500.7969 1351.5,500.7969 C1352.0781,500.7969 1352.6875,500.9531 1353.1563,501.2031 C1353.6406,501.4844 1353.8125,501.7031 1353.9063,502.1094 C1353.9688,502.5156 1354,502.6406 1354.1406,502.7656 C1354.2813,502.9063 1354.5156,503.0156 1354.7344,503.0156 C1355,503.0156 1355.2656,502.875 1355.4375,502.6563 C1355.5469,502.5 1355.5781,502.3125 1355.5781,501.8906 L1355.5781,500.4688 C1355.5781,500.0313 1355.5625,499.9063 1355.4688,499.75 C1355.3125,499.4844 1355.0313,499.3438 1354.7344,499.3438 C1354.4375,499.3438 1354.2344,499.4375 1354.0156,499.75 L1353.8438,499.6719 Z " fill="#000000"/><text fill="#000000" font-family="sans-serif" font-size="12" lengthAdjust="spacingAndGlyphs" textLength="107" x="1365.5" y="508.1543">MenuPausePainter</text><line style="stroke: #A80036; stroke-width: 1.5;" x1="1337.5" x2="1474.5" y1="520" y2="520"/><line style="stroke: #A80036; stroke-width: 1.5;" x1="1337.5" x2="1474.5" y1="528" y2="528"/><!--MD5=[82d9c97a467af7c0b2c072e754b85475]
class GameController--><rect codeLine="59" fill="#FEFECE" filter="url(#fxo6ienppipn6)" height="48" id="GameController" style="stroke: #A80036; stroke-width: 1.5;" width="125" x="566.5" y="596"/><ellipse cx="581.5" cy="612" fill="#B4A7E5" rx="11" ry="11" style="stroke: #A80036; stroke-width: 1.0;"/><path d="M582.4531,608.7813 L584.1719,608.7813 C584.5625,608.7813 584.75,608.75 584.875,608.6719 C585.1406,608.5156 585.2813,608.2344 585.2813,607.9375 C585.2813,607.6719 585.1719,607.4063 584.9375,607.2344 C584.7656,607.125 584.625,607.0938 584.1719,607.0938 L579.0313,607.0938 C578.5938,607.0938 578.4688,607.1094 578.3125,607.2031 C578.0625,607.3594 577.9063,607.6563 577.9063,607.9375 C577.9063,608.2188 578.0469,608.4688 578.2656,608.6406 C578.4219,608.75 578.6094,608.7813 579.0313,608.7813 L580.75,608.7813 L580.75,615.2969 L579.0313,615.2969 C578.5938,615.2969 578.4688,615.3125 578.3125,615.4219 C578.0625,615.5781 577.9063,615.8594 577.9063,616.1563 C577.9063,616.4063 578.0469,616.6719 578.2656,616.8281 C578.4219,616.9531 578.625,617 579.0313,617 L584.1719,617 C584.9219,617 585.2813,616.7188 585.2813,616.1563 C585.2813,615.875 585.1719,615.625 584.9375,615.4531 C584.7656,615.3281 584.625,615.2969 584.1719,615.2969 L582.4531,615.2969 L582.4531,608.7813 Z " fill="#000000"/><text fill="#000000" font-family="sans-serif" font-size="12" font-style="italic" lengthAdjust="spacingAndGlyphs" textLength="93" x="595.5" y="616.1543">GameController</text><line style="stroke: #A80036; stroke-width: 1.5;" x1="567.5" x2="690.5" y1="628" y2="628"/><line style="stroke: #A80036; stroke-width: 1.5;" x1="567.5" x2="690.5" y1="636" y2="636"/><!--MD5=[a230fefe8292b977220ca10efe5b6e4e]
class KeyListener--><rect fill="#FEFECE" filter="url(#fxo6ienppipn6)" height="48" id="KeyListener" style="stroke: #A80036; stroke-width: 1.5;" width="102" x="679" y="488"/><ellipse cx="694" cy="504" fill="#B4A7E5" rx="11" ry="11" style="stroke: #A80036; stroke-width: 1.0;"/><path d="M694.9531,500.7813 L696.6719,500.7813 C697.0625,500.7813 697.25,500.75 697.375,500.6719 C697.6406,500.5156 697.7813,500.2344 697.7813,499.9375 C697.7813,499.6719 697.6719,499.4063 697.4375,499.2344 C697.2656,499.125 697.125,499.0938 696.6719,499.0938 L691.5313,499.0938 C691.0938,499.0938 690.9688,499.1094 690.8125,499.2031 C690.5625,499.3594 690.4063,499.6563 690.4063,499.9375 C690.4063,500.2188 690.5469,500.4688 690.7656,500.6406 C690.9219,500.75 691.1094,500.7813 691.5313,500.7813 L693.25,500.7813 L693.25,507.2969 L691.5313,507.2969 C691.0938,507.2969 690.9688,507.3125 690.8125,507.4219 C690.5625,507.5781 690.4063,507.8594 690.4063,508.1563 C690.4063,508.4063 690.5469,508.6719 690.7656,508.8281 C690.9219,508.9531 691.125,509 691.5313,509 L696.6719,509 C697.4219,509 697.7813,508.7188 697.7813,508.1563 C697.7813,507.875 697.6719,507.625 697.4375,507.4531 C697.2656,507.3281 697.125,507.2969 696.6719,507.2969 L694.9531,507.2969 L694.9531,500.7813 Z " fill="#000000"/><text fill="#000000" font-family="sans-serif" font-size="12" font-style="italic" lengthAdjust="spacingAndGlyphs" textLength="70" x="708" y="508.1543">KeyListener</text><line style="stroke: #A80036; stroke-width: 1.5;" x1="680" x2="780" y1="520" y2="520"/><line style="stroke: #A80036; stroke-width: 1.5;" x1="680" x2="780" y1="528" y2="528"/><!--MD5=[cb62662ac00a6bbafa71e2e8e2c6aa47]
class MenuController--><rect codeLine="61" fill="#FEFECE" filter="url(#fxo6ienppipn6)" height="48" id="MenuController" style="stroke: #A80036; stroke-width: 1.5;" width="123" x="951.5" y="488"/><ellipse cx="966.5" cy="504" fill="#B4A7E5" rx="11" ry="11" style="stroke: #A80036; stroke-width: 1.0;"/><path d="M967.4531,500.7813 L969.1719,500.7813 C969.5625,500.7813 969.75,500.75 969.875,500.6719 C970.1406,500.5156 970.2813,500.2344 970.2813,499.9375 C970.2813,499.6719 970.1719,499.4063 969.9375,499.2344 C969.7656,499.125 969.625,499.0938 969.1719,499.0938 L964.0313,499.0938 C963.5938,499.0938 963.4688,499.1094 963.3125,499.2031 C963.0625,499.3594 962.9063,499.6563 962.9063,499.9375 C962.9063,500.2188 963.0469,500.4688 963.2656,500.6406 C963.4219,500.75 963.6094,500.7813 964.0313,500.7813 L965.75,500.7813 L965.75,507.2969 L964.0313,507.2969 C963.5938,507.2969 963.4688,507.3125 963.3125,507.4219 C963.0625,507.5781 962.9063,507.8594 962.9063,508.1563 C962.9063,508.4063 963.0469,508.6719 963.2656,508.8281 C963.4219,508.9531 963.625,509 964.0313,509 L969.1719,509 C969.9219,509 970.2813,508.7188 970.2813,508.1563 C970.2813,507.875 970.1719,507.625 969.9375,507.4531 C969.7656,507.3281 969.625,507.2969 969.1719,507.2969 L967.4531,507.2969 L967.4531,500.7813 Z " fill="#000000"/><text fill="#000000" font-family="sans-serif" font-size="12" font-style="italic" lengthAdjust="spacingAndGlyphs" textLength="91" x="980.5" y="508.1543">MenuController</text><line style="stroke: #A80036; stroke-width: 1.5;" x1="952.5" x2="1073.5" y1="520" y2="520"/><line style="stroke: #A80036; stroke-width: 1.5;" x1="952.5" x2="1073.5" y1="528" y2="528"/><!--MD5=[445ca1d7457e22c3c57a49506646ef11]
class PacmanController--><rect codeLine="63" fill="#FEFECE" filter="url(#fxo6ienppipn6)" height="48" id="PacmanController" style="stroke: #A80036; stroke-width: 1.5;" width="136" x="566" y="704"/><ellipse cx="581" cy="720" fill="#ADD1B2" rx="11" ry="11" style="stroke: #A80036; stroke-width: 1.0;"/><path d="M583.3438,715.6719 C582.4063,715.2344 581.8125,715.0938 580.9375,715.0938 C578.3125,715.0938 576.3125,717.1719 576.3125,719.8906 L576.3125,721.0156 C576.3125,723.5938 578.4219,725.4844 581.3125,725.4844 C582.5313,725.4844 583.6875,725.1875 584.4375,724.6406 C585.0156,724.2344 585.3438,723.7813 585.3438,723.3906 C585.3438,722.9375 584.9531,722.5469 584.4844,722.5469 C584.2656,722.5469 584.0625,722.625 583.875,722.8125 C583.4219,723.2969 583.4219,723.2969 583.2344,723.3906 C582.8125,723.6563 582.125,723.7813 581.3594,723.7813 C579.3125,723.7813 578.0156,722.6875 578.0156,720.9844 L578.0156,719.8906 C578.0156,718.1094 579.2656,716.7969 581,716.7969 C581.5781,716.7969 582.1875,716.9531 582.6563,717.2031 C583.1406,717.4844 583.3125,717.7031 583.4063,718.1094 C583.4688,718.5156 583.5,718.6406 583.6406,718.7656 C583.7813,718.9063 584.0156,719.0156 584.2344,719.0156 C584.5,719.0156 584.7656,718.875 584.9375,718.6563 C585.0469,718.5 585.0781,718.3125 585.0781,717.8906 L585.0781,716.4688 C585.0781,716.0313 585.0625,715.9063 584.9688,715.75 C584.8125,715.4844 584.5313,715.3438 584.2344,715.3438 C583.9375,715.3438 583.7344,715.4375 583.5156,715.75 L583.3438,715.6719 Z " fill="#000000"/><text fill="#000000" font-family="sans-serif" font-size="12" lengthAdjust="spacingAndGlyphs" textLength="104" x="595" y="724.1543">PacmanController</text><line style="stroke: #A80036; stroke-width: 1.5;" x1="567" x2="701" y1="736" y2="736"/><line style="stroke: #A80036; stroke-width: 1.5;" x1="567" x2="701" y1="744" y2="744"/><!--MD5=[b5f64f775e2f5d481192b90a919416a6]
class MenuPrincipalController--><rect codeLine="65" fill="#FEFECE" filter="url(#fxo6ienppipn6)" height="48" id="MenuPrincipalController" style="stroke: #A80036; stroke-width: 1.5;" width="172" x="727" y="596"/><ellipse cx="742" cy="612" fill="#ADD1B2" rx="11" ry="11" style="stroke: #A80036; stroke-width: 1.0;"/><path d="M744.3438,607.6719 C743.4063,607.2344 742.8125,607.0938 741.9375,607.0938 C739.3125,607.0938 737.3125,609.1719 737.3125,611.8906 L737.3125,613.0156 C737.3125,615.5938 739.4219,617.4844 742.3125,617.4844 C743.5313,617.4844 744.6875,617.1875 745.4375,616.6406 C746.0156,616.2344 746.3438,615.7813 746.3438,615.3906 C746.3438,614.9375 745.9531,614.5469 745.4844,614.5469 C745.2656,614.5469 745.0625,614.625 744.875,614.8125 C744.4219,615.2969 744.4219,615.2969 744.2344,615.3906 C743.8125,615.6563 743.125,615.7813 742.3594,615.7813 C740.3125,615.7813 739.0156,614.6875 739.0156,612.9844 L739.0156,611.8906 C739.0156,610.1094 740.2656,608.7969 742,608.7969 C742.5781,608.7969 743.1875,608.9531 743.6563,609.2031 C744.1406,609.4844 744.3125,609.7031 744.4063,610.1094 C744.4688,610.5156 744.5,610.6406 744.6406,610.7656 C744.7813,610.9063 745.0156,611.0156 745.2344,611.0156 C745.5,611.0156 745.7656,610.875 745.9375,610.6563 C746.0469,610.5 746.0781,610.3125 746.0781,609.8906 L746.0781,608.4688 C746.0781,608.0313 746.0625,607.9063 745.9688,607.75 C745.8125,607.4844 745.5313,607.3438 745.2344,607.3438 C744.9375,607.3438 744.7344,607.4375 744.5156,607.75 L744.3438,607.6719 Z " fill="#000000"/><text fill="#000000" font-family="sans-serif" font-size="12" lengthAdjust="spacingAndGlyphs" textLength="140" x="756" y="616.1543">MenuPrincipalController</text><line style="stroke: #A80036; stroke-width: 1.5;" x1="728" x2="898" y1="628" y2="628"/><line style="stroke: #A80036; stroke-width: 1.5;" x1="728" x2="898" y1="636" y2="636"/><!--MD5=[f91c5291f5a863d6403709060d1e298f]
class MenuPauseController--><rect codeLine="67" fill="#FEFECE" filter="url(#fxo6ienppipn6)" height="48" id="MenuPauseController" style="stroke: #A80036; stroke-width: 1.5;" width="158" x="934" y="596"/><ellipse cx="949" cy="612" fill="#ADD1B2" rx="11" ry="11" style="stroke: #A80036; stroke-width: 1.0;"/><path d="M951.3438,607.6719 C950.4063,607.2344 949.8125,607.0938 948.9375,607.0938 C946.3125,607.0938 944.3125,609.1719 944.3125,611.8906 L944.3125,613.0156 C944.3125,615.5938 946.4219,617.4844 949.3125,617.4844 C950.5313,617.4844 951.6875,617.1875 952.4375,616.6406 C953.0156,616.2344 953.3438,615.7813 953.3438,615.3906 C953.3438,614.9375 952.9531,614.5469 952.4844,614.5469 C952.2656,614.5469 952.0625,614.625 951.875,614.8125 C951.4219,615.2969 951.4219,615.2969 951.2344,615.3906 C950.8125,615.6563 950.125,615.7813 949.3594,615.7813 C947.3125,615.7813 946.0156,614.6875 946.0156,612.9844 L946.0156,611.8906 C946.0156,610.1094 947.2656,608.7969 949,608.7969 C949.5781,608.7969 950.1875,608.9531 950.6563,609.2031 C951.1406,609.4844 951.3125,609.7031 951.4063,610.1094 C951.4688,610.5156 951.5,610.6406 951.6406,610.7656 C951.7813,610.9063 952.0156,611.0156 952.2344,611.0156 C952.5,611.0156 952.7656,610.875 952.9375,610.6563 C953.0469,610.5 953.0781,610.3125 953.0781,609.8906 L953.0781,608.4688 C953.0781,608.0313 953.0625,607.9063 952.9688,607.75 C952.8125,607.4844 952.5313,607.3438 952.2344,607.3438 C951.9375,607.3438 951.7344,607.4375 951.5156,607.75 L951.3438,607.6719 Z " fill="#000000"/><text fill="#000000" font-family="sans-serif" font-size="12" lengthAdjust="spacingAndGlyphs" textLength="126" x="963" y="616.1543">MenuPauseController</text><line style="stroke: #A80036; stroke-width: 1.5;" x1="935" x2="1091" y1="628" y2="628"/><line style="stroke: #A80036; stroke-width: 1.5;" x1="935" x2="1091" y1="636" y2="636"/><!--MD5=[a64a835c3d62471a77f615251fdde58a]
class Position--><rect codeLine="69" fill="#FEFECE" filter="url(#fxo6ienppipn6)" height="48" id="Position" style="stroke: #A80036; stroke-width: 1.5;" width="78" x="566" y="488"/><ellipse cx="581" cy="504" fill="#ADD1B2" rx="11" ry="11" style="stroke: #A80036; stroke-width: 1.0;"/><path d="M583.3438,499.6719 C582.4063,499.2344 581.8125,499.0938 580.9375,499.0938 C578.3125,499.0938 576.3125,501.1719 576.3125,503.8906 L576.3125,505.0156 C576.3125,507.5938 578.4219,509.4844 581.3125,509.4844 C582.5313,509.4844 583.6875,509.1875 584.4375,508.6406 C585.0156,508.2344 585.3438,507.7813 585.3438,507.3906 C585.3438,506.9375 584.9531,506.5469 584.4844,506.5469 C584.2656,506.5469 584.0625,506.625 583.875,506.8125 C583.4219,507.2969 583.4219,507.2969 583.2344,507.3906 C582.8125,507.6563 582.125,507.7813 581.3594,507.7813 C579.3125,507.7813 578.0156,506.6875 578.0156,504.9844 L578.0156,503.8906 C578.0156,502.1094 579.2656,500.7969 581,500.7969 C581.5781,500.7969 582.1875,500.9531 582.6563,501.2031 C583.1406,501.4844 583.3125,501.7031 583.4063,502.1094 C583.4688,502.5156 583.5,502.6406 583.6406,502.7656 C583.7813,502.9063 584.0156,503.0156 584.2344,503.0156 C584.5,503.0156 584.7656,502.875 584.9375,502.6563 C585.0469,502.5 585.0781,502.3125 585.0781,501.8906 L585.0781,500.4688 C585.0781,500.0313 585.0625,499.9063 584.9688,499.75 C584.8125,499.4844 584.5313,499.3438 584.2344,499.3438 C583.9375,499.3438 583.7344,499.4375 583.5156,499.75 L583.3438,499.6719 Z " fill="#000000"/><text fill="#000000" font-family="sans-serif" font-size="12" lengthAdjust="spacingAndGlyphs" textLength="46" x="595" y="508.1543">Position</text><line style="stroke: #A80036; stroke-width: 1.5;" x1="567" x2="643" y1="520" y2="520"/><line style="stroke: #A80036; stroke-width: 1.5;" x1="567" x2="643" y1="528" y2="528"/><!--MD5=[3240d3ec818dfd61089f4e5df95ea03b]
class PropertyChangeSupport--><rect fill="#FEFECE" filter="url(#fxo6ienppipn6)" height="48" id="PropertyChangeSupport" style="stroke: #A80036; stroke-width: 1.5;" width="176" x="7" y="380"/><ellipse cx="22" cy="396" fill="#ADD1B2" rx="11" ry="11" style="stroke: #A80036; stroke-width: 1.0;"/><path d="M24.3438,391.6719 C23.4063,391.2344 22.8125,391.0938 21.9375,391.0938 C19.3125,391.0938 17.3125,393.1719 17.3125,395.8906 L17.3125,397.0156 C17.3125,399.5938 19.4219,401.4844 22.3125,401.4844 C23.5313,401.4844 24.6875,401.1875 25.4375,400.6406 C26.0156,400.2344 26.3438,399.7813 26.3438,399.3906 C26.3438,398.9375 25.9531,398.5469 25.4844,398.5469 C25.2656,398.5469 25.0625,398.625 24.875,398.8125 C24.4219,399.2969 24.4219,399.2969 24.2344,399.3906 C23.8125,399.6563 23.125,399.7813 22.3594,399.7813 C20.3125,399.7813 19.0156,398.6875 19.0156,396.9844 L19.0156,395.8906 C19.0156,394.1094 20.2656,392.7969 22,392.7969 C22.5781,392.7969 23.1875,392.9531 23.6563,393.2031 C24.1406,393.4844 24.3125,393.7031 24.4063,394.1094 C24.4688,394.5156 24.5,394.6406 24.6406,394.7656 C24.7813,394.9063 25.0156,395.0156 25.2344,395.0156 C25.5,395.0156 25.7656,394.875 25.9375,394.6563 C26.0469,394.5 26.0781,394.3125 26.0781,393.8906 L26.0781,392.4688 C26.0781,392.0313 26.0625,391.9063 25.9688,391.75 C25.8125,391.4844 25.5313,391.3438 25.2344,391.3438 C24.9375,391.3438 24.7344,391.4375 24.5156,391.75 L24.3438,391.6719 Z " fill="#000000"/><text fill="#000000" font-family="sans-serif" font-size="12" lengthAdjust="spacingAndGlyphs" textLength="144" x="36" y="400.1543">PropertyChangeSupport</text><line style="stroke: #A80036; stroke-width: 1.5;" x1="8" x2="182" y1="412" y2="412"/><line style="stroke: #A80036; stroke-width: 1.5;" x1="8" x2="182" y1="420" y2="420"/><!--MD5=[0e5d5e62a567c710f1f950119a75c4f5]
reverse link Piece to PieceAttaque--><path d="M333.171,552.178 C322.412,566.8 310.542,582.929 301.161,595.678 " fill="none" id="Piece-backto-PieceAttaque" style="stroke: #A80036; stroke-width: 1.0;"/><polygon fill="none" points="327.583,547.96,345.075,536,338.86,556.258,327.583,547.96" style="stroke: #A80036; stroke-width: 1.0;"/><!--MD5=[97ed113f9b8f4498e901b285bb32dd23]
reverse link Piece to PieceScore--><path d="M385.755,553.613 C394.081,567.848 403.145,583.345 410.359,595.678 " fill="none" id="Piece-backto-PieceScore" style="stroke: #A80036; stroke-width: 1.0;"/><polygon fill="none" points="379.508,556.798,375.453,536,391.593,549.73,379.508,556.798" style="stroke: #A80036; stroke-width: 1.0;"/><!--MD5=[23c2e1d93bec45b594c0e59eee096c03]
reverse link Personnage to Pacman--><path d="M364.4,427.916 C338.907,434.685 329.876,433.73 313,445 C296.254,456.183 281.696,473.742 271.623,487.938 " fill="none" id="Personnage-backto-Pacman" style="stroke: #A80036; stroke-width: 1.0;"/><polygon fill="none" points="362.611,421.145,383.777,422.146,366.606,434.563,362.611,421.145" style="stroke: #A80036; stroke-width: 1.0;"/><!--MD5=[6bed81755f3c853b7b67737437729881]
reverse link Game to PacmanGame--><path d="M394.631,102.573 C377.76,117.859 358.655,135.167 343.742,148.678 " fill="none" id="Game-backto-PacmanGame" style="stroke: #A80036; stroke-width: 1.0; stroke-dasharray: 7.0,7.0;"/><polygon fill="none" points="390.091,97.241,409.613,89,399.491,107.616,390.091,97.241" style="stroke: #A80036; stroke-width: 1.0;"/><!--MD5=[8765b3e7644a082e74ce289568725641]
reverse link RuntimeException to PlateauException--><path d="M1118,109.024 C1118,122.579 1118,137.038 1118,148.678 " fill="none" id="RuntimeException-backto-PlateauException" style="stroke: #A80036; stroke-width: 1.0;"/><polygon fill="none" points="1111,109,1118,89,1125,109,1111,109" style="stroke: #A80036; stroke-width: 1.0;"/><!--MD5=[4afabb6f3c46c6ba44f529e96217200f]
reverse link JPanel to DrawingPanel--><path d="M1614.07,448.024 C1611.26,461.579 1608.26,476.038 1605.84,487.678 " fill="none" id="JPanel-backto-DrawingPanel" style="stroke: #A80036; stroke-width: 1.0;"/><polygon fill="none" points="1607.31,446.161,1618.23,428,1621.02,449.006,1607.31,446.161" style="stroke: #A80036; stroke-width: 1.0;"/><!--MD5=[b1c9693fabb413ec3993054968e77f59]
reverse link GamePainter to PacmanPainter--><path d="M1568.18,659.227 C1555.42,674.097 1541.2,690.652 1530.02,703.678 " fill="none" id="GamePainter-backto-PacmanPainter" style="stroke: #A80036; stroke-width: 1.0; stroke-dasharray: 7.0,7.0;"/><polygon fill="none" points="1562.92,654.616,1581.25,644,1573.54,663.735,1562.92,654.616" style="stroke: #A80036; stroke-width: 1.0;"/><!--MD5=[df39770a1a8c99d6be1cd48158bae1ce]
reverse link PropertyChangeListener to PacmanPainter--><path d="M1454.76,659.702 C1466.87,674.448 1480.28,690.791 1490.86,703.678 " fill="none" id="PropertyChangeListener-backto-PacmanPainter" style="stroke: #A80036; stroke-width: 1.0; stroke-dasharray: 7.0,7.0;"/><polygon fill="none" points="1449.16,663.901,1441.88,644,1459.98,655.019,1449.16,663.901" style="stroke: #A80036; stroke-width: 1.0;"/><!--MD5=[4fa429dadb8e014257c1fd7703a41552]
reverse link MenuUi to MenuPrincipalPainter--><path d="M1300.32,441.573 C1283.74,456.859 1264.96,474.167 1250.3,487.678 " fill="none" id="MenuUi-backto-MenuPrincipalPainter" style="stroke: #A80036; stroke-width: 1.0; stroke-dasharray: 7.0,7.0;"/><polygon fill="none" points="1295.6,436.408,1315.05,428,1305.09,446.702,1295.6,436.408" style="stroke: #A80036; stroke-width: 1.0;"/><!--MD5=[da86c9708c9360729108b2325316bb1d]
reverse link ActionListener to MenuPrincipalPainter--><path d="M1214.31,448.024 C1216.61,461.579 1219.06,476.038 1221.04,487.678 " fill="none" id="ActionListener-backto-MenuPrincipalPainter" style="stroke: #A80036; stroke-width: 1.0; stroke-dasharray: 7.0,7.0;"/><polygon fill="none" points="1207.35,448.89,1210.91,428,1221.16,446.546,1207.35,448.89" style="stroke: #A80036; stroke-width: 1.0;"/><!--MD5=[9aac2ffa6a82d8819286e957fd040555]
reverse link MenuUi to MenuPausePainter--><path d="M1364.99,445.134 C1373.93,459.499 1383.71,475.207 1391.48,487.678 " fill="none" id="MenuUi-backto-MenuPausePainter" style="stroke: #A80036; stroke-width: 1.0; stroke-dasharray: 7.0,7.0;"/><polygon fill="none" points="1358.95,448.678,1354.32,428,1370.83,441.278,1358.95,448.678" style="stroke: #A80036; stroke-width: 1.0;"/><!--MD5=[01178a6e2e6ed1ea2bca65d458795efa]
reverse link ActionListener to MenuPausePainter--><path d="M1284.86,429.304 C1296.56,433.951 1308.28,439.202 1319,445 C1341.01,456.91 1363.45,474.085 1380.03,487.929 " fill="none" id="ActionListener-backto-MenuPausePainter" style="stroke: #A80036; stroke-width: 1.0; stroke-dasharray: 7.0,7.0;"/><polygon fill="none" points="1282.31,435.825,1266.01,422.286,1287.2,422.705,1282.31,435.825" style="stroke: #A80036; stroke-width: 1.0;"/><!--MD5=[02b9b48f63d6938771d416b8e06dd01d]
reverse link KeyListener to GameController--><path d="M694.028,550.753 C679.744,565.744 663.765,582.514 651.222,595.678 " fill="none" id="KeyListener-backto-GameController" style="stroke: #A80036; stroke-width: 1.0;"/><polygon fill="none" points="689.22,545.651,708.085,536,699.356,555.309,689.22,545.651" style="stroke: #A80036; stroke-width: 1.0;"/><!--MD5=[64e787f999a1edf0f06c7e5d69ad8504]
reverse link GameController to PacmanController--><path d="M631.029,664.024 C631.669,677.579 632.351,692.038 632.9,703.678 " fill="none" id="GameController-backto-PacmanController" style="stroke: #A80036; stroke-width: 1.0; stroke-dasharray: 7.0,7.0;"/><polygon fill="none" points="624.035,664.308,630.085,644,638.02,663.648,624.035,664.308" style="stroke: #A80036; stroke-width: 1.0;"/><!--MD5=[04dbd189aeae9cb67fda314c0e2b3909]
reverse link MenuController to MenuPrincipalController--><path d="M951.81,545.431 C921.066,561.725 884.528,581.09 856.657,595.862 " fill="none" id="MenuController-backto-MenuPrincipalController" style="stroke: #A80036; stroke-width: 1.0; stroke-dasharray: 7.0,7.0;"/><polygon fill="none" points="948.653,539.181,969.603,536,955.21,551.551,948.653,539.181" style="stroke: #A80036; stroke-width: 1.0;"/><!--MD5=[d81c57e9caa7c22c69d655b0f3efc90b]
reverse link MenuController to MenuPauseController--><path d="M1013,556.024 C1013,569.579 1013,584.038 1013,595.678 " fill="none" id="MenuController-backto-MenuPauseController" style="stroke: #A80036; stroke-width: 1.0; stroke-dasharray: 7.0,7.0;"/><polygon fill="none" points="1006,556,1013,536,1020,556,1006,556" style="stroke: #A80036; stroke-width: 1.0;"/><!--MD5=[43cc9f7c242d82bc19b8665c21832521]
link PacmanGame to Monde--><path codeLine="74" d="M314.953,197.044 C312.124,218.437 307.933,250.132 305.09,271.63 " fill="none" id="PacmanGame-Monde" style="stroke: #A80036; stroke-width: 1.0;"/><text fill="#000000" font-family="sans-serif" font-size="13" lengthAdjust="spacingAndGlyphs" textLength="8" x="296.8682" y="260.9448">1</text><!--MD5=[88e01de693689057d3fd2cbe2e22e16c]
link Personnage to Cmd--><path codeLine="75" d="M465.142,379.678 C488.067,361.941 519.451,337.658 542.273,320 " fill="none" id="Personnage-Cmd" style="stroke: #A80036; stroke-width: 1.0;"/><text fill="#000000" font-family="sans-serif" font-size="13" lengthAdjust="spacingAndGlyphs" textLength="8" x="526.4736" y="320.8979">1</text><!--MD5=[94590f98c9d8026f03a25ab38f2bc172]
link Personnage to Position--><path codeLine="76" d="M474.097,428.059 C483.284,433.555 493.014,439.44 502,445 C524.576,458.967 549.662,475.03 569.425,487.812 " fill="none" id="Personnage-Position" style="stroke: #A80036; stroke-width: 1.0;"/><text fill="#000000" font-family="sans-serif" font-size="13" lengthAdjust="spacingAndGlyphs" textLength="8" x="551.2839" y="476.7759">1</text><!--MD5=[9bc13f2d03cc562d73ffb001e2cf52fb]
link Monde to Pacman--><path codeLine="77" d="M265.18,311.139 C254.12,317.32 243.27,325.78 237,337 C210.004,385.31 231.502,452.875 246.186,487.899 " fill="none" id="Monde-Pacman" style="stroke: #A80036; stroke-width: 1.0;"/><text fill="#000000" font-family="sans-serif" font-size="13" lengthAdjust="spacingAndGlyphs" textLength="8" x="234.3899" y="476.8852">1</text><!--MD5=[482e775f0060d4991b46b7c0f1244495]
link Monde to Labyrinthe--><path codeLine="78" d="M302,320 C302,337.658 302,361.941 302,379.678 " fill="none" id="Monde-Labyrinthe" style="stroke: #A80036; stroke-width: 1.0;"/><text fill="#000000" font-family="sans-serif" font-size="13" lengthAdjust="spacingAndGlyphs" textLength="8" x="293.025" y="369.0045">1</text><!--MD5=[c1f88621c41bb9e588dafba76fc6a0fa]
link Monde to Personnage--><path codeLine="79" d="M338.752,318.177 C347.903,323.931 357.518,330.405 366,337 C382.751,350.024 400.001,366.524 413.063,379.768 " fill="none" id="Monde-Personnage" style="stroke: #A80036; stroke-width: 1.0;"/><text fill="#000000" font-family="sans-serif" font-size="13" lengthAdjust="spacingAndGlyphs" textLength="7" x="399.8627" y="369.1164">*</text><!--MD5=[d2be1b9de5a92493c4627687a5493822]
link Monde to PropertyChangeSupport--><path codeLine="80" d="M265.233,309.97 C246.04,317.172 222.374,326.738 202,337 C176.854,349.666 149.881,366.326 129.307,379.738 " fill="none" id="Monde-PropertyChangeSupport" style="stroke: #A80036; stroke-width: 1.0;"/><text fill="#000000" font-family="sans-serif" font-size="13" lengthAdjust="spacingAndGlyphs" textLength="8" x="128.6943" y="369.0791">1</text><!--MD5=[467e73af50108c572e2516ca96bcfd53]
link Labyrinthe to Position--><path codeLine="81" d="M349.178,423.268 C354.793,425.05 360.488,426.682 366,428 C425.245,442.165 444.718,424.278 502,445 C529.361,454.898 556.935,473.104 576.659,487.891 " fill="none" id="Labyrinthe-Position" style="stroke: #A80036; stroke-width: 1.0;"/><text fill="#000000" font-family="sans-serif" font-size="13" lengthAdjust="spacingAndGlyphs" textLength="8" x="570.4216" y="476.8751">1</text><!--MD5=[3a8c929be66cf2dcd8cad4023ea2e992]
link Labyrinthe to Piece--><path codeLine="82" d="M315.019,428 C325.014,445.658 338.759,469.941 348.799,487.678 " fill="none" id="Labyrinthe-Piece" style="stroke: #A80036; stroke-width: 1.0;"/><text fill="#000000" font-family="sans-serif" font-size="13" lengthAdjust="spacingAndGlyphs" textLength="7" x="337.7281" y="477.0045">*</text><!--MD5=[e4c0d6529e140f9a1a29ad7e4758cf33]
link FileReader to FileReader--><path codeLine="83" d="M343.18,44.85 C362.153,43.834 378,50.551 378,65 C378,79.449 362.153,86.166 343.18,85.15 " fill="none" id="FileReader-FileReader" style="stroke: #A80036; stroke-width: 1.0;"/><text fill="#000000" font-family="sans-serif" font-size="13" lengthAdjust="spacingAndGlyphs" textLength="8" x="350.8439" y="84.0846">1</text><!--MD5=[db0dd88c9dc4898692f1cf90577bd762]
link MenuPrincipalPainter to MenuPrincipalController--><path codeLine="86" d="M1148.27,534.852 C1146.84,535.239 1145.41,535.623 1144,536 C1061.15,558.144 966.169,581.782 899.262,598.145 " fill="none" id="MenuPrincipalPainter-MenuPrincipalController" style="stroke: #A80036; stroke-width: 1.0;"/><text fill="#000000" font-family="sans-serif" font-size="13" lengthAdjust="spacingAndGlyphs" textLength="8" x="907.0189" y="592.6949">1</text><!--MD5=[c00abdb8f88a41f0b52418f7d58bb4e6]
link MenuPausePainter to MenuPauseController--><path codeLine="87" d="M1336.19,531.829 C1267.82,550.271 1163.76,578.337 1092.29,597.613 " fill="none" id="MenuPausePainter-MenuPauseController" style="stroke: #A80036; stroke-width: 1.0;"/><text fill="#000000" font-family="sans-serif" font-size="13" lengthAdjust="spacingAndGlyphs" textLength="8" x="1099.9683" y="591.9308">1</text><!--MD5=[fead969f6af7d8574470731c6d1452db]
link GraphicalInterface to DrawingPanel--><path codeLine="89" d="M1509.39,428 C1528.88,445.658 1555.68,469.941 1575.26,487.678 " fill="none" id="GraphicalInterface-DrawingPanel" style="stroke: #A80036; stroke-width: 1.0;"/><text fill="#000000" font-family="sans-serif" font-size="13" lengthAdjust="spacingAndGlyphs" textLength="8" x="1560.0109" y="477.0045">1</text><!--MD5=[a6b78f167cceb8a755105e5e50477a11]
link GameEngineGraphical to Game--><path codeLine="90" d="M1145.37,271.917 C975.93,222.801 585.613,109.659 468.693,75.767 " fill="none" id="GameEngineGraphical-Game" style="stroke: #A80036; stroke-width: 1.0;"/><text fill="#000000" font-family="sans-serif" font-size="13" lengthAdjust="spacingAndGlyphs" textLength="8" x="476.4672" y="73.5214">1</text><!--MD5=[96f5d1ff4124b566d5d7a48176a08b16]
link GameEngineGraphical to GamePainter--><path codeLine="91" d="M1306.53,298.455 C1429.21,301.496 1649.63,310.606 1674,337 C1734,401.979 1706.49,453.352 1675,536 C1665.99,559.632 1646.83,580.812 1630.26,595.862 " fill="none" id="GameEngineGraphical-GamePainter" style="stroke: #A80036; stroke-width: 1.0;"/><text fill="#000000" font-family="sans-serif" font-size="13" lengthAdjust="spacingAndGlyphs" textLength="8" x="1628.7329" y="584.8387">1</text><!--MD5=[9feef538a68573ecfa0f053b9ee875e4]
link GameEngineGraphical to GameController--><path codeLine="92" d="M1151.56,320.045 C1144.18,324.718 1137.43,330.311 1132,337 C1075.17,407.063 1157.15,473.594 1092,536 C1029.79,595.594 793.116,577.395 709,596 C703.356,597.248 697.522,598.668 691.696,600.175 " fill="none" id="GameEngineGraphical-GameController" style="stroke: #A80036; stroke-width: 1.0;"/><text fill="#000000" font-family="sans-serif" font-size="13" lengthAdjust="spacingAndGlyphs" textLength="8" x="699.4077" y="594.0901">1</text><!--MD5=[9be206aaebfe095febcdb733745d3244]
link GameEngineGraphical to GraphicalInterface--><path codeLine="93" d="M1306.9,309.003 C1335.91,315.093 1368.23,324.042 1396,337 C1419.19,347.822 1442.21,365.398 1458.89,379.692 " fill="none" id="GameEngineGraphical-GraphicalInterface" style="stroke: #A80036; stroke-width: 1.0;"/><text fill="#000000" font-family="sans-serif" font-size="13" lengthAdjust="spacingAndGlyphs" textLength="8" x="1443.7944" y="369.0219">1</text><!--MD5=[70182f3f2ea81c7c6fa9fad0d5cb2181]
link GameEngineGraphical to MenuController--><path codeLine="94" d="M1143.5,313.509 C1128.57,319.187 1113.96,326.799 1102,337 C1054.11,377.846 1028.89,450.857 1018.64,487.973 " fill="none" id="GameEngineGraphical-MenuController" style="stroke: #A80036; stroke-width: 1.0;"/><text fill="#000000" font-family="sans-serif" font-size="13" lengthAdjust="spacingAndGlyphs" textLength="8" x="1011.0603" y="476.9781">2</text><!--MD5=[ab5cb5a7f93a04ab2b32847ce446ef5a]
link GameEngineGraphical to MenuUi--><path codeLine="95" d="M1261.66,320.174 C1268.99,325.383 1276.44,331.12 1283,337 C1297.43,349.939 1311.68,366.439 1322.32,379.704 " fill="none" id="GameEngineGraphical-MenuUi" style="stroke: #A80036; stroke-width: 1.0;"/><text fill="#000000" font-family="sans-serif" font-size="13" lengthAdjust="spacingAndGlyphs" textLength="8" x="1309.0355" y="369.0368">2</text><!--MD5=[dd428f42614802df7105aec30a17bcaa]
link DrawingPanel to GamePainter--><path codeLine="96" d="M1601,536 C1601,553.658 1601,577.941 1601,595.678 " fill="none" id="DrawingPanel-GamePainter" style="stroke: #A80036; stroke-width: 1.0;"/><text fill="#000000" font-family="sans-serif" font-size="13" lengthAdjust="spacingAndGlyphs" textLength="8" x="1592.025" y="585.0045">1</text><!--MD5=[60f1dc79b4e0b1232b4cbab86dfba0ce]
@startuml
package model{
    
    interface Personnage {}
    
    interface Piece {}
    
    class PieceAttaque extends Piece {}
    
    class PieceScore extends Piece {}
    
    class Pacman extends Personnage {}
    
    class PacmanGame implements Game {}
    
    class Labyrinthe {}
    
    class FileReader {}
    
    class Monde {}
    
    
}

package exception {

    class PlateauException extends RuntimeException {}

}


package engine{

    enum Cmd {}
    
    interface Game {}
    
    class GameEngineGraphical {}
    
package views{

    class DrawingPanel extends JPanel {}
    
    class GraphicalInterface  {}
    
    interface GamePainter {}
    
    interface MenuUi {}
    
    class PacmanPainter implements GamePainter, PropertyChangeListener {}

    class MenuPrincipalPainter implements MenuUi, ActionListener {}
    
    class MenuPausePainter implements MenuUi, ActionListener {}
    
}

package controllers{

    interface GameController extends KeyListener {}
    
    interface MenuController {}
    
    class PacmanController implements GameController {}

    class MenuPrincipalController implements MenuController {}
    
    class MenuPauseController implements MenuController {}
    
    class Position {}
    
}
}

PacmanGame - -"1" Monde
Personnage - -"1" Cmd
Personnage - -"1" Position
Monde - -"1" Pacman
Monde - -"1" Labyrinthe
Monde - -"*" Personnage
Monde - -"1" PropertyChangeSupport
Labyrinthe - -"1" Position
Labyrinthe - -"*" Piece
FileReader - -"1" FileReader


MenuPrincipalPainter - -"1" MenuPrincipalController
MenuPausePainter - -"1" MenuPauseController

GraphicalInterface - -"1" DrawingPanel
GameEngineGraphical - -"1" Game
GameEngineGraphical - -"1" GamePainter
GameEngineGraphical - -"1" GameController
GameEngineGraphical - -"1" GraphicalInterface
GameEngineGraphical - -"2" MenuController
GameEngineGraphical - -"2" MenuUi
DrawingPanel - -"1" GamePainter
@enduml

PlantUML version 1.2020.20beta11(Unknown compile time)
(GPL source distribution)
Java Runtime: Java(TM) SE Runtime Environment
JVM: Java HotSpot(TM) 64-Bit Server VM
Default Encoding: UTF-8
Language: en
Country: US
--></g></svg>