<?xml version="1.0" encoding="UTF-8" standalone="no"?><svg xmlns="http://www.w3.org/2000/svg" xmlns:xlink="http://www.w3.org/1999/xlink" contentScriptType="application/ecmascript" contentStyleType="text/css" height="701px" preserveAspectRatio="none" style="width:1596px;height:701px;" version="1.1" viewBox="0 0 1596 701" width="1596px" zoomAndPan="magnify"><defs><filter height="300%" id="f18br7kqrcp5ya" width="300%" x="-1" y="-1"><feGaussianBlur result="blurOut" stdDeviation="2.0"/><feColorMatrix in="blurOut" result="blurOut2" type="matrix" values="0 0 0 0 0 0 0 0 0 0 0 0 0 0 0 0 0 0 .4 0"/><feOffset dx="4.0" dy="4.0" in="blurOut2" result="blurOut3"/><feBlend in="SourceGraphic" in2="blurOut3" mode="normal"/></filter></defs><g><!--MD5=[5d4cd377749310b66bf14896f5cd8d9b]
cluster model--><polygon fill="#FFFFFF" filter="url(#f18br7kqrcp5ya)" points="1112,157,1167,157,1174,179.2969,1579,179.2969,1579,694,1112,694,1112,157" style="stroke: #000000; stroke-width: 1.5;"/><line style="stroke: #000000; stroke-width: 1.5;" x1="1112" x2="1174" y1="179.2969" y2="179.2969"/><text fill="#000000" font-family="sans-serif" font-size="14" font-weight="bold" lengthAdjust="spacingAndGlyphs" textLength="49" x="1116" y="171.9951">model</text><!--MD5=[e471781225fc0f8fbd677bbc1a50d018]
cluster engine--><polygon fill="#FFFFFF" filter="url(#f18br7kqrcp5ya)" points="16,6,75,6,82,28.2969,1088,28.2969,1088,607,16,607,16,6" style="stroke: #000000; stroke-width: 1.5;"/><line style="stroke: #000000; stroke-width: 1.5;" x1="16" x2="82" y1="28.2969" y2="28.2969"/><text fill="#000000" font-family="sans-serif" font-size="14" font-weight="bold" lengthAdjust="spacingAndGlyphs" textLength="53" x="20" y="20.9951">engine</text><!--MD5=[e2a75efa8a0f57c2afae8bf75386f79c]
cluster views--><polygon fill="#FFFFFF" filter="url(#f18br7kqrcp5ya)" points="40,157,91,157,98,179.2969,472,179.2969,472,583,40,583,40,157" style="stroke: #000000; stroke-width: 1.5;"/><line style="stroke: #000000; stroke-width: 1.5;" x1="40" x2="98" y1="179.2969" y2="179.2969"/><text fill="#000000" font-family="sans-serif" font-size="14" font-weight="bold" lengthAdjust="spacingAndGlyphs" textLength="45" x="44" y="171.9951">views</text><!--MD5=[f4e70ef68289585296b9045165e58692]
cluster controllers--><polygon fill="#FFFFFF" filter="url(#f18br7kqrcp5ya)" points="496,49,591,49,598,71.2969,1064,71.2969,1064,364,496,364,496,49" style="stroke: #000000; stroke-width: 1.5;"/><line style="stroke: #000000; stroke-width: 1.5;" x1="496" x2="598" y1="71.2969" y2="71.2969"/><text fill="#000000" font-family="sans-serif" font-size="14" font-weight="bold" lengthAdjust="spacingAndGlyphs" textLength="89" x="500" y="63.9951">controllers</text><!--MD5=[7f9f6f2d8e92938121262dc4c5d80163]
class PacmanGame--><rect codeLine="3" fill="#FEFECE" filter="url(#f18br7kqrcp5ya)" height="48" id="PacmanGame" style="stroke: #A80036; stroke-width: 1.5;" width="112" x="1204" y="300"/><ellipse cx="1219" cy="316" fill="#ADD1B2" rx="11" ry="11" style="stroke: #A80036; stroke-width: 1.0;"/><path d="M1221.3438,311.6719 C1220.4063,311.2344 1219.8125,311.0938 1218.9375,311.0938 C1216.3125,311.0938 1214.3125,313.1719 1214.3125,315.8906 L1214.3125,317.0156 C1214.3125,319.5938 1216.4219,321.4844 1219.3125,321.4844 C1220.5313,321.4844 1221.6875,321.1875 1222.4375,320.6406 C1223.0156,320.2344 1223.3438,319.7813 1223.3438,319.3906 C1223.3438,318.9375 1222.9531,318.5469 1222.4844,318.5469 C1222.2656,318.5469 1222.0625,318.625 1221.875,318.8125 C1221.4219,319.2969 1221.4219,319.2969 1221.2344,319.3906 C1220.8125,319.6563 1220.125,319.7813 1219.3594,319.7813 C1217.3125,319.7813 1216.0156,318.6875 1216.0156,316.9844 L1216.0156,315.8906 C1216.0156,314.1094 1217.2656,312.7969 1219,312.7969 C1219.5781,312.7969 1220.1875,312.9531 1220.6563,313.2031 C1221.1406,313.4844 1221.3125,313.7031 1221.4063,314.1094 C1221.4688,314.5156 1221.5,314.6406 1221.6406,314.7656 C1221.7813,314.9063 1222.0156,315.0156 1222.2344,315.0156 C1222.5,315.0156 1222.7656,314.875 1222.9375,314.6563 C1223.0469,314.5 1223.0781,314.3125 1223.0781,313.8906 L1223.0781,312.4688 C1223.0781,312.0313 1223.0625,311.9063 1222.9688,311.75 C1222.8125,311.4844 1222.5313,311.3438 1222.2344,311.3438 C1221.9375,311.3438 1221.7344,311.4375 1221.5156,311.75 L1221.3438,311.6719 Z "/><text fill="#000000" font-family="sans-serif" font-size="12" lengthAdjust="spacingAndGlyphs" textLength="80" x="1233" y="320.1543">PacmanGame</text><line style="stroke: #A80036; stroke-width: 1.5;" x1="1205" x2="1315" y1="332" y2="332"/><line style="stroke: #A80036; stroke-width: 1.5;" x1="1205" x2="1315" y1="340" y2="340"/><!--MD5=[b6dcce5e5ef3c84b0b048d11301373dd]
class Game--><rect codeLine="26" fill="#FEFECE" filter="url(#f18br7kqrcp5ya)" height="48" id="Game" style="stroke: #A80036; stroke-width: 1.5;" width="67" x="1193.5" y="192"/><ellipse cx="1208.5" cy="208" fill="#B4A7E5" rx="11" ry="11" style="stroke: #A80036; stroke-width: 1.0;"/><path d="M1209.4531,204.7813 L1211.1719,204.7813 C1211.5625,204.7813 1211.75,204.75 1211.875,204.6719 C1212.1406,204.5156 1212.2813,204.2344 1212.2813,203.9375 C1212.2813,203.6719 1212.1719,203.4063 1211.9375,203.2344 C1211.7656,203.125 1211.625,203.0938 1211.1719,203.0938 L1206.0313,203.0938 C1205.5938,203.0938 1205.4688,203.1094 1205.3125,203.2031 C1205.0625,203.3594 1204.9063,203.6563 1204.9063,203.9375 C1204.9063,204.2188 1205.0469,204.4688 1205.2656,204.6406 C1205.4219,204.75 1205.6094,204.7813 1206.0313,204.7813 L1207.75,204.7813 L1207.75,211.2969 L1206.0313,211.2969 C1205.5938,211.2969 1205.4688,211.3125 1205.3125,211.4219 C1205.0625,211.5781 1204.9063,211.8594 1204.9063,212.1563 C1204.9063,212.4063 1205.0469,212.6719 1205.2656,212.8281 C1205.4219,212.9531 1205.625,213 1206.0313,213 L1211.1719,213 C1211.9219,213 1212.2813,212.7188 1212.2813,212.1563 C1212.2813,211.875 1212.1719,211.625 1211.9375,211.4531 C1211.7656,211.3281 1211.625,211.2969 1211.1719,211.2969 L1209.4531,211.2969 L1209.4531,204.7813 Z "/><text fill="#000000" font-family="sans-serif" font-size="12" font-style="italic" lengthAdjust="spacingAndGlyphs" textLength="35" x="1222.5" y="212.1543">Game</text><line style="stroke: #A80036; stroke-width: 1.5;" x1="1194.5" x2="1259.5" y1="224" y2="224"/><line style="stroke: #A80036; stroke-width: 1.5;" x1="1194.5" x2="1259.5" y1="232" y2="232"/><!--MD5=[534746343535a0e90169a204d0c759bc]
class Monde--><rect codeLine="5" fill="#FEFECE" filter="url(#f18br7kqrcp5ya)" height="48" id="Monde" style="stroke: #A80036; stroke-width: 1.5;" width="73" x="1256.5" y="408"/><ellipse cx="1271.5" cy="424" fill="#ADD1B2" rx="11" ry="11" style="stroke: #A80036; stroke-width: 1.0;"/><path d="M1273.8438,419.6719 C1272.9063,419.2344 1272.3125,419.0938 1271.4375,419.0938 C1268.8125,419.0938 1266.8125,421.1719 1266.8125,423.8906 L1266.8125,425.0156 C1266.8125,427.5938 1268.9219,429.4844 1271.8125,429.4844 C1273.0313,429.4844 1274.1875,429.1875 1274.9375,428.6406 C1275.5156,428.2344 1275.8438,427.7813 1275.8438,427.3906 C1275.8438,426.9375 1275.4531,426.5469 1274.9844,426.5469 C1274.7656,426.5469 1274.5625,426.625 1274.375,426.8125 C1273.9219,427.2969 1273.9219,427.2969 1273.7344,427.3906 C1273.3125,427.6563 1272.625,427.7813 1271.8594,427.7813 C1269.8125,427.7813 1268.5156,426.6875 1268.5156,424.9844 L1268.5156,423.8906 C1268.5156,422.1094 1269.7656,420.7969 1271.5,420.7969 C1272.0781,420.7969 1272.6875,420.9531 1273.1563,421.2031 C1273.6406,421.4844 1273.8125,421.7031 1273.9063,422.1094 C1273.9688,422.5156 1274,422.6406 1274.1406,422.7656 C1274.2813,422.9063 1274.5156,423.0156 1274.7344,423.0156 C1275,423.0156 1275.2656,422.875 1275.4375,422.6563 C1275.5469,422.5 1275.5781,422.3125 1275.5781,421.8906 L1275.5781,420.4688 C1275.5781,420.0313 1275.5625,419.9063 1275.4688,419.75 C1275.3125,419.4844 1275.0313,419.3438 1274.7344,419.3438 C1274.4375,419.3438 1274.2344,419.4375 1274.0156,419.75 L1273.8438,419.6719 Z "/><text fill="#000000" font-family="sans-serif" font-size="12" lengthAdjust="spacingAndGlyphs" textLength="41" x="1285.5" y="428.1543">Monde</text><line style="stroke: #A80036; stroke-width: 1.5;" x1="1257.5" x2="1328.5" y1="440" y2="440"/><line style="stroke: #A80036; stroke-width: 1.5;" x1="1257.5" x2="1328.5" y1="448" y2="448"/><!--MD5=[107af66394bf1ebaa045812c9c475148]
class Score--><rect codeLine="7" fill="#FEFECE" filter="url(#f18br7kqrcp5ya)" height="48" id="Score" style="stroke: #A80036; stroke-width: 1.5;" width="68" x="1366" y="519"/><ellipse cx="1381" cy="535" fill="#ADD1B2" rx="11" ry="11" style="stroke: #A80036; stroke-width: 1.0;"/><path d="M1383.3438,530.6719 C1382.4063,530.2344 1381.8125,530.0938 1380.9375,530.0938 C1378.3125,530.0938 1376.3125,532.1719 1376.3125,534.8906 L1376.3125,536.0156 C1376.3125,538.5938 1378.4219,540.4844 1381.3125,540.4844 C1382.5313,540.4844 1383.6875,540.1875 1384.4375,539.6406 C1385.0156,539.2344 1385.3438,538.7813 1385.3438,538.3906 C1385.3438,537.9375 1384.9531,537.5469 1384.4844,537.5469 C1384.2656,537.5469 1384.0625,537.625 1383.875,537.8125 C1383.4219,538.2969 1383.4219,538.2969 1383.2344,538.3906 C1382.8125,538.6563 1382.125,538.7813 1381.3594,538.7813 C1379.3125,538.7813 1378.0156,537.6875 1378.0156,535.9844 L1378.0156,534.8906 C1378.0156,533.1094 1379.2656,531.7969 1381,531.7969 C1381.5781,531.7969 1382.1875,531.9531 1382.6563,532.2031 C1383.1406,532.4844 1383.3125,532.7031 1383.4063,533.1094 C1383.4688,533.5156 1383.5,533.6406 1383.6406,533.7656 C1383.7813,533.9063 1384.0156,534.0156 1384.2344,534.0156 C1384.5,534.0156 1384.7656,533.875 1384.9375,533.6563 C1385.0469,533.5 1385.0781,533.3125 1385.0781,532.8906 L1385.0781,531.4688 C1385.0781,531.0313 1385.0625,530.9063 1384.9688,530.75 C1384.8125,530.4844 1384.5313,530.3438 1384.2344,530.3438 C1383.9375,530.3438 1383.7344,530.4375 1383.5156,530.75 L1383.3438,530.6719 Z "/><text fill="#000000" font-family="sans-serif" font-size="12" lengthAdjust="spacingAndGlyphs" textLength="36" x="1395" y="539.1543">Score</text><line style="stroke: #A80036; stroke-width: 1.5;" x1="1367" x2="1433" y1="551" y2="551"/><line style="stroke: #A80036; stroke-width: 1.5;" x1="1367" x2="1433" y1="559" y2="559"/><!--MD5=[c45abaa87488010b8b38d7cb3b3cc46f]
class Labyrinthe--><rect codeLine="9" fill="#FEFECE" filter="url(#f18br7kqrcp5ya)" height="48" id="Labyrinthe" style="stroke: #A80036; stroke-width: 1.5;" width="94" x="1469" y="519"/><ellipse cx="1484" cy="535" fill="#ADD1B2" rx="11" ry="11" style="stroke: #A80036; stroke-width: 1.0;"/><path d="M1486.3438,530.6719 C1485.4063,530.2344 1484.8125,530.0938 1483.9375,530.0938 C1481.3125,530.0938 1479.3125,532.1719 1479.3125,534.8906 L1479.3125,536.0156 C1479.3125,538.5938 1481.4219,540.4844 1484.3125,540.4844 C1485.5313,540.4844 1486.6875,540.1875 1487.4375,539.6406 C1488.0156,539.2344 1488.3438,538.7813 1488.3438,538.3906 C1488.3438,537.9375 1487.9531,537.5469 1487.4844,537.5469 C1487.2656,537.5469 1487.0625,537.625 1486.875,537.8125 C1486.4219,538.2969 1486.4219,538.2969 1486.2344,538.3906 C1485.8125,538.6563 1485.125,538.7813 1484.3594,538.7813 C1482.3125,538.7813 1481.0156,537.6875 1481.0156,535.9844 L1481.0156,534.8906 C1481.0156,533.1094 1482.2656,531.7969 1484,531.7969 C1484.5781,531.7969 1485.1875,531.9531 1485.6563,532.2031 C1486.1406,532.4844 1486.3125,532.7031 1486.4063,533.1094 C1486.4688,533.5156 1486.5,533.6406 1486.6406,533.7656 C1486.7813,533.9063 1487.0156,534.0156 1487.2344,534.0156 C1487.5,534.0156 1487.7656,533.875 1487.9375,533.6563 C1488.0469,533.5 1488.0781,533.3125 1488.0781,532.8906 L1488.0781,531.4688 C1488.0781,531.0313 1488.0625,530.9063 1487.9688,530.75 C1487.8125,530.4844 1487.5313,530.3438 1487.2344,530.3438 C1486.9375,530.3438 1486.7344,530.4375 1486.5156,530.75 L1486.3438,530.6719 Z "/><text fill="#000000" font-family="sans-serif" font-size="12" lengthAdjust="spacingAndGlyphs" textLength="62" x="1498" y="539.1543">Labyrinthe</text><line style="stroke: #A80036; stroke-width: 1.5;" x1="1470" x2="1562" y1="551" y2="551"/><line style="stroke: #A80036; stroke-width: 1.5;" x1="1470" x2="1562" y1="559" y2="559"/><!--MD5=[0aa3e9e66535bdd804cae8bbcb7d2e53]
class Bille--><rect codeLine="11" fill="#FEFECE" filter="url(#f18br7kqrcp5ya)" height="53.9375" id="Bille" style="stroke: #A80036; stroke-width: 1.5;" width="92" x="1128" y="516"/><ellipse cx="1143" cy="534.9688" fill="#ADD8E6" rx="11" ry="11" style="stroke: #A80036; stroke-width: 1.0;"/><path d="M1145.0781,536.7813 L1145.4688,537.7656 L1145.0781,537.7656 C1144.625,537.7656 1144.5156,537.7813 1144.3594,537.8906 C1144.1094,538.0469 1143.9531,538.3281 1143.9531,538.625 C1143.9531,538.8906 1144.0938,539.1406 1144.3125,539.2969 C1144.4531,539.4219 1144.6563,539.4688 1145.0781,539.4688 L1147.4375,539.4688 C1147.7969,539.4688 1148.0156,539.4375 1148.1563,539.3438 C1148.4063,539.2031 1148.5625,538.9063 1148.5625,538.625 C1148.5625,538.3438 1148.4219,538.0938 1148.2031,537.9375 C1148.0313,537.7969 1147.875,537.7656 1147.4063,537.7656 L1144.0156,529.5625 L1140.3438,529.5625 C1139.8906,529.5625 1139.7656,529.5781 1139.6094,529.6719 C1139.3594,529.8438 1139.2031,530.125 1139.2031,530.4063 C1139.2031,530.6875 1139.3438,530.9375 1139.5625,531.1094 C1139.7344,531.2188 1139.9063,531.25 1140.3438,531.25 L1141.4219,531.25 L1138.7813,537.7656 C1138.3594,537.7656 1138.2031,537.7813 1138.0469,537.8906 C1137.7969,538.0469 1137.6406,538.3281 1137.6406,538.625 C1137.6406,539.1875 1138.0156,539.4688 1138.7656,539.4688 L1141.0313,539.4688 C1141.3906,539.4688 1141.6094,539.4375 1141.7344,539.3438 C1142,539.2031 1142.1406,538.9063 1142.1406,538.625 C1142.1406,538.3438 1142.0156,538.0938 1141.7969,537.9219 C1141.625,537.7969 1141.4844,537.7656 1141.0313,537.7656 L1140.6406,537.7656 L1141.0313,536.7813 L1145.0781,536.7813 Z M1144.375,535.0781 L1141.7031,535.0781 L1143.0469,531.8125 L1144.375,535.0781 Z "/><text fill="#000000" font-family="sans-serif" font-size="12" font-style="italic" lengthAdjust="spacingAndGlyphs" textLength="64" x="1155" y="532.1387">«abstract»</text><text fill="#000000" font-family="sans-serif" font-size="12" lengthAdjust="spacingAndGlyphs" textLength="25" x="1174.5" y="546.1074">Bille</text><line style="stroke: #A80036; stroke-width: 1.5;" x1="1129" x2="1219" y1="553.9375" y2="553.9375"/><line style="stroke: #A80036; stroke-width: 1.5;" x1="1129" x2="1219" y1="561.9375" y2="561.9375"/><!--MD5=[1d4d7626af784b10e92db8506de0ebd8]
class BilleScore--><rect codeLine="13" fill="#FEFECE" filter="url(#f18br7kqrcp5ya)" height="48" id="BilleScore" style="stroke: #A80036; stroke-width: 1.5;" width="93" x="1128.5" y="630"/><ellipse cx="1143.5" cy="646" fill="#ADD1B2" rx="11" ry="11" style="stroke: #A80036; stroke-width: 1.0;"/><path d="M1145.8438,641.6719 C1144.9063,641.2344 1144.3125,641.0938 1143.4375,641.0938 C1140.8125,641.0938 1138.8125,643.1719 1138.8125,645.8906 L1138.8125,647.0156 C1138.8125,649.5938 1140.9219,651.4844 1143.8125,651.4844 C1145.0313,651.4844 1146.1875,651.1875 1146.9375,650.6406 C1147.5156,650.2344 1147.8438,649.7813 1147.8438,649.3906 C1147.8438,648.9375 1147.4531,648.5469 1146.9844,648.5469 C1146.7656,648.5469 1146.5625,648.625 1146.375,648.8125 C1145.9219,649.2969 1145.9219,649.2969 1145.7344,649.3906 C1145.3125,649.6563 1144.625,649.7813 1143.8594,649.7813 C1141.8125,649.7813 1140.5156,648.6875 1140.5156,646.9844 L1140.5156,645.8906 C1140.5156,644.1094 1141.7656,642.7969 1143.5,642.7969 C1144.0781,642.7969 1144.6875,642.9531 1145.1563,643.2031 C1145.6406,643.4844 1145.8125,643.7031 1145.9063,644.1094 C1145.9688,644.5156 1146,644.6406 1146.1406,644.7656 C1146.2813,644.9063 1146.5156,645.0156 1146.7344,645.0156 C1147,645.0156 1147.2656,644.875 1147.4375,644.6563 C1147.5469,644.5 1147.5781,644.3125 1147.5781,643.8906 L1147.5781,642.4688 C1147.5781,642.0313 1147.5625,641.9063 1147.4688,641.75 C1147.3125,641.4844 1147.0313,641.3438 1146.7344,641.3438 C1146.4375,641.3438 1146.2344,641.4375 1146.0156,641.75 L1145.8438,641.6719 Z "/><text fill="#000000" font-family="sans-serif" font-size="12" lengthAdjust="spacingAndGlyphs" textLength="61" x="1157.5" y="650.1543">BilleScore</text><line style="stroke: #A80036; stroke-width: 1.5;" x1="1129.5" x2="1220.5" y1="662" y2="662"/><line style="stroke: #A80036; stroke-width: 1.5;" x1="1129.5" x2="1220.5" y1="670" y2="670"/><!--MD5=[4f7dc9cac213c7ed200093e5ba867052]
class BilleAttaque--><rect codeLine="15" fill="#FEFECE" filter="url(#f18br7kqrcp5ya)" height="48" id="BilleAttaque" style="stroke: #A80036; stroke-width: 1.5;" width="103" x="1256.5" y="630"/><ellipse cx="1271.5" cy="646" fill="#ADD1B2" rx="11" ry="11" style="stroke: #A80036; stroke-width: 1.0;"/><path d="M1273.8438,641.6719 C1272.9063,641.2344 1272.3125,641.0938 1271.4375,641.0938 C1268.8125,641.0938 1266.8125,643.1719 1266.8125,645.8906 L1266.8125,647.0156 C1266.8125,649.5938 1268.9219,651.4844 1271.8125,651.4844 C1273.0313,651.4844 1274.1875,651.1875 1274.9375,650.6406 C1275.5156,650.2344 1275.8438,649.7813 1275.8438,649.3906 C1275.8438,648.9375 1275.4531,648.5469 1274.9844,648.5469 C1274.7656,648.5469 1274.5625,648.625 1274.375,648.8125 C1273.9219,649.2969 1273.9219,649.2969 1273.7344,649.3906 C1273.3125,649.6563 1272.625,649.7813 1271.8594,649.7813 C1269.8125,649.7813 1268.5156,648.6875 1268.5156,646.9844 L1268.5156,645.8906 C1268.5156,644.1094 1269.7656,642.7969 1271.5,642.7969 C1272.0781,642.7969 1272.6875,642.9531 1273.1563,643.2031 C1273.6406,643.4844 1273.8125,643.7031 1273.9063,644.1094 C1273.9688,644.5156 1274,644.6406 1274.1406,644.7656 C1274.2813,644.9063 1274.5156,645.0156 1274.7344,645.0156 C1275,645.0156 1275.2656,644.875 1275.4375,644.6563 C1275.5469,644.5 1275.5781,644.3125 1275.5781,643.8906 L1275.5781,642.4688 C1275.5781,642.0313 1275.5625,641.9063 1275.4688,641.75 C1275.3125,641.4844 1275.0313,641.3438 1274.7344,641.3438 C1274.4375,641.3438 1274.2344,641.4375 1274.0156,641.75 L1273.8438,641.6719 Z "/><text fill="#000000" font-family="sans-serif" font-size="12" lengthAdjust="spacingAndGlyphs" textLength="71" x="1285.5" y="650.1543">BilleAttaque</text><line style="stroke: #A80036; stroke-width: 1.5;" x1="1257.5" x2="1358.5" y1="662" y2="662"/><line style="stroke: #A80036; stroke-width: 1.5;" x1="1257.5" x2="1358.5" y1="670" y2="670"/><!--MD5=[de61d7f6c221ad1f051fe0268c25f9d8]
class PacMan--><rect codeLine="17" fill="#FEFECE" filter="url(#f18br7kqrcp5ya)" height="48" id="PacMan" style="stroke: #A80036; stroke-width: 1.5;" width="76" x="1255" y="519"/><ellipse cx="1270" cy="535" fill="#ADD1B2" rx="11" ry="11" style="stroke: #A80036; stroke-width: 1.0;"/><path d="M1272.3438,530.6719 C1271.4063,530.2344 1270.8125,530.0938 1269.9375,530.0938 C1267.3125,530.0938 1265.3125,532.1719 1265.3125,534.8906 L1265.3125,536.0156 C1265.3125,538.5938 1267.4219,540.4844 1270.3125,540.4844 C1271.5313,540.4844 1272.6875,540.1875 1273.4375,539.6406 C1274.0156,539.2344 1274.3438,538.7813 1274.3438,538.3906 C1274.3438,537.9375 1273.9531,537.5469 1273.4844,537.5469 C1273.2656,537.5469 1273.0625,537.625 1272.875,537.8125 C1272.4219,538.2969 1272.4219,538.2969 1272.2344,538.3906 C1271.8125,538.6563 1271.125,538.7813 1270.3594,538.7813 C1268.3125,538.7813 1267.0156,537.6875 1267.0156,535.9844 L1267.0156,534.8906 C1267.0156,533.1094 1268.2656,531.7969 1270,531.7969 C1270.5781,531.7969 1271.1875,531.9531 1271.6563,532.2031 C1272.1406,532.4844 1272.3125,532.7031 1272.4063,533.1094 C1272.4688,533.5156 1272.5,533.6406 1272.6406,533.7656 C1272.7813,533.9063 1273.0156,534.0156 1273.2344,534.0156 C1273.5,534.0156 1273.7656,533.875 1273.9375,533.6563 C1274.0469,533.5 1274.0781,533.3125 1274.0781,532.8906 L1274.0781,531.4688 C1274.0781,531.0313 1274.0625,530.9063 1273.9688,530.75 C1273.8125,530.4844 1273.5313,530.3438 1273.2344,530.3438 C1272.9375,530.3438 1272.7344,530.4375 1272.5156,530.75 L1272.3438,530.6719 Z "/><text fill="#000000" font-family="sans-serif" font-size="12" lengthAdjust="spacingAndGlyphs" textLength="44" x="1284" y="539.1543">PacMan</text><line style="stroke: #A80036; stroke-width: 1.5;" x1="1256" x2="1330" y1="551" y2="551"/><line style="stroke: #A80036; stroke-width: 1.5;" x1="1256" x2="1330" y1="559" y2="559"/><!--MD5=[2e5679976a773afae2525507978dad9d]
class Cmd--><rect codeLine="24" fill="#FEFECE" filter="url(#f18br7kqrcp5ya)" height="48" id="Cmd" style="stroke: #A80036; stroke-width: 1.5;" width="59" x="550.5" y="408"/><ellipse cx="565.5" cy="424" fill="#EB937F" rx="11" ry="11" style="stroke: #A80036; stroke-width: 1.0;"/><path d="M564.2969,424.875 L565.75,424.875 L565.75,424.9844 C565.75,425.3906 565.7813,425.5469 565.8594,425.7031 C566.0156,425.9531 566.2969,426.1094 566.5938,426.1094 C566.8438,426.1094 567.1094,425.9688 567.2656,425.75 C567.3906,425.5938 567.4219,425.4375 567.4219,424.9844 L567.4219,423.0625 C567.4219,422.9063 567.4219,422.8594 567.4063,422.7031 C567.3438,422.2344 567.0313,421.9219 566.5781,421.9219 C566.3281,421.9219 566.0625,422.0625 565.8906,422.2813 C565.7813,422.4531 565.75,422.6094 565.75,423.0625 L565.75,423.1875 L564.2969,423.1875 L564.2969,420.7813 L568.2813,420.7813 L568.2813,421.6406 C568.2813,422.0469 568.3125,422.2188 568.3906,422.375 C568.5625,422.625 568.8438,422.7813 569.125,422.7813 C569.3906,422.7813 569.6563,422.6406 569.8281,422.4219 C569.9375,422.25 569.9688,422.1094 569.9688,421.6406 L569.9688,419.0938 L562.3438,419.0938 C561.9063,419.0938 561.7813,419.1094 561.625,419.2031 C561.375,419.3594 561.2188,419.6563 561.2188,419.9375 C561.2188,420.2188 561.3594,420.4688 561.5781,420.6406 C561.7344,420.75 561.9219,420.7813 562.3438,420.7813 L562.5938,420.7813 L562.5938,427.2969 L562.3438,427.2969 C561.9375,427.2969 561.7813,427.3125 561.625,427.4219 C561.375,427.5938 561.2188,427.8594 561.2188,428.1563 C561.2188,428.4219 561.3594,428.6719 561.5781,428.8281 C561.7188,428.9531 561.9531,429 562.3438,429 L570.3438,429 L570.3438,426.4219 C570.3438,425.9844 570.3125,425.8438 570.2344,425.6875 C570.0625,425.4375 569.7813,425.2813 569.5,425.2813 C569.2344,425.2813 568.9688,425.3906 568.7969,425.6406 C568.6875,425.7969 568.6563,425.9375 568.6563,426.4219 L568.6563,427.2969 L564.2969,427.2969 L564.2969,424.875 Z "/><text fill="#000000" font-family="sans-serif" font-size="12" lengthAdjust="spacingAndGlyphs" textLength="27" x="579.5" y="428.1543">Cmd</text><line style="stroke: #A80036; stroke-width: 1.5;" x1="551.5" x2="608.5" y1="440" y2="440"/><line style="stroke: #A80036; stroke-width: 1.5;" x1="551.5" x2="608.5" y1="448" y2="448"/><!--MD5=[7cc6ce3da43ef94cad7d75512e2834ff]
class GameEngineGraphical--><rect codeLine="28" fill="#FEFECE" filter="url(#f18br7kqrcp5ya)" height="48" id="GameEngineGraphical" style="stroke: #A80036; stroke-width: 1.5;" width="163" x="258.5" y="84"/><ellipse cx="273.5" cy="100" fill="#ADD1B2" rx="11" ry="11" style="stroke: #A80036; stroke-width: 1.0;"/><path d="M275.8438,95.6719 C274.9063,95.2344 274.3125,95.0938 273.4375,95.0938 C270.8125,95.0938 268.8125,97.1719 268.8125,99.8906 L268.8125,101.0156 C268.8125,103.5938 270.9219,105.4844 273.8125,105.4844 C275.0313,105.4844 276.1875,105.1875 276.9375,104.6406 C277.5156,104.2344 277.8438,103.7813 277.8438,103.3906 C277.8438,102.9375 277.4531,102.5469 276.9844,102.5469 C276.7656,102.5469 276.5625,102.625 276.375,102.8125 C275.9219,103.2969 275.9219,103.2969 275.7344,103.3906 C275.3125,103.6563 274.625,103.7813 273.8594,103.7813 C271.8125,103.7813 270.5156,102.6875 270.5156,100.9844 L270.5156,99.8906 C270.5156,98.1094 271.7656,96.7969 273.5,96.7969 C274.0781,96.7969 274.6875,96.9531 275.1563,97.2031 C275.6406,97.4844 275.8125,97.7031 275.9063,98.1094 C275.9688,98.5156 276,98.6406 276.1406,98.7656 C276.2813,98.9063 276.5156,99.0156 276.7344,99.0156 C277,99.0156 277.2656,98.875 277.4375,98.6563 C277.5469,98.5 277.5781,98.3125 277.5781,97.8906 L277.5781,96.4688 C277.5781,96.0313 277.5625,95.9063 277.4688,95.75 C277.3125,95.4844 277.0313,95.3438 276.7344,95.3438 C276.4375,95.3438 276.2344,95.4375 276.0156,95.75 L275.8438,95.6719 Z "/><text fill="#000000" font-family="sans-serif" font-size="12" lengthAdjust="spacingAndGlyphs" textLength="131" x="287.5" y="104.1543">GameEngineGraphical</text><line style="stroke: #A80036; stroke-width: 1.5;" x1="259.5" x2="420.5" y1="116" y2="116"/><line style="stroke: #A80036; stroke-width: 1.5;" x1="259.5" x2="420.5" y1="124" y2="124"/><!--MD5=[3ad2a79a7d7d539cf057dae47f26badf]
class DrawingPanel--><rect codeLine="32" fill="#FEFECE" filter="url(#f18br7kqrcp5ya)" height="48" id="DrawingPanel" style="stroke: #A80036; stroke-width: 1.5;" width="112" x="227" y="300"/><ellipse cx="242" cy="316" fill="#ADD1B2" rx="11" ry="11" style="stroke: #A80036; stroke-width: 1.0;"/><path d="M244.3438,311.6719 C243.4063,311.2344 242.8125,311.0938 241.9375,311.0938 C239.3125,311.0938 237.3125,313.1719 237.3125,315.8906 L237.3125,317.0156 C237.3125,319.5938 239.4219,321.4844 242.3125,321.4844 C243.5313,321.4844 244.6875,321.1875 245.4375,320.6406 C246.0156,320.2344 246.3438,319.7813 246.3438,319.3906 C246.3438,318.9375 245.9531,318.5469 245.4844,318.5469 C245.2656,318.5469 245.0625,318.625 244.875,318.8125 C244.4219,319.2969 244.4219,319.2969 244.2344,319.3906 C243.8125,319.6563 243.125,319.7813 242.3594,319.7813 C240.3125,319.7813 239.0156,318.6875 239.0156,316.9844 L239.0156,315.8906 C239.0156,314.1094 240.2656,312.7969 242,312.7969 C242.5781,312.7969 243.1875,312.9531 243.6563,313.2031 C244.1406,313.4844 244.3125,313.7031 244.4063,314.1094 C244.4688,314.5156 244.5,314.6406 244.6406,314.7656 C244.7813,314.9063 245.0156,315.0156 245.2344,315.0156 C245.5,315.0156 245.7656,314.875 245.9375,314.6563 C246.0469,314.5 246.0781,314.3125 246.0781,313.8906 L246.0781,312.4688 C246.0781,312.0313 246.0625,311.9063 245.9688,311.75 C245.8125,311.4844 245.5313,311.3438 245.2344,311.3438 C244.9375,311.3438 244.7344,311.4375 244.5156,311.75 L244.3438,311.6719 Z "/><text fill="#000000" font-family="sans-serif" font-size="12" lengthAdjust="spacingAndGlyphs" textLength="80" x="256" y="320.1543">DrawingPanel</text><line style="stroke: #A80036; stroke-width: 1.5;" x1="228" x2="338" y1="332" y2="332"/><line style="stroke: #A80036; stroke-width: 1.5;" x1="228" x2="338" y1="340" y2="340"/><!--MD5=[36afe292eb27441132c327893668631d]
class JPanel--><rect fill="#FEFECE" filter="url(#f18br7kqrcp5ya)" height="48" id="JPanel" style="stroke: #A80036; stroke-width: 1.5;" width="67" x="388.5" y="192"/><ellipse cx="403.5" cy="208" fill="#ADD1B2" rx="11" ry="11" style="stroke: #A80036; stroke-width: 1.0;"/><path d="M405.8438,203.6719 C404.9063,203.2344 404.3125,203.0938 403.4375,203.0938 C400.8125,203.0938 398.8125,205.1719 398.8125,207.8906 L398.8125,209.0156 C398.8125,211.5938 400.9219,213.4844 403.8125,213.4844 C405.0313,213.4844 406.1875,213.1875 406.9375,212.6406 C407.5156,212.2344 407.8438,211.7813 407.8438,211.3906 C407.8438,210.9375 407.4531,210.5469 406.9844,210.5469 C406.7656,210.5469 406.5625,210.625 406.375,210.8125 C405.9219,211.2969 405.9219,211.2969 405.7344,211.3906 C405.3125,211.6563 404.625,211.7813 403.8594,211.7813 C401.8125,211.7813 400.5156,210.6875 400.5156,208.9844 L400.5156,207.8906 C400.5156,206.1094 401.7656,204.7969 403.5,204.7969 C404.0781,204.7969 404.6875,204.9531 405.1563,205.2031 C405.6406,205.4844 405.8125,205.7031 405.9063,206.1094 C405.9688,206.5156 406,206.6406 406.1406,206.7656 C406.2813,206.9063 406.5156,207.0156 406.7344,207.0156 C407,207.0156 407.2656,206.875 407.4375,206.6563 C407.5469,206.5 407.5781,206.3125 407.5781,205.8906 L407.5781,204.4688 C407.5781,204.0313 407.5625,203.9063 407.4688,203.75 C407.3125,203.4844 407.0313,203.3438 406.7344,203.3438 C406.4375,203.3438 406.2344,203.4375 406.0156,203.75 L405.8438,203.6719 Z "/><text fill="#000000" font-family="sans-serif" font-size="12" lengthAdjust="spacingAndGlyphs" textLength="35" x="417.5" y="212.1543">JPanel</text><line style="stroke: #A80036; stroke-width: 1.5;" x1="389.5" x2="454.5" y1="224" y2="224"/><line style="stroke: #A80036; stroke-width: 1.5;" x1="389.5" x2="454.5" y1="232" y2="232"/><!--MD5=[d7976c3e31f2093d0743d92749b86f63]
class GraphicalInterface--><rect codeLine="34" fill="#FEFECE" filter="url(#f18br7kqrcp5ya)" height="48" id="GraphicalInterface" style="stroke: #A80036; stroke-width: 1.5;" width="141" x="212.5" y="192"/><ellipse cx="227.5" cy="208" fill="#ADD1B2" rx="11" ry="11" style="stroke: #A80036; stroke-width: 1.0;"/><path d="M229.8438,203.6719 C228.9063,203.2344 228.3125,203.0938 227.4375,203.0938 C224.8125,203.0938 222.8125,205.1719 222.8125,207.8906 L222.8125,209.0156 C222.8125,211.5938 224.9219,213.4844 227.8125,213.4844 C229.0313,213.4844 230.1875,213.1875 230.9375,212.6406 C231.5156,212.2344 231.8438,211.7813 231.8438,211.3906 C231.8438,210.9375 231.4531,210.5469 230.9844,210.5469 C230.7656,210.5469 230.5625,210.625 230.375,210.8125 C229.9219,211.2969 229.9219,211.2969 229.7344,211.3906 C229.3125,211.6563 228.625,211.7813 227.8594,211.7813 C225.8125,211.7813 224.5156,210.6875 224.5156,208.9844 L224.5156,207.8906 C224.5156,206.1094 225.7656,204.7969 227.5,204.7969 C228.0781,204.7969 228.6875,204.9531 229.1563,205.2031 C229.6406,205.4844 229.8125,205.7031 229.9063,206.1094 C229.9688,206.5156 230,206.6406 230.1406,206.7656 C230.2813,206.9063 230.5156,207.0156 230.7344,207.0156 C231,207.0156 231.2656,206.875 231.4375,206.6563 C231.5469,206.5 231.5781,206.3125 231.5781,205.8906 L231.5781,204.4688 C231.5781,204.0313 231.5625,203.9063 231.4688,203.75 C231.3125,203.4844 231.0313,203.3438 230.7344,203.3438 C230.4375,203.3438 230.2344,203.4375 230.0156,203.75 L229.8438,203.6719 Z "/><text fill="#000000" font-family="sans-serif" font-size="12" lengthAdjust="spacingAndGlyphs" textLength="109" x="241.5" y="212.1543">GraphicalInterface</text><line style="stroke: #A80036; stroke-width: 1.5;" x1="213.5" x2="352.5" y1="224" y2="224"/><line style="stroke: #A80036; stroke-width: 1.5;" x1="213.5" x2="352.5" y1="232" y2="232"/><!--MD5=[6334a9df84847b1e3cc0f4b3bb7faca9]
class GamePainter--><rect codeLine="36" fill="#FEFECE" filter="url(#f18br7kqrcp5ya)" height="48" id="GamePainter" style="stroke: #A80036; stroke-width: 1.5;" width="109" x="194.5" y="408"/><ellipse cx="209.5" cy="424" fill="#B4A7E5" rx="11" ry="11" style="stroke: #A80036; stroke-width: 1.0;"/><path d="M210.4531,420.7813 L212.1719,420.7813 C212.5625,420.7813 212.75,420.75 212.875,420.6719 C213.1406,420.5156 213.2813,420.2344 213.2813,419.9375 C213.2813,419.6719 213.1719,419.4063 212.9375,419.2344 C212.7656,419.125 212.625,419.0938 212.1719,419.0938 L207.0313,419.0938 C206.5938,419.0938 206.4688,419.1094 206.3125,419.2031 C206.0625,419.3594 205.9063,419.6563 205.9063,419.9375 C205.9063,420.2188 206.0469,420.4688 206.2656,420.6406 C206.4219,420.75 206.6094,420.7813 207.0313,420.7813 L208.75,420.7813 L208.75,427.2969 L207.0313,427.2969 C206.5938,427.2969 206.4688,427.3125 206.3125,427.4219 C206.0625,427.5781 205.9063,427.8594 205.9063,428.1563 C205.9063,428.4063 206.0469,428.6719 206.2656,428.8281 C206.4219,428.9531 206.625,429 207.0313,429 L212.1719,429 C212.9219,429 213.2813,428.7188 213.2813,428.1563 C213.2813,427.875 213.1719,427.625 212.9375,427.4531 C212.7656,427.3281 212.625,427.2969 212.1719,427.2969 L210.4531,427.2969 L210.4531,420.7813 Z "/><text fill="#000000" font-family="sans-serif" font-size="12" font-style="italic" lengthAdjust="spacingAndGlyphs" textLength="77" x="223.5" y="428.1543">GamePainter</text><line style="stroke: #A80036; stroke-width: 1.5;" x1="195.5" x2="302.5" y1="440" y2="440"/><line style="stroke: #A80036; stroke-width: 1.5;" x1="195.5" x2="302.5" y1="448" y2="448"/><!--MD5=[8d2ddd461e593964ccbd45e1418f0370]
class PacmanPainter--><rect codeLine="38" fill="#FEFECE" filter="url(#f18br7kqrcp5ya)" height="48" id="PacmanPainter" style="stroke: #A80036; stroke-width: 1.5;" width="117" x="190.5" y="519"/><ellipse cx="205.5" cy="535" fill="#ADD1B2" rx="11" ry="11" style="stroke: #A80036; stroke-width: 1.0;"/><path d="M207.8438,530.6719 C206.9063,530.2344 206.3125,530.0938 205.4375,530.0938 C202.8125,530.0938 200.8125,532.1719 200.8125,534.8906 L200.8125,536.0156 C200.8125,538.5938 202.9219,540.4844 205.8125,540.4844 C207.0313,540.4844 208.1875,540.1875 208.9375,539.6406 C209.5156,539.2344 209.8438,538.7813 209.8438,538.3906 C209.8438,537.9375 209.4531,537.5469 208.9844,537.5469 C208.7656,537.5469 208.5625,537.625 208.375,537.8125 C207.9219,538.2969 207.9219,538.2969 207.7344,538.3906 C207.3125,538.6563 206.625,538.7813 205.8594,538.7813 C203.8125,538.7813 202.5156,537.6875 202.5156,535.9844 L202.5156,534.8906 C202.5156,533.1094 203.7656,531.7969 205.5,531.7969 C206.0781,531.7969 206.6875,531.9531 207.1563,532.2031 C207.6406,532.4844 207.8125,532.7031 207.9063,533.1094 C207.9688,533.5156 208,533.6406 208.1406,533.7656 C208.2813,533.9063 208.5156,534.0156 208.7344,534.0156 C209,534.0156 209.2656,533.875 209.4375,533.6563 C209.5469,533.5 209.5781,533.3125 209.5781,532.8906 L209.5781,531.4688 C209.5781,531.0313 209.5625,530.9063 209.4688,530.75 C209.3125,530.4844 209.0313,530.3438 208.7344,530.3438 C208.4375,530.3438 208.2344,530.4375 208.0156,530.75 L207.8438,530.6719 Z "/><text fill="#000000" font-family="sans-serif" font-size="12" lengthAdjust="spacingAndGlyphs" textLength="85" x="219.5" y="539.1543">PacmanPainter</text><line style="stroke: #A80036; stroke-width: 1.5;" x1="191.5" x2="306.5" y1="551" y2="551"/><line style="stroke: #A80036; stroke-width: 1.5;" x1="191.5" x2="306.5" y1="559" y2="559"/><!--MD5=[afb11660004e7629703c13517a41bd04]
class MenuPrincipal--><rect codeLine="40" fill="#FEFECE" filter="url(#f18br7kqrcp5ya)" height="48" id="MenuPrincipal" style="stroke: #A80036; stroke-width: 1.5;" width="113" x="342.5" y="519"/><ellipse cx="357.5" cy="535" fill="#ADD1B2" rx="11" ry="11" style="stroke: #A80036; stroke-width: 1.0;"/><path d="M359.8438,530.6719 C358.9063,530.2344 358.3125,530.0938 357.4375,530.0938 C354.8125,530.0938 352.8125,532.1719 352.8125,534.8906 L352.8125,536.0156 C352.8125,538.5938 354.9219,540.4844 357.8125,540.4844 C359.0313,540.4844 360.1875,540.1875 360.9375,539.6406 C361.5156,539.2344 361.8438,538.7813 361.8438,538.3906 C361.8438,537.9375 361.4531,537.5469 360.9844,537.5469 C360.7656,537.5469 360.5625,537.625 360.375,537.8125 C359.9219,538.2969 359.9219,538.2969 359.7344,538.3906 C359.3125,538.6563 358.625,538.7813 357.8594,538.7813 C355.8125,538.7813 354.5156,537.6875 354.5156,535.9844 L354.5156,534.8906 C354.5156,533.1094 355.7656,531.7969 357.5,531.7969 C358.0781,531.7969 358.6875,531.9531 359.1563,532.2031 C359.6406,532.4844 359.8125,532.7031 359.9063,533.1094 C359.9688,533.5156 360,533.6406 360.1406,533.7656 C360.2813,533.9063 360.5156,534.0156 360.7344,534.0156 C361,534.0156 361.2656,533.875 361.4375,533.6563 C361.5469,533.5 361.5781,533.3125 361.5781,532.8906 L361.5781,531.4688 C361.5781,531.0313 361.5625,530.9063 361.4688,530.75 C361.3125,530.4844 361.0313,530.3438 360.7344,530.3438 C360.4375,530.3438 360.2344,530.4375 360.0156,530.75 L359.8438,530.6719 Z "/><text fill="#000000" font-family="sans-serif" font-size="12" lengthAdjust="spacingAndGlyphs" textLength="81" x="371.5" y="539.1543">MenuPrincipal</text><line style="stroke: #A80036; stroke-width: 1.5;" x1="343.5" x2="454.5" y1="551" y2="551"/><line style="stroke: #A80036; stroke-width: 1.5;" x1="343.5" x2="454.5" y1="559" y2="559"/><!--MD5=[182e2dba9515e01b57629efb4bd51e9d]
class MenuPause--><rect codeLine="42" fill="#FEFECE" filter="url(#f18br7kqrcp5ya)" height="48" id="MenuPause" style="stroke: #A80036; stroke-width: 1.5;" width="99" x="56.5" y="519"/><ellipse cx="71.5" cy="535" fill="#ADD1B2" rx="11" ry="11" style="stroke: #A80036; stroke-width: 1.0;"/><path d="M73.8438,530.6719 C72.9063,530.2344 72.3125,530.0938 71.4375,530.0938 C68.8125,530.0938 66.8125,532.1719 66.8125,534.8906 L66.8125,536.0156 C66.8125,538.5938 68.9219,540.4844 71.8125,540.4844 C73.0313,540.4844 74.1875,540.1875 74.9375,539.6406 C75.5156,539.2344 75.8438,538.7813 75.8438,538.3906 C75.8438,537.9375 75.4531,537.5469 74.9844,537.5469 C74.7656,537.5469 74.5625,537.625 74.375,537.8125 C73.9219,538.2969 73.9219,538.2969 73.7344,538.3906 C73.3125,538.6563 72.625,538.7813 71.8594,538.7813 C69.8125,538.7813 68.5156,537.6875 68.5156,535.9844 L68.5156,534.8906 C68.5156,533.1094 69.7656,531.7969 71.5,531.7969 C72.0781,531.7969 72.6875,531.9531 73.1563,532.2031 C73.6406,532.4844 73.8125,532.7031 73.9063,533.1094 C73.9688,533.5156 74,533.6406 74.1406,533.7656 C74.2813,533.9063 74.5156,534.0156 74.7344,534.0156 C75,534.0156 75.2656,533.875 75.4375,533.6563 C75.5469,533.5 75.5781,533.3125 75.5781,532.8906 L75.5781,531.4688 C75.5781,531.0313 75.5625,530.9063 75.4688,530.75 C75.3125,530.4844 75.0313,530.3438 74.7344,530.3438 C74.4375,530.3438 74.2344,530.4375 74.0156,530.75 L73.8438,530.6719 Z "/><text fill="#000000" font-family="sans-serif" font-size="12" lengthAdjust="spacingAndGlyphs" textLength="67" x="85.5" y="539.1543">MenuPause</text><line style="stroke: #A80036; stroke-width: 1.5;" x1="57.5" x2="154.5" y1="551" y2="551"/><line style="stroke: #A80036; stroke-width: 1.5;" x1="57.5" x2="154.5" y1="559" y2="559"/><!--MD5=[82d9c97a467af7c0b2c072e754b85475]
class GameController--><rect codeLine="48" fill="#FEFECE" filter="url(#f18br7kqrcp5ya)" height="48" id="GameController" style="stroke: #A80036; stroke-width: 1.5;" width="125" x="611.5" y="192"/><ellipse cx="626.5" cy="208" fill="#B4A7E5" rx="11" ry="11" style="stroke: #A80036; stroke-width: 1.0;"/><path d="M627.4531,204.7813 L629.1719,204.7813 C629.5625,204.7813 629.75,204.75 629.875,204.6719 C630.1406,204.5156 630.2813,204.2344 630.2813,203.9375 C630.2813,203.6719 630.1719,203.4063 629.9375,203.2344 C629.7656,203.125 629.625,203.0938 629.1719,203.0938 L624.0313,203.0938 C623.5938,203.0938 623.4688,203.1094 623.3125,203.2031 C623.0625,203.3594 622.9063,203.6563 622.9063,203.9375 C622.9063,204.2188 623.0469,204.4688 623.2656,204.6406 C623.4219,204.75 623.6094,204.7813 624.0313,204.7813 L625.75,204.7813 L625.75,211.2969 L624.0313,211.2969 C623.5938,211.2969 623.4688,211.3125 623.3125,211.4219 C623.0625,211.5781 622.9063,211.8594 622.9063,212.1563 C622.9063,212.4063 623.0469,212.6719 623.2656,212.8281 C623.4219,212.9531 623.625,213 624.0313,213 L629.1719,213 C629.9219,213 630.2813,212.7188 630.2813,212.1563 C630.2813,211.875 630.1719,211.625 629.9375,211.4531 C629.7656,211.3281 629.625,211.2969 629.1719,211.2969 L627.4531,211.2969 L627.4531,204.7813 Z "/><text fill="#000000" font-family="sans-serif" font-size="12" font-style="italic" lengthAdjust="spacingAndGlyphs" textLength="93" x="640.5" y="212.1543">GameController</text><line style="stroke: #A80036; stroke-width: 1.5;" x1="612.5" x2="735.5" y1="224" y2="224"/><line style="stroke: #A80036; stroke-width: 1.5;" x1="612.5" x2="735.5" y1="232" y2="232"/><!--MD5=[a230fefe8292b977220ca10efe5b6e4e]
class KeyListener--><rect fill="#FEFECE" filter="url(#f18br7kqrcp5ya)" height="48" id="KeyListener" style="stroke: #A80036; stroke-width: 1.5;" width="102" x="623" y="84"/><ellipse cx="638" cy="100" fill="#B4A7E5" rx="11" ry="11" style="stroke: #A80036; stroke-width: 1.0;"/><path d="M638.9531,96.7813 L640.6719,96.7813 C641.0625,96.7813 641.25,96.75 641.375,96.6719 C641.6406,96.5156 641.7813,96.2344 641.7813,95.9375 C641.7813,95.6719 641.6719,95.4063 641.4375,95.2344 C641.2656,95.125 641.125,95.0938 640.6719,95.0938 L635.5313,95.0938 C635.0938,95.0938 634.9688,95.1094 634.8125,95.2031 C634.5625,95.3594 634.4063,95.6563 634.4063,95.9375 C634.4063,96.2188 634.5469,96.4688 634.7656,96.6406 C634.9219,96.75 635.1094,96.7813 635.5313,96.7813 L637.25,96.7813 L637.25,103.2969 L635.5313,103.2969 C635.0938,103.2969 634.9688,103.3125 634.8125,103.4219 C634.5625,103.5781 634.4063,103.8594 634.4063,104.1563 C634.4063,104.4063 634.5469,104.6719 634.7656,104.8281 C634.9219,104.9531 635.125,105 635.5313,105 L640.6719,105 C641.4219,105 641.7813,104.7188 641.7813,104.1563 C641.7813,103.875 641.6719,103.625 641.4375,103.4531 C641.2656,103.3281 641.125,103.2969 640.6719,103.2969 L638.9531,103.2969 L638.9531,96.7813 Z "/><text fill="#000000" font-family="sans-serif" font-size="12" font-style="italic" lengthAdjust="spacingAndGlyphs" textLength="70" x="652" y="104.1543">KeyListener</text><line style="stroke: #A80036; stroke-width: 1.5;" x1="624" x2="724" y1="116" y2="116"/><line style="stroke: #A80036; stroke-width: 1.5;" x1="624" x2="724" y1="124" y2="124"/><!--MD5=[445ca1d7457e22c3c57a49506646ef11]
class PacmanController--><rect codeLine="50" fill="#FEFECE" filter="url(#f18br7kqrcp5ya)" height="48" id="PacmanController" style="stroke: #A80036; stroke-width: 1.5;" width="136" x="512" y="300"/><ellipse cx="527" cy="316" fill="#ADD1B2" rx="11" ry="11" style="stroke: #A80036; stroke-width: 1.0;"/><path d="M529.3438,311.6719 C528.4063,311.2344 527.8125,311.0938 526.9375,311.0938 C524.3125,311.0938 522.3125,313.1719 522.3125,315.8906 L522.3125,317.0156 C522.3125,319.5938 524.4219,321.4844 527.3125,321.4844 C528.5313,321.4844 529.6875,321.1875 530.4375,320.6406 C531.0156,320.2344 531.3438,319.7813 531.3438,319.3906 C531.3438,318.9375 530.9531,318.5469 530.4844,318.5469 C530.2656,318.5469 530.0625,318.625 529.875,318.8125 C529.4219,319.2969 529.4219,319.2969 529.2344,319.3906 C528.8125,319.6563 528.125,319.7813 527.3594,319.7813 C525.3125,319.7813 524.0156,318.6875 524.0156,316.9844 L524.0156,315.8906 C524.0156,314.1094 525.2656,312.7969 527,312.7969 C527.5781,312.7969 528.1875,312.9531 528.6563,313.2031 C529.1406,313.4844 529.3125,313.7031 529.4063,314.1094 C529.4688,314.5156 529.5,314.6406 529.6406,314.7656 C529.7813,314.9063 530.0156,315.0156 530.2344,315.0156 C530.5,315.0156 530.7656,314.875 530.9375,314.6563 C531.0469,314.5 531.0781,314.3125 531.0781,313.8906 L531.0781,312.4688 C531.0781,312.0313 531.0625,311.9063 530.9688,311.75 C530.8125,311.4844 530.5313,311.3438 530.2344,311.3438 C529.9375,311.3438 529.7344,311.4375 529.5156,311.75 L529.3438,311.6719 Z "/><text fill="#000000" font-family="sans-serif" font-size="12" lengthAdjust="spacingAndGlyphs" textLength="104" x="541" y="320.1543">PacmanController</text><line style="stroke: #A80036; stroke-width: 1.5;" x1="513" x2="647" y1="332" y2="332"/><line style="stroke: #A80036; stroke-width: 1.5;" x1="513" x2="647" y1="340" y2="340"/><!--MD5=[b5f64f775e2f5d481192b90a919416a6]
class MenuPrincipalController--><rect codeLine="52" fill="#FEFECE" filter="url(#f18br7kqrcp5ya)" height="48" id="MenuPrincipalController" style="stroke: #A80036; stroke-width: 1.5;" width="172" x="683" y="300"/><ellipse cx="698" cy="316" fill="#ADD1B2" rx="11" ry="11" style="stroke: #A80036; stroke-width: 1.0;"/><path d="M700.3438,311.6719 C699.4063,311.2344 698.8125,311.0938 697.9375,311.0938 C695.3125,311.0938 693.3125,313.1719 693.3125,315.8906 L693.3125,317.0156 C693.3125,319.5938 695.4219,321.4844 698.3125,321.4844 C699.5313,321.4844 700.6875,321.1875 701.4375,320.6406 C702.0156,320.2344 702.3438,319.7813 702.3438,319.3906 C702.3438,318.9375 701.9531,318.5469 701.4844,318.5469 C701.2656,318.5469 701.0625,318.625 700.875,318.8125 C700.4219,319.2969 700.4219,319.2969 700.2344,319.3906 C699.8125,319.6563 699.125,319.7813 698.3594,319.7813 C696.3125,319.7813 695.0156,318.6875 695.0156,316.9844 L695.0156,315.8906 C695.0156,314.1094 696.2656,312.7969 698,312.7969 C698.5781,312.7969 699.1875,312.9531 699.6563,313.2031 C700.1406,313.4844 700.3125,313.7031 700.4063,314.1094 C700.4688,314.5156 700.5,314.6406 700.6406,314.7656 C700.7813,314.9063 701.0156,315.0156 701.2344,315.0156 C701.5,315.0156 701.7656,314.875 701.9375,314.6563 C702.0469,314.5 702.0781,314.3125 702.0781,313.8906 L702.0781,312.4688 C702.0781,312.0313 702.0625,311.9063 701.9688,311.75 C701.8125,311.4844 701.5313,311.3438 701.2344,311.3438 C700.9375,311.3438 700.7344,311.4375 700.5156,311.75 L700.3438,311.6719 Z "/><text fill="#000000" font-family="sans-serif" font-size="12" lengthAdjust="spacingAndGlyphs" textLength="140" x="712" y="320.1543">MenuPrincipalController</text><line style="stroke: #A80036; stroke-width: 1.5;" x1="684" x2="854" y1="332" y2="332"/><line style="stroke: #A80036; stroke-width: 1.5;" x1="684" x2="854" y1="340" y2="340"/><!--MD5=[f91c5291f5a863d6403709060d1e298f]
class MenuPauseController--><rect codeLine="54" fill="#FEFECE" filter="url(#f18br7kqrcp5ya)" height="48" id="MenuPauseController" style="stroke: #A80036; stroke-width: 1.5;" width="158" x="890" y="300"/><ellipse cx="905" cy="316" fill="#ADD1B2" rx="11" ry="11" style="stroke: #A80036; stroke-width: 1.0;"/><path d="M907.3438,311.6719 C906.4063,311.2344 905.8125,311.0938 904.9375,311.0938 C902.3125,311.0938 900.3125,313.1719 900.3125,315.8906 L900.3125,317.0156 C900.3125,319.5938 902.4219,321.4844 905.3125,321.4844 C906.5313,321.4844 907.6875,321.1875 908.4375,320.6406 C909.0156,320.2344 909.3438,319.7813 909.3438,319.3906 C909.3438,318.9375 908.9531,318.5469 908.4844,318.5469 C908.2656,318.5469 908.0625,318.625 907.875,318.8125 C907.4219,319.2969 907.4219,319.2969 907.2344,319.3906 C906.8125,319.6563 906.125,319.7813 905.3594,319.7813 C903.3125,319.7813 902.0156,318.6875 902.0156,316.9844 L902.0156,315.8906 C902.0156,314.1094 903.2656,312.7969 905,312.7969 C905.5781,312.7969 906.1875,312.9531 906.6563,313.2031 C907.1406,313.4844 907.3125,313.7031 907.4063,314.1094 C907.4688,314.5156 907.5,314.6406 907.6406,314.7656 C907.7813,314.9063 908.0156,315.0156 908.2344,315.0156 C908.5,315.0156 908.7656,314.875 908.9375,314.6563 C909.0469,314.5 909.0781,314.3125 909.0781,313.8906 L909.0781,312.4688 C909.0781,312.0313 909.0625,311.9063 908.9688,311.75 C908.8125,311.4844 908.5313,311.3438 908.2344,311.3438 C907.9375,311.3438 907.7344,311.4375 907.5156,311.75 L907.3438,311.6719 Z "/><text fill="#000000" font-family="sans-serif" font-size="12" lengthAdjust="spacingAndGlyphs" textLength="126" x="919" y="320.1543">MenuPauseController</text><line style="stroke: #A80036; stroke-width: 1.5;" x1="891" x2="1047" y1="332" y2="332"/><line style="stroke: #A80036; stroke-width: 1.5;" x1="891" x2="1047" y1="340" y2="340"/><!--MD5=[6bed81755f3c853b7b67737437729881]
reverse link Game to PacmanGame--><path d="M1240.24,259.54 C1244.51,273.235 1249.07,287.9 1252.74,299.678 " fill="none" id="Game-backto-PacmanGame" style="stroke: #A80036; stroke-width: 1.0; stroke-dasharray: 7.0,7.0;"/><polygon fill="none" points="1233.42,261.177,1234.16,240,1246.79,257.016,1233.42,261.177" style="stroke: #A80036; stroke-width: 1.0;"/><!--MD5=[279559332b303e32e516b6807d945a51]
reverse link Bille to BilleScore--><path d="M1174.43,590.378 C1174.55,603.955 1174.68,618.2204 1174.79,629.7004 " fill="none" id="Bille-backto-BilleScore" style="stroke: #A80036; stroke-width: 1.0;"/><polygon fill="none" points="1167.42,590.172,1174.24,570.108,1181.42,590.043,1167.42,590.172" style="stroke: #A80036; stroke-width: 1.0;"/><!--MD5=[8dbe67f9fbed37de18799cd86239b7b5]
reverse link Bille to BilleAttaque--><path d="M1207.13,585.523 C1216.48,595.847 1227.09,606.407 1238,615 C1244.84,620.3912 1252.56,625.4302 1260.3,629.964 " fill="none" id="Bille-backto-BilleAttaque" style="stroke: #A80036; stroke-width: 1.0;"/><polygon fill="none" points="1201.79,590.045,1194.04,570.321,1212.4,580.911,1201.79,590.045" style="stroke: #A80036; stroke-width: 1.0;"/><!--MD5=[4afabb6f3c46c6ba44f529e96217200f]
reverse link JPanel to DrawingPanel--><path d="M375.883,252.168 C355.398,267.79 331.845,285.752 313.582,299.678 " fill="none" id="JPanel-backto-DrawingPanel" style="stroke: #A80036; stroke-width: 1.0;"/><polygon fill="none" points="371.691,246.562,391.839,240,380.18,257.694,371.691,246.562" style="stroke: #A80036; stroke-width: 1.0;"/><!--MD5=[b1c9693fabb413ec3993054968e77f59]
reverse link GamePainter to PacmanPainter--><path d="M249,476.171 C249,490.766 249,506.495 249,518.917 " fill="none" id="GamePainter-backto-PacmanPainter" style="stroke: #A80036; stroke-width: 1.0; stroke-dasharray: 7.0,7.0;"/><polygon fill="none" points="242,476.116,249,456.116,256,476.116,242,476.116" style="stroke: #A80036; stroke-width: 1.0;"/><!--MD5=[047a08b29d496840871f1217694d59af]
reverse link GamePainter to MenuPrincipal--><path d="M297.064,467.927 C320.021,484.609 346.86,504.112 367.235,518.917 " fill="none" id="GamePainter-backto-MenuPrincipal" style="stroke: #A80036; stroke-width: 1.0; stroke-dasharray: 7.0,7.0;"/><polygon fill="none" points="292.876,473.536,280.811,456.116,301.106,462.21,292.876,473.536" style="stroke: #A80036; stroke-width: 1.0;"/><!--MD5=[25f4c5a2e90efe36feaa35cdc6d97d69]
reverse link GamePainter to MenuPause--><path d="M202.537,468.416 C180.795,484.989 155.517,504.256 136.283,518.917 " fill="none" id="GamePainter-backto-MenuPause" style="stroke: #A80036; stroke-width: 1.0; stroke-dasharray: 7.0,7.0;"/><polygon fill="none" points="198.524,462.673,218.673,456.116,207.011,473.807,198.524,462.673" style="stroke: #A80036; stroke-width: 1.0;"/><!--MD5=[02b9b48f63d6938771d416b8e06dd01d]
reverse link KeyListener to GameController--><path d="M674,152.024 C674,165.579 674,180.038 674,191.678 " fill="none" id="KeyListener-backto-GameController" style="stroke: #A80036; stroke-width: 1.0;"/><polygon fill="none" points="667,152,674,132,681,152,667,152" style="stroke: #A80036; stroke-width: 1.0;"/><!--MD5=[64e787f999a1edf0f06c7e5d69ad8504]
reverse link GameController to PacmanController--><path d="M640.101,255.227 C626.914,270.097 612.233,286.652 600.681,299.678 " fill="none" id="GameController-backto-PacmanController" style="stroke: #A80036; stroke-width: 1.0; stroke-dasharray: 7.0,7.0;"/><polygon fill="none" points="635.096,250.32,653.603,240,645.571,259.609,635.096,250.32" style="stroke: #A80036; stroke-width: 1.0;"/><!--MD5=[95fcf7b6521e8e3c5aa4b9a6ba9cfe90]
reverse link GameController to MenuPrincipalController--><path d="M708.26,255.227 C721.587,270.097 736.424,286.652 748.099,299.678 " fill="none" id="GameController-backto-MenuPrincipalController" style="stroke: #A80036; stroke-width: 1.0; stroke-dasharray: 7.0,7.0;"/><polygon fill="none" points="702.749,259.566,694.614,240,713.175,250.222,702.749,259.566" style="stroke: #A80036; stroke-width: 1.0;"/><!--MD5=[0eeffd6eb211588c22ed4e0d958334c1]
reverse link GameController to MenuPauseController--><path d="M755.631,246.332 C802.679,263.237 860.981,284.186 904.745,299.912 " fill="none" id="GameController-backto-MenuPauseController" style="stroke: #A80036; stroke-width: 1.0; stroke-dasharray: 7.0,7.0;"/><polygon fill="none" points="753.017,252.831,736.562,239.48,757.751,239.655,753.017,252.831" style="stroke: #A80036; stroke-width: 1.0;"/><!--MD5=[1096b6cf6f83b21144605c5da5724ef6]
link PacmanController to Cmd--><path codeLine="59" d="M580,348 C580,365.658 580,389.941 580,407.678 " fill="none" id="PacmanController-Cmd" style="stroke: #A80036; stroke-width: 1.0;"/><text fill="#000000" font-family="sans-serif" font-size="13" lengthAdjust="spacingAndGlyphs" textLength="8" x="571.025" y="397.0045">1</text><!--MD5=[019668d3fec8380d7d04cd55509e506d]
link Monde to Score--><path codeLine="60" d="M1315.69,456.116 C1333.85,474.614 1359.19,500.428 1377.34,518.917 " fill="none" id="Monde-Score" style="stroke: #A80036; stroke-width: 1.0;"/><text fill="#000000" font-family="sans-serif" font-size="13" lengthAdjust="spacingAndGlyphs" textLength="8" x="1362.5084" y="507.9078">1</text><!--MD5=[482e775f0060d4991b46b7c0f1244495]
link Monde to Labyrinthe--><path codeLine="61" d="M1329.82,450.999 C1367.8,469.562 1427.17,498.582 1468.63,518.844 " fill="none" id="Monde-Labyrinthe" style="stroke: #A80036; stroke-width: 1.0;"/><text fill="#000000" font-family="sans-serif" font-size="13" lengthAdjust="spacingAndGlyphs" textLength="8" x="1453.085" y="511.2712">1</text><!--MD5=[ebf605d805c1860e5fc0b9eba786c315]
link Monde to Bille--><path codeLine="62" d="M1267.76,456.116 C1248.66,473.614 1222.41,497.659 1202.54,515.857 " fill="none" id="Monde-Bille" style="stroke: #A80036; stroke-width: 1.0;"/><text fill="#000000" font-family="sans-serif" font-size="13" lengthAdjust="spacingAndGlyphs" textLength="7" x="1201.3305" y="504.9353">*</text><!--MD5=[1ad89d9b952e5e973a4a80a9b04f095f]
link Monde to PacMan--><path codeLine="63" d="M1293,456.116 C1293,474.614 1293,500.428 1293,518.917 " fill="none" id="Monde-PacMan" style="stroke: #A80036; stroke-width: 1.0;"/><text fill="#000000" font-family="sans-serif" font-size="13" lengthAdjust="spacingAndGlyphs" textLength="8" x="1283.975" y="507.9078">1</text><!--MD5=[43cc9f7c242d82bc19b8665c21832521]
link PacmanGame to Monde--><path codeLine="64" d="M1267.16,348 C1272.66,365.658 1280.22,389.941 1285.74,407.678 " fill="none" id="PacmanGame-Monde" style="stroke: #A80036; stroke-width: 1.0;"/><text fill="#000000" font-family="sans-serif" font-size="13" lengthAdjust="spacingAndGlyphs" textLength="8" x="1274.9954" y="397.0045">1</text><!--MD5=[fead969f6af7d8574470731c6d1452db]
link GraphicalInterface to DrawingPanel--><path codeLine="66" d="M283,240 C283,257.658 283,281.941 283,299.678 " fill="none" id="GraphicalInterface-DrawingPanel" style="stroke: #A80036; stroke-width: 1.0;"/><text fill="#000000" font-family="sans-serif" font-size="13" lengthAdjust="spacingAndGlyphs" textLength="8" x="274.025" y="289.0045">1</text><!--MD5=[a6b78f167cceb8a755105e5e50477a11]
link GameEngineGraphical to Game--><path codeLine="67" d="M421.561,122.855 C445.48,126.422 471.73,129.855 496,132 C621.788,143.117 940.426,123.006 1064,149 C1110.76,158.835 1161.26,181.311 1193.46,197.297 " fill="none" id="GameEngineGraphical-Game" style="stroke: #A80036; stroke-width: 1.0;"/><text fill="#000000" font-family="sans-serif" font-size="13" lengthAdjust="spacingAndGlyphs" textLength="8" x="1177.7174" y="188.9732">1</text><!--MD5=[96f5d1ff4124b566d5d7a48176a08b16]
link GameEngineGraphical to GamePainter--><path codeLine="68" d="M258.42,122.582 C230.184,129.073 203.464,137.885 195,149 C176.448,173.363 204.871,360.713 209,372 C213.677,384.784 221.72,397.475 229.373,407.793 " fill="none" id="GameEngineGraphical-GamePainter" style="stroke: #A80036; stroke-width: 1.0;"/><text fill="#000000" font-family="sans-serif" font-size="13" lengthAdjust="spacingAndGlyphs" textLength="8" x="215.3186" y="396.752">1</text><!--MD5=[9feef538a68573ecfa0f053b9ee875e4]
link GameEngineGraphical to GameController--><path codeLine="69" d="M417.214,132.093 C435.217,137.562 454.299,143.427 472,149 C518.804,163.736 571.498,180.974 611.329,194.138 " fill="none" id="GameEngineGraphical-GameController" style="stroke: #A80036; stroke-width: 1.0;"/><text fill="#000000" font-family="sans-serif" font-size="13" lengthAdjust="spacingAndGlyphs" textLength="8" x="595.6202" y="187.8176">1</text><!--MD5=[9be206aaebfe095febcdb733745d3244]
link GameEngineGraphical to GraphicalInterface--><path codeLine="70" d="M327.632,132 C318.137,149.658 305.079,173.941 295.541,191.678 " fill="none" id="GameEngineGraphical-GraphicalInterface" style="stroke: #A80036; stroke-width: 1.0;"/><text fill="#000000" font-family="sans-serif" font-size="13" lengthAdjust="spacingAndGlyphs" textLength="8" x="289.6229" y="181.0045">1</text><!--MD5=[dd428f42614802df7105aec30a17bcaa]
link DrawingPanel to GamePainter--><path codeLine="71" d="M275.623,348 C269.959,365.658 262.17,389.941 256.481,407.678 " fill="none" id="DrawingPanel-GamePainter" style="stroke: #A80036; stroke-width: 1.0;"/><text fill="#000000" font-family="sans-serif" font-size="13" lengthAdjust="spacingAndGlyphs" textLength="8" x="249.3295" y="397.0045">1</text><!--MD5=[ddddc79d8cb3399e58ce7f8c6222c747]
@startuml
package model{
    
    class PacmanGame implements Game {}
    
    class Monde{}
    
    class Score{}
    
    class Labyrinthe{}
    
    class Bille << (A, lightblue) abstract>>{}
    
    class BilleScore extends Bille{}
    
    class BilleAttaque extends Bille{}
    
    class PacMan{}
    
}


package engine{

    enum Cmd {}
    
    interface Game {}
    
    class GameEngineGraphical {}
    
package views{

    class DrawingPanel extends JPanel {}
    
    class GraphicalInterface  {}
    
    interface GamePainter {}
    
    class PacmanPainter implements GamePainter {}

    class MenuPrincipal implements GamePainter {}
    
    class MenuPause implements GamePainter {}
    
}

package controllers{

    interface GameController extends KeyListener {}
    
    class PacmanController implements GameController {}

    class MenuPrincipalController implements GameController {}
    
    class MenuPauseController implements GameController {}
    
}
}

PacmanController - -"1" Cmd
Monde - -"1" Score
Monde - -"1" Labyrinthe
Monde - -"*" Bille
Monde - - "1" PacMan
PacmanGame - -"1" Monde

GraphicalInterface - -"1" DrawingPanel
GameEngineGraphical - -"1" Game
GameEngineGraphical - -"1" GamePainter
GameEngineGraphical - -"1" GameController
GameEngineGraphical - -"1" GraphicalInterface
DrawingPanel - -"1" GamePainter
@enduml

PlantUML version 1.2020.20beta2(Unknown compile time)
(GPL source distribution)
Java Runtime: Java(TM) SE Runtime Environment
JVM: Java HotSpot(TM) 64-Bit Server VM
Default Encoding: UTF-8
Language: en
Country: US
--></g></svg>