<?xml version="1.0" encoding="UTF-8" standalone="no"?><svg xmlns="http://www.w3.org/2000/svg" xmlns:xlink="http://www.w3.org/1999/xlink" contentScriptType="application/ecmascript" contentStyleType="text/css" height="799px" preserveAspectRatio="none" style="width:1800px;height:799px;" version="1.1" viewBox="0 0 1800 799" width="1800px" zoomAndPan="magnify"><defs><filter height="300%" id="fqbl43bjx8ayx" width="300%" x="-1" y="-1"><feGaussianBlur result="blurOut" stdDeviation="2.0"/><feColorMatrix in="blurOut" result="blurOut2" type="matrix" values="0 0 0 0 0 0 0 0 0 0 0 0 0 0 0 0 0 0 .4 0"/><feOffset dx="4.0" dy="4.0" in="blurOut2" result="blurOut3"/><feBlend in="SourceGraphic" in2="blurOut3" mode="normal"/></filter></defs><g><!--MD5=[5d4cd377749310b66bf14896f5cd8d9b]
cluster model--><polygon fill="#FFFFFF" filter="url(#fqbl43bjx8ayx)" points="16,6,71,6,78,28.2969,374,28.2969,374,660,16,660,16,6" style="stroke: #000000; stroke-width: 1.5;"/><line style="stroke: #000000; stroke-width: 1.5;" x1="16" x2="78" y1="28.2969" y2="28.2969"/><text fill="#000000" font-family="sans-serif" font-size="14" font-weight="bold" lengthAdjust="spacingAndGlyphs" textLength="49" x="20" y="20.9951">model</text><!--MD5=[11f03a07a4422c8eb8f650dbf201ac41]
cluster exception--><polygon fill="#FFFFFF" filter="url(#fqbl43bjx8ayx)" points="998,6,1083,6,1090,28.2969,1168,28.2969,1168,213,998,213,998,6" style="stroke: #000000; stroke-width: 1.5;"/><line style="stroke: #000000; stroke-width: 1.5;" x1="998" x2="1090" y1="28.2969" y2="28.2969"/><text fill="#000000" font-family="sans-serif" font-size="14" font-weight="bold" lengthAdjust="spacingAndGlyphs" textLength="79" x="1002" y="20.9951">exception</text><!--MD5=[e471781225fc0f8fbd677bbc1a50d018]
cluster engine--><polygon fill="#FFFFFF" filter="url(#fqbl43bjx8ayx)" points="585,237,644,237,651,259.2969,1769,259.2969,1769,792,585,792,585,237" style="stroke: #000000; stroke-width: 1.5;"/><line style="stroke: #000000; stroke-width: 1.5;" x1="585" x2="651" y1="259.2969" y2="259.2969"/><text fill="#000000" font-family="sans-serif" font-size="14" font-weight="bold" lengthAdjust="spacingAndGlyphs" textLength="53" x="589" y="251.9951">engine</text><!--MD5=[e2a75efa8a0f57c2afae8bf75386f79c]
cluster views--><polygon fill="#FFFFFF" filter="url(#fqbl43bjx8ayx)" points="1191,345,1242,345,1249,367.2969,1732,367.2969,1732,768,1191,768,1191,345" style="stroke: #000000; stroke-width: 1.5;"/><line style="stroke: #000000; stroke-width: 1.5;" x1="1191" x2="1249" y1="367.2969" y2="367.2969"/><text fill="#000000" font-family="sans-serif" font-size="14" font-weight="bold" lengthAdjust="spacingAndGlyphs" textLength="45" x="1195" y="359.9951">views</text><!--MD5=[f4e70ef68289585296b9045165e58692]
cluster controllers--><polygon fill="#FFFFFF" filter="url(#fqbl43bjx8ayx)" points="609,453,704,453,711,475.2969,1167,475.2969,1167,768,609,768,609,453" style="stroke: #000000; stroke-width: 1.5;"/><line style="stroke: #000000; stroke-width: 1.5;" x1="609" x2="711" y1="475.2969" y2="475.2969"/><text fill="#000000" font-family="sans-serif" font-size="14" font-weight="bold" lengthAdjust="spacingAndGlyphs" textLength="89" x="613" y="467.9951">controllers</text><!--MD5=[82f78030d15708ad5ff33f19467d2e14]
class Personnage--><rect codeLine="3" fill="#FEFECE" filter="url(#fqbl43bjx8ayx)" height="48" id="Personnage" style="stroke: #A80036; stroke-width: 1.5;" width="102" x="256" y="272"/><ellipse cx="271" cy="288" fill="#B4A7E5" rx="11" ry="11" style="stroke: #A80036; stroke-width: 1.0;"/><path d="M271.9531,284.7813 L273.6719,284.7813 C274.0625,284.7813 274.25,284.75 274.375,284.6719 C274.6406,284.5156 274.7813,284.2344 274.7813,283.9375 C274.7813,283.6719 274.6719,283.4063 274.4375,283.2344 C274.2656,283.125 274.125,283.0938 273.6719,283.0938 L268.5313,283.0938 C268.0938,283.0938 267.9688,283.1094 267.8125,283.2031 C267.5625,283.3594 267.4063,283.6563 267.4063,283.9375 C267.4063,284.2188 267.5469,284.4688 267.7656,284.6406 C267.9219,284.75 268.1094,284.7813 268.5313,284.7813 L270.25,284.7813 L270.25,291.2969 L268.5313,291.2969 C268.0938,291.2969 267.9688,291.3125 267.8125,291.4219 C267.5625,291.5781 267.4063,291.8594 267.4063,292.1563 C267.4063,292.4063 267.5469,292.6719 267.7656,292.8281 C267.9219,292.9531 268.125,293 268.5313,293 L273.6719,293 C274.4219,293 274.7813,292.7188 274.7813,292.1563 C274.7813,291.875 274.6719,291.625 274.4375,291.4531 C274.2656,291.3281 274.125,291.2969 273.6719,291.2969 L271.9531,291.2969 L271.9531,284.7813 Z " fill="#000000"/><text fill="#000000" font-family="sans-serif" font-size="12" font-style="italic" lengthAdjust="spacingAndGlyphs" textLength="70" x="285" y="292.1543">Personnage</text><line style="stroke: #A80036; stroke-width: 1.5;" x1="257" x2="357" y1="304" y2="304"/><line style="stroke: #A80036; stroke-width: 1.5;" x1="257" x2="357" y1="312" y2="312"/><!--MD5=[e05bacf3ff4416a0580578814d41bbf6]
class Piece--><rect codeLine="5" fill="#FEFECE" filter="url(#fqbl43bjx8ayx)" height="48" id="Piece" style="stroke: #A80036; stroke-width: 1.5;" width="63" x="50.5" y="488"/><ellipse cx="65.5" cy="504" fill="#B4A7E5" rx="11" ry="11" style="stroke: #A80036; stroke-width: 1.0;"/><path d="M66.4531,500.7813 L68.1719,500.7813 C68.5625,500.7813 68.75,500.75 68.875,500.6719 C69.1406,500.5156 69.2813,500.2344 69.2813,499.9375 C69.2813,499.6719 69.1719,499.4063 68.9375,499.2344 C68.7656,499.125 68.625,499.0938 68.1719,499.0938 L63.0313,499.0938 C62.5938,499.0938 62.4688,499.1094 62.3125,499.2031 C62.0625,499.3594 61.9063,499.6563 61.9063,499.9375 C61.9063,500.2188 62.0469,500.4688 62.2656,500.6406 C62.4219,500.75 62.6094,500.7813 63.0313,500.7813 L64.75,500.7813 L64.75,507.2969 L63.0313,507.2969 C62.5938,507.2969 62.4688,507.3125 62.3125,507.4219 C62.0625,507.5781 61.9063,507.8594 61.9063,508.1563 C61.9063,508.4063 62.0469,508.6719 62.2656,508.8281 C62.4219,508.9531 62.625,509 63.0313,509 L68.1719,509 C68.9219,509 69.2813,508.7188 69.2813,508.1563 C69.2813,507.875 69.1719,507.625 68.9375,507.4531 C68.7656,507.3281 68.625,507.2969 68.1719,507.2969 L66.4531,507.2969 L66.4531,500.7813 Z " fill="#000000"/><text fill="#000000" font-family="sans-serif" font-size="12" font-style="italic" lengthAdjust="spacingAndGlyphs" textLength="31" x="79.5" y="508.1543">Piece</text><line style="stroke: #A80036; stroke-width: 1.5;" x1="51.5" x2="112.5" y1="520" y2="520"/><line style="stroke: #A80036; stroke-width: 1.5;" x1="51.5" x2="112.5" y1="528" y2="528"/><!--MD5=[13b006024b7757a689cfb8550a66919b]
class PieceAttaque--><rect codeLine="7" fill="#FEFECE" filter="url(#fqbl43bjx8ayx)" height="48" id="PieceAttaque" style="stroke: #A80036; stroke-width: 1.5;" width="110" x="167" y="596"/><ellipse cx="182" cy="612" fill="#ADD1B2" rx="11" ry="11" style="stroke: #A80036; stroke-width: 1.0;"/><path d="M184.3438,607.6719 C183.4063,607.2344 182.8125,607.0938 181.9375,607.0938 C179.3125,607.0938 177.3125,609.1719 177.3125,611.8906 L177.3125,613.0156 C177.3125,615.5938 179.4219,617.4844 182.3125,617.4844 C183.5313,617.4844 184.6875,617.1875 185.4375,616.6406 C186.0156,616.2344 186.3438,615.7813 186.3438,615.3906 C186.3438,614.9375 185.9531,614.5469 185.4844,614.5469 C185.2656,614.5469 185.0625,614.625 184.875,614.8125 C184.4219,615.2969 184.4219,615.2969 184.2344,615.3906 C183.8125,615.6563 183.125,615.7813 182.3594,615.7813 C180.3125,615.7813 179.0156,614.6875 179.0156,612.9844 L179.0156,611.8906 C179.0156,610.1094 180.2656,608.7969 182,608.7969 C182.5781,608.7969 183.1875,608.9531 183.6563,609.2031 C184.1406,609.4844 184.3125,609.7031 184.4063,610.1094 C184.4688,610.5156 184.5,610.6406 184.6406,610.7656 C184.7813,610.9063 185.0156,611.0156 185.2344,611.0156 C185.5,611.0156 185.7656,610.875 185.9375,610.6563 C186.0469,610.5 186.0781,610.3125 186.0781,609.8906 L186.0781,608.4688 C186.0781,608.0313 186.0625,607.9063 185.9688,607.75 C185.8125,607.4844 185.5313,607.3438 185.2344,607.3438 C184.9375,607.3438 184.7344,607.4375 184.5156,607.75 L184.3438,607.6719 Z " fill="#000000"/><text fill="#000000" font-family="sans-serif" font-size="12" lengthAdjust="spacingAndGlyphs" textLength="78" x="196" y="616.1543">PieceAttaque</text><line style="stroke: #A80036; stroke-width: 1.5;" x1="168" x2="276" y1="628" y2="628"/><line style="stroke: #A80036; stroke-width: 1.5;" x1="168" x2="276" y1="636" y2="636"/><!--MD5=[e362b10ac0e4432dd6557b6ae7a714de]
class PieceScore--><rect codeLine="9" fill="#FEFECE" filter="url(#fqbl43bjx8ayx)" height="48" id="PieceScore" style="stroke: #A80036; stroke-width: 1.5;" width="100" x="32" y="596"/><ellipse cx="47" cy="612" fill="#ADD1B2" rx="11" ry="11" style="stroke: #A80036; stroke-width: 1.0;"/><path d="M49.3438,607.6719 C48.4063,607.2344 47.8125,607.0938 46.9375,607.0938 C44.3125,607.0938 42.3125,609.1719 42.3125,611.8906 L42.3125,613.0156 C42.3125,615.5938 44.4219,617.4844 47.3125,617.4844 C48.5313,617.4844 49.6875,617.1875 50.4375,616.6406 C51.0156,616.2344 51.3438,615.7813 51.3438,615.3906 C51.3438,614.9375 50.9531,614.5469 50.4844,614.5469 C50.2656,614.5469 50.0625,614.625 49.875,614.8125 C49.4219,615.2969 49.4219,615.2969 49.2344,615.3906 C48.8125,615.6563 48.125,615.7813 47.3594,615.7813 C45.3125,615.7813 44.0156,614.6875 44.0156,612.9844 L44.0156,611.8906 C44.0156,610.1094 45.2656,608.7969 47,608.7969 C47.5781,608.7969 48.1875,608.9531 48.6563,609.2031 C49.1406,609.4844 49.3125,609.7031 49.4063,610.1094 C49.4688,610.5156 49.5,610.6406 49.6406,610.7656 C49.7813,610.9063 50.0156,611.0156 50.2344,611.0156 C50.5,611.0156 50.7656,610.875 50.9375,610.6563 C51.0469,610.5 51.0781,610.3125 51.0781,609.8906 L51.0781,608.4688 C51.0781,608.0313 51.0625,607.9063 50.9688,607.75 C50.8125,607.4844 50.5313,607.3438 50.2344,607.3438 C49.9375,607.3438 49.7344,607.4375 49.5156,607.75 L49.3438,607.6719 Z " fill="#000000"/><text fill="#000000" font-family="sans-serif" font-size="12" lengthAdjust="spacingAndGlyphs" textLength="68" x="61" y="616.1543">PieceScore</text><line style="stroke: #A80036; stroke-width: 1.5;" x1="33" x2="131" y1="628" y2="628"/><line style="stroke: #A80036; stroke-width: 1.5;" x1="33" x2="131" y1="636" y2="636"/><!--MD5=[f1a45077a80ed8733c43779119961b29]
class Pacman--><rect codeLine="11" fill="#FEFECE" filter="url(#fqbl43bjx8ayx)" height="48" id="Pacman" style="stroke: #A80036; stroke-width: 1.5;" width="77" x="280.5" y="380"/><ellipse cx="295.5" cy="396" fill="#ADD1B2" rx="11" ry="11" style="stroke: #A80036; stroke-width: 1.0;"/><path d="M297.8438,391.6719 C296.9063,391.2344 296.3125,391.0938 295.4375,391.0938 C292.8125,391.0938 290.8125,393.1719 290.8125,395.8906 L290.8125,397.0156 C290.8125,399.5938 292.9219,401.4844 295.8125,401.4844 C297.0313,401.4844 298.1875,401.1875 298.9375,400.6406 C299.5156,400.2344 299.8438,399.7813 299.8438,399.3906 C299.8438,398.9375 299.4531,398.5469 298.9844,398.5469 C298.7656,398.5469 298.5625,398.625 298.375,398.8125 C297.9219,399.2969 297.9219,399.2969 297.7344,399.3906 C297.3125,399.6563 296.625,399.7813 295.8594,399.7813 C293.8125,399.7813 292.5156,398.6875 292.5156,396.9844 L292.5156,395.8906 C292.5156,394.1094 293.7656,392.7969 295.5,392.7969 C296.0781,392.7969 296.6875,392.9531 297.1563,393.2031 C297.6406,393.4844 297.8125,393.7031 297.9063,394.1094 C297.9688,394.5156 298,394.6406 298.1406,394.7656 C298.2813,394.9063 298.5156,395.0156 298.7344,395.0156 C299,395.0156 299.2656,394.875 299.4375,394.6563 C299.5469,394.5 299.5781,394.3125 299.5781,393.8906 L299.5781,392.4688 C299.5781,392.0313 299.5625,391.9063 299.4688,391.75 C299.3125,391.4844 299.0313,391.3438 298.7344,391.3438 C298.4375,391.3438 298.2344,391.4375 298.0156,391.75 L297.8438,391.6719 Z " fill="#000000"/><text fill="#000000" font-family="sans-serif" font-size="12" lengthAdjust="spacingAndGlyphs" textLength="45" x="309.5" y="400.1543">Pacman</text><line style="stroke: #A80036; stroke-width: 1.5;" x1="281.5" x2="356.5" y1="412" y2="412"/><line style="stroke: #A80036; stroke-width: 1.5;" x1="281.5" x2="356.5" y1="420" y2="420"/><!--MD5=[7f9f6f2d8e92938121262dc4c5d80163]
class PacmanGame--><rect codeLine="13" fill="#FEFECE" filter="url(#fqbl43bjx8ayx)" height="48" id="PacmanGame" style="stroke: #A80036; stroke-width: 1.5;" width="112" x="149" y="149"/><ellipse cx="164" cy="165" fill="#ADD1B2" rx="11" ry="11" style="stroke: #A80036; stroke-width: 1.0;"/><path d="M166.3438,160.6719 C165.4063,160.2344 164.8125,160.0938 163.9375,160.0938 C161.3125,160.0938 159.3125,162.1719 159.3125,164.8906 L159.3125,166.0156 C159.3125,168.5938 161.4219,170.4844 164.3125,170.4844 C165.5313,170.4844 166.6875,170.1875 167.4375,169.6406 C168.0156,169.2344 168.3438,168.7813 168.3438,168.3906 C168.3438,167.9375 167.9531,167.5469 167.4844,167.5469 C167.2656,167.5469 167.0625,167.625 166.875,167.8125 C166.4219,168.2969 166.4219,168.2969 166.2344,168.3906 C165.8125,168.6563 165.125,168.7813 164.3594,168.7813 C162.3125,168.7813 161.0156,167.6875 161.0156,165.9844 L161.0156,164.8906 C161.0156,163.1094 162.2656,161.7969 164,161.7969 C164.5781,161.7969 165.1875,161.9531 165.6563,162.2031 C166.1406,162.4844 166.3125,162.7031 166.4063,163.1094 C166.4688,163.5156 166.5,163.6406 166.6406,163.7656 C166.7813,163.9063 167.0156,164.0156 167.2344,164.0156 C167.5,164.0156 167.7656,163.875 167.9375,163.6563 C168.0469,163.5 168.0781,163.3125 168.0781,162.8906 L168.0781,161.4688 C168.0781,161.0313 168.0625,160.9063 167.9688,160.75 C167.8125,160.4844 167.5313,160.3438 167.2344,160.3438 C166.9375,160.3438 166.7344,160.4375 166.5156,160.75 L166.3438,160.6719 Z " fill="#000000"/><text fill="#000000" font-family="sans-serif" font-size="12" lengthAdjust="spacingAndGlyphs" textLength="80" x="178" y="169.1543">PacmanGame</text><line style="stroke: #A80036; stroke-width: 1.5;" x1="150" x2="260" y1="181" y2="181"/><line style="stroke: #A80036; stroke-width: 1.5;" x1="150" x2="260" y1="189" y2="189"/><!--MD5=[b6dcce5e5ef3c84b0b048d11301373dd]
class Game--><rect codeLine="37" fill="#FEFECE" filter="url(#fqbl43bjx8ayx)" height="48" id="Game" style="stroke: #A80036; stroke-width: 1.5;" width="67" x="268.5" y="41"/><ellipse cx="283.5" cy="57" fill="#B4A7E5" rx="11" ry="11" style="stroke: #A80036; stroke-width: 1.0;"/><path d="M284.4531,53.7813 L286.1719,53.7813 C286.5625,53.7813 286.75,53.75 286.875,53.6719 C287.1406,53.5156 287.2813,53.2344 287.2813,52.9375 C287.2813,52.6719 287.1719,52.4063 286.9375,52.2344 C286.7656,52.125 286.625,52.0938 286.1719,52.0938 L281.0313,52.0938 C280.5938,52.0938 280.4688,52.1094 280.3125,52.2031 C280.0625,52.3594 279.9063,52.6563 279.9063,52.9375 C279.9063,53.2188 280.0469,53.4688 280.2656,53.6406 C280.4219,53.75 280.6094,53.7813 281.0313,53.7813 L282.75,53.7813 L282.75,60.2969 L281.0313,60.2969 C280.5938,60.2969 280.4688,60.3125 280.3125,60.4219 C280.0625,60.5781 279.9063,60.8594 279.9063,61.1563 C279.9063,61.4063 280.0469,61.6719 280.2656,61.8281 C280.4219,61.9531 280.625,62 281.0313,62 L286.1719,62 C286.9219,62 287.2813,61.7188 287.2813,61.1563 C287.2813,60.875 287.1719,60.625 286.9375,60.4531 C286.7656,60.3281 286.625,60.2969 286.1719,60.2969 L284.4531,60.2969 L284.4531,53.7813 Z " fill="#000000"/><text fill="#000000" font-family="sans-serif" font-size="12" font-style="italic" lengthAdjust="spacingAndGlyphs" textLength="35" x="297.5" y="61.1543">Game</text><line style="stroke: #A80036; stroke-width: 1.5;" x1="269.5" x2="334.5" y1="73" y2="73"/><line style="stroke: #A80036; stroke-width: 1.5;" x1="269.5" x2="334.5" y1="81" y2="81"/><!--MD5=[c45abaa87488010b8b38d7cb3b3cc46f]
class Labyrinthe--><rect codeLine="15" fill="#FEFECE" filter="url(#fqbl43bjx8ayx)" height="48" id="Labyrinthe" style="stroke: #A80036; stroke-width: 1.5;" width="94" x="32" y="380"/><ellipse cx="47" cy="396" fill="#ADD1B2" rx="11" ry="11" style="stroke: #A80036; stroke-width: 1.0;"/><path d="M49.3438,391.6719 C48.4063,391.2344 47.8125,391.0938 46.9375,391.0938 C44.3125,391.0938 42.3125,393.1719 42.3125,395.8906 L42.3125,397.0156 C42.3125,399.5938 44.4219,401.4844 47.3125,401.4844 C48.5313,401.4844 49.6875,401.1875 50.4375,400.6406 C51.0156,400.2344 51.3438,399.7813 51.3438,399.3906 C51.3438,398.9375 50.9531,398.5469 50.4844,398.5469 C50.2656,398.5469 50.0625,398.625 49.875,398.8125 C49.4219,399.2969 49.4219,399.2969 49.2344,399.3906 C48.8125,399.6563 48.125,399.7813 47.3594,399.7813 C45.3125,399.7813 44.0156,398.6875 44.0156,396.9844 L44.0156,395.8906 C44.0156,394.1094 45.2656,392.7969 47,392.7969 C47.5781,392.7969 48.1875,392.9531 48.6563,393.2031 C49.1406,393.4844 49.3125,393.7031 49.4063,394.1094 C49.4688,394.5156 49.5,394.6406 49.6406,394.7656 C49.7813,394.9063 50.0156,395.0156 50.2344,395.0156 C50.5,395.0156 50.7656,394.875 50.9375,394.6563 C51.0469,394.5 51.0781,394.3125 51.0781,393.8906 L51.0781,392.4688 C51.0781,392.0313 51.0625,391.9063 50.9688,391.75 C50.8125,391.4844 50.5313,391.3438 50.2344,391.3438 C49.9375,391.3438 49.7344,391.4375 49.5156,391.75 L49.3438,391.6719 Z " fill="#000000"/><text fill="#000000" font-family="sans-serif" font-size="12" lengthAdjust="spacingAndGlyphs" textLength="62" x="61" y="400.1543">Labyrinthe</text><line style="stroke: #A80036; stroke-width: 1.5;" x1="33" x2="125" y1="412" y2="412"/><line style="stroke: #A80036; stroke-width: 1.5;" x1="33" x2="125" y1="420" y2="420"/><!--MD5=[d80f71a20ad5bc844207fdd4e8cd5494]
class FileReader--><rect codeLine="17" fill="#FEFECE" filter="url(#fqbl43bjx8ayx)" height="48" id="FileReader" style="stroke: #A80036; stroke-width: 1.5;" width="96" x="80" y="41"/><ellipse cx="95" cy="57" fill="#ADD1B2" rx="11" ry="11" style="stroke: #A80036; stroke-width: 1.0;"/><path d="M97.3438,52.6719 C96.4063,52.2344 95.8125,52.0938 94.9375,52.0938 C92.3125,52.0938 90.3125,54.1719 90.3125,56.8906 L90.3125,58.0156 C90.3125,60.5938 92.4219,62.4844 95.3125,62.4844 C96.5313,62.4844 97.6875,62.1875 98.4375,61.6406 C99.0156,61.2344 99.3438,60.7813 99.3438,60.3906 C99.3438,59.9375 98.9531,59.5469 98.4844,59.5469 C98.2656,59.5469 98.0625,59.625 97.875,59.8125 C97.4219,60.2969 97.4219,60.2969 97.2344,60.3906 C96.8125,60.6563 96.125,60.7813 95.3594,60.7813 C93.3125,60.7813 92.0156,59.6875 92.0156,57.9844 L92.0156,56.8906 C92.0156,55.1094 93.2656,53.7969 95,53.7969 C95.5781,53.7969 96.1875,53.9531 96.6563,54.2031 C97.1406,54.4844 97.3125,54.7031 97.4063,55.1094 C97.4688,55.5156 97.5,55.6406 97.6406,55.7656 C97.7813,55.9063 98.0156,56.0156 98.2344,56.0156 C98.5,56.0156 98.7656,55.875 98.9375,55.6563 C99.0469,55.5 99.0781,55.3125 99.0781,54.8906 L99.0781,53.4688 C99.0781,53.0313 99.0625,52.9063 98.9688,52.75 C98.8125,52.4844 98.5313,52.3438 98.2344,52.3438 C97.9375,52.3438 97.7344,52.4375 97.5156,52.75 L97.3438,52.6719 Z " fill="#000000"/><text fill="#000000" font-family="sans-serif" font-size="12" lengthAdjust="spacingAndGlyphs" textLength="64" x="109" y="61.1543">FileReader</text><line style="stroke: #A80036; stroke-width: 1.5;" x1="81" x2="175" y1="73" y2="73"/><line style="stroke: #A80036; stroke-width: 1.5;" x1="81" x2="175" y1="81" y2="81"/><!--MD5=[534746343535a0e90169a204d0c759bc]
class Monde--><rect codeLine="19" fill="#FEFECE" filter="url(#fqbl43bjx8ayx)" height="48" id="Monde" style="stroke: #A80036; stroke-width: 1.5;" width="73" x="147.5" y="272"/><ellipse cx="162.5" cy="288" fill="#ADD1B2" rx="11" ry="11" style="stroke: #A80036; stroke-width: 1.0;"/><path d="M164.8438,283.6719 C163.9063,283.2344 163.3125,283.0938 162.4375,283.0938 C159.8125,283.0938 157.8125,285.1719 157.8125,287.8906 L157.8125,289.0156 C157.8125,291.5938 159.9219,293.4844 162.8125,293.4844 C164.0313,293.4844 165.1875,293.1875 165.9375,292.6406 C166.5156,292.2344 166.8438,291.7813 166.8438,291.3906 C166.8438,290.9375 166.4531,290.5469 165.9844,290.5469 C165.7656,290.5469 165.5625,290.625 165.375,290.8125 C164.9219,291.2969 164.9219,291.2969 164.7344,291.3906 C164.3125,291.6563 163.625,291.7813 162.8594,291.7813 C160.8125,291.7813 159.5156,290.6875 159.5156,288.9844 L159.5156,287.8906 C159.5156,286.1094 160.7656,284.7969 162.5,284.7969 C163.0781,284.7969 163.6875,284.9531 164.1563,285.2031 C164.6406,285.4844 164.8125,285.7031 164.9063,286.1094 C164.9688,286.5156 165,286.6406 165.1406,286.7656 C165.2813,286.9063 165.5156,287.0156 165.7344,287.0156 C166,287.0156 166.2656,286.875 166.4375,286.6563 C166.5469,286.5 166.5781,286.3125 166.5781,285.8906 L166.5781,284.4688 C166.5781,284.0313 166.5625,283.9063 166.4688,283.75 C166.3125,283.4844 166.0313,283.3438 165.7344,283.3438 C165.4375,283.3438 165.2344,283.4375 165.0156,283.75 L164.8438,283.6719 Z " fill="#000000"/><text fill="#000000" font-family="sans-serif" font-size="12" lengthAdjust="spacingAndGlyphs" textLength="41" x="176.5" y="292.1543">Monde</text><line style="stroke: #A80036; stroke-width: 1.5;" x1="148.5" x2="219.5" y1="304" y2="304"/><line style="stroke: #A80036; stroke-width: 1.5;" x1="148.5" x2="219.5" y1="312" y2="312"/><!--MD5=[0faf4e8a4a3beb0fd3e861bd4feff639]
class Fantome--><rect codeLine="21" fill="#FEFECE" filter="url(#fqbl43bjx8ayx)" height="48" id="Fantome" style="stroke: #A80036; stroke-width: 1.5;" width="84" x="161" y="380"/><ellipse cx="176" cy="396" fill="#ADD1B2" rx="11" ry="11" style="stroke: #A80036; stroke-width: 1.0;"/><path d="M178.3438,391.6719 C177.4063,391.2344 176.8125,391.0938 175.9375,391.0938 C173.3125,391.0938 171.3125,393.1719 171.3125,395.8906 L171.3125,397.0156 C171.3125,399.5938 173.4219,401.4844 176.3125,401.4844 C177.5313,401.4844 178.6875,401.1875 179.4375,400.6406 C180.0156,400.2344 180.3438,399.7813 180.3438,399.3906 C180.3438,398.9375 179.9531,398.5469 179.4844,398.5469 C179.2656,398.5469 179.0625,398.625 178.875,398.8125 C178.4219,399.2969 178.4219,399.2969 178.2344,399.3906 C177.8125,399.6563 177.125,399.7813 176.3594,399.7813 C174.3125,399.7813 173.0156,398.6875 173.0156,396.9844 L173.0156,395.8906 C173.0156,394.1094 174.2656,392.7969 176,392.7969 C176.5781,392.7969 177.1875,392.9531 177.6563,393.2031 C178.1406,393.4844 178.3125,393.7031 178.4063,394.1094 C178.4688,394.5156 178.5,394.6406 178.6406,394.7656 C178.7813,394.9063 179.0156,395.0156 179.2344,395.0156 C179.5,395.0156 179.7656,394.875 179.9375,394.6563 C180.0469,394.5 180.0781,394.3125 180.0781,393.8906 L180.0781,392.4688 C180.0781,392.0313 180.0625,391.9063 179.9688,391.75 C179.8125,391.4844 179.5313,391.3438 179.2344,391.3438 C178.9375,391.3438 178.7344,391.4375 178.5156,391.75 L178.3438,391.6719 Z " fill="#000000"/><text fill="#000000" font-family="sans-serif" font-size="12" lengthAdjust="spacingAndGlyphs" textLength="52" x="190" y="400.1543">Fantome</text><line style="stroke: #A80036; stroke-width: 1.5;" x1="162" x2="244" y1="412" y2="412"/><line style="stroke: #A80036; stroke-width: 1.5;" x1="162" x2="244" y1="420" y2="420"/><!--MD5=[0a6053ba9badb57dfd155534c16c63a7]
class PlateauException--><rect codeLine="28" fill="#FEFECE" filter="url(#fqbl43bjx8ayx)" height="48" id="PlateauException" style="stroke: #A80036; stroke-width: 1.5;" width="133" x="1016.5" y="149"/><ellipse cx="1031.5" cy="165" fill="#ADD1B2" rx="11" ry="11" style="stroke: #A80036; stroke-width: 1.0;"/><path d="M1033.8438,160.6719 C1032.9063,160.2344 1032.3125,160.0938 1031.4375,160.0938 C1028.8125,160.0938 1026.8125,162.1719 1026.8125,164.8906 L1026.8125,166.0156 C1026.8125,168.5938 1028.9219,170.4844 1031.8125,170.4844 C1033.0313,170.4844 1034.1875,170.1875 1034.9375,169.6406 C1035.5156,169.2344 1035.8438,168.7813 1035.8438,168.3906 C1035.8438,167.9375 1035.4531,167.5469 1034.9844,167.5469 C1034.7656,167.5469 1034.5625,167.625 1034.375,167.8125 C1033.9219,168.2969 1033.9219,168.2969 1033.7344,168.3906 C1033.3125,168.6563 1032.625,168.7813 1031.8594,168.7813 C1029.8125,168.7813 1028.5156,167.6875 1028.5156,165.9844 L1028.5156,164.8906 C1028.5156,163.1094 1029.7656,161.7969 1031.5,161.7969 C1032.0781,161.7969 1032.6875,161.9531 1033.1563,162.2031 C1033.6406,162.4844 1033.8125,162.7031 1033.9063,163.1094 C1033.9688,163.5156 1034,163.6406 1034.1406,163.7656 C1034.2813,163.9063 1034.5156,164.0156 1034.7344,164.0156 C1035,164.0156 1035.2656,163.875 1035.4375,163.6563 C1035.5469,163.5 1035.5781,163.3125 1035.5781,162.8906 L1035.5781,161.4688 C1035.5781,161.0313 1035.5625,160.9063 1035.4688,160.75 C1035.3125,160.4844 1035.0313,160.3438 1034.7344,160.3438 C1034.4375,160.3438 1034.2344,160.4375 1034.0156,160.75 L1033.8438,160.6719 Z " fill="#000000"/><text fill="#000000" font-family="sans-serif" font-size="12" lengthAdjust="spacingAndGlyphs" textLength="101" x="1045.5" y="169.1543">PlateauException</text><line style="stroke: #A80036; stroke-width: 1.5;" x1="1017.5" x2="1148.5" y1="181" y2="181"/><line style="stroke: #A80036; stroke-width: 1.5;" x1="1017.5" x2="1148.5" y1="189" y2="189"/><!--MD5=[5c6c7d52e42032554528404b62c1d271]
class RuntimeException--><rect fill="#FEFECE" filter="url(#fqbl43bjx8ayx)" height="48" id="RuntimeException" style="stroke: #A80036; stroke-width: 1.5;" width="138" x="1014" y="41"/><ellipse cx="1029" cy="57" fill="#ADD1B2" rx="11" ry="11" style="stroke: #A80036; stroke-width: 1.0;"/><path d="M1031.3438,52.6719 C1030.4063,52.2344 1029.8125,52.0938 1028.9375,52.0938 C1026.3125,52.0938 1024.3125,54.1719 1024.3125,56.8906 L1024.3125,58.0156 C1024.3125,60.5938 1026.4219,62.4844 1029.3125,62.4844 C1030.5313,62.4844 1031.6875,62.1875 1032.4375,61.6406 C1033.0156,61.2344 1033.3438,60.7813 1033.3438,60.3906 C1033.3438,59.9375 1032.9531,59.5469 1032.4844,59.5469 C1032.2656,59.5469 1032.0625,59.625 1031.875,59.8125 C1031.4219,60.2969 1031.4219,60.2969 1031.2344,60.3906 C1030.8125,60.6563 1030.125,60.7813 1029.3594,60.7813 C1027.3125,60.7813 1026.0156,59.6875 1026.0156,57.9844 L1026.0156,56.8906 C1026.0156,55.1094 1027.2656,53.7969 1029,53.7969 C1029.5781,53.7969 1030.1875,53.9531 1030.6563,54.2031 C1031.1406,54.4844 1031.3125,54.7031 1031.4063,55.1094 C1031.4688,55.5156 1031.5,55.6406 1031.6406,55.7656 C1031.7813,55.9063 1032.0156,56.0156 1032.2344,56.0156 C1032.5,56.0156 1032.7656,55.875 1032.9375,55.6563 C1033.0469,55.5 1033.0781,55.3125 1033.0781,54.8906 L1033.0781,53.4688 C1033.0781,53.0313 1033.0625,52.9063 1032.9688,52.75 C1032.8125,52.4844 1032.5313,52.3438 1032.2344,52.3438 C1031.9375,52.3438 1031.7344,52.4375 1031.5156,52.75 L1031.3438,52.6719 Z " fill="#000000"/><text fill="#000000" font-family="sans-serif" font-size="12" lengthAdjust="spacingAndGlyphs" textLength="106" x="1043" y="61.1543">RuntimeException</text><line style="stroke: #A80036; stroke-width: 1.5;" x1="1015" x2="1151" y1="73" y2="73"/><line style="stroke: #A80036; stroke-width: 1.5;" x1="1015" x2="1151" y1="81" y2="81"/><!--MD5=[2e5679976a773afae2525507978dad9d]
class Cmd--><rect codeLine="35" fill="#FEFECE" filter="url(#fqbl43bjx8ayx)" height="48" id="Cmd" style="stroke: #A80036; stroke-width: 1.5;" width="59" x="601.5" y="272"/><ellipse cx="616.5" cy="288" fill="#EB937F" rx="11" ry="11" style="stroke: #A80036; stroke-width: 1.0;"/><path d="M615.2969,288.875 L616.75,288.875 L616.75,288.9844 C616.75,289.3906 616.7813,289.5469 616.8594,289.7031 C617.0156,289.9531 617.2969,290.1094 617.5938,290.1094 C617.8438,290.1094 618.1094,289.9688 618.2656,289.75 C618.3906,289.5938 618.4219,289.4375 618.4219,288.9844 L618.4219,287.0625 C618.4219,286.9063 618.4219,286.8594 618.4063,286.7031 C618.3438,286.2344 618.0313,285.9219 617.5781,285.9219 C617.3281,285.9219 617.0625,286.0625 616.8906,286.2813 C616.7813,286.4531 616.75,286.6094 616.75,287.0625 L616.75,287.1875 L615.2969,287.1875 L615.2969,284.7813 L619.2813,284.7813 L619.2813,285.6406 C619.2813,286.0469 619.3125,286.2188 619.3906,286.375 C619.5625,286.625 619.8438,286.7813 620.125,286.7813 C620.3906,286.7813 620.6563,286.6406 620.8281,286.4219 C620.9375,286.25 620.9688,286.1094 620.9688,285.6406 L620.9688,283.0938 L613.3438,283.0938 C612.9063,283.0938 612.7813,283.1094 612.625,283.2031 C612.375,283.3594 612.2188,283.6563 612.2188,283.9375 C612.2188,284.2188 612.3594,284.4688 612.5781,284.6406 C612.7344,284.75 612.9219,284.7813 613.3438,284.7813 L613.5938,284.7813 L613.5938,291.2969 L613.3438,291.2969 C612.9375,291.2969 612.7813,291.3125 612.625,291.4219 C612.375,291.5938 612.2188,291.8594 612.2188,292.1563 C612.2188,292.4219 612.3594,292.6719 612.5781,292.8281 C612.7188,292.9531 612.9531,293 613.3438,293 L621.3438,293 L621.3438,290.4219 C621.3438,289.9844 621.3125,289.8438 621.2344,289.6875 C621.0625,289.4375 620.7813,289.2813 620.5,289.2813 C620.2344,289.2813 619.9688,289.3906 619.7969,289.6406 C619.6875,289.7969 619.6563,289.9375 619.6563,290.4219 L619.6563,291.2969 L615.2969,291.2969 L615.2969,288.875 Z " fill="#000000"/><text fill="#000000" font-family="sans-serif" font-size="12" lengthAdjust="spacingAndGlyphs" textLength="27" x="630.5" y="292.1543">Cmd</text><line style="stroke: #A80036; stroke-width: 1.5;" x1="602.5" x2="659.5" y1="304" y2="304"/><line style="stroke: #A80036; stroke-width: 1.5;" x1="602.5" x2="659.5" y1="312" y2="312"/><!--MD5=[7cc6ce3da43ef94cad7d75512e2834ff]
class GameEngineGraphical--><rect codeLine="39" fill="#FEFECE" filter="url(#fqbl43bjx8ayx)" height="48" id="GameEngineGraphical" style="stroke: #A80036; stroke-width: 1.5;" width="163" x="1202.5" y="272"/><ellipse cx="1217.5" cy="288" fill="#ADD1B2" rx="11" ry="11" style="stroke: #A80036; stroke-width: 1.0;"/><path d="M1219.8438,283.6719 C1218.9063,283.2344 1218.3125,283.0938 1217.4375,283.0938 C1214.8125,283.0938 1212.8125,285.1719 1212.8125,287.8906 L1212.8125,289.0156 C1212.8125,291.5938 1214.9219,293.4844 1217.8125,293.4844 C1219.0313,293.4844 1220.1875,293.1875 1220.9375,292.6406 C1221.5156,292.2344 1221.8438,291.7813 1221.8438,291.3906 C1221.8438,290.9375 1221.4531,290.5469 1220.9844,290.5469 C1220.7656,290.5469 1220.5625,290.625 1220.375,290.8125 C1219.9219,291.2969 1219.9219,291.2969 1219.7344,291.3906 C1219.3125,291.6563 1218.625,291.7813 1217.8594,291.7813 C1215.8125,291.7813 1214.5156,290.6875 1214.5156,288.9844 L1214.5156,287.8906 C1214.5156,286.1094 1215.7656,284.7969 1217.5,284.7969 C1218.0781,284.7969 1218.6875,284.9531 1219.1563,285.2031 C1219.6406,285.4844 1219.8125,285.7031 1219.9063,286.1094 C1219.9688,286.5156 1220,286.6406 1220.1406,286.7656 C1220.2813,286.9063 1220.5156,287.0156 1220.7344,287.0156 C1221,287.0156 1221.2656,286.875 1221.4375,286.6563 C1221.5469,286.5 1221.5781,286.3125 1221.5781,285.8906 L1221.5781,284.4688 C1221.5781,284.0313 1221.5625,283.9063 1221.4688,283.75 C1221.3125,283.4844 1221.0313,283.3438 1220.7344,283.3438 C1220.4375,283.3438 1220.2344,283.4375 1220.0156,283.75 L1219.8438,283.6719 Z " fill="#000000"/><text fill="#000000" font-family="sans-serif" font-size="12" lengthAdjust="spacingAndGlyphs" textLength="131" x="1231.5" y="292.1543">GameEngineGraphical</text><line style="stroke: #A80036; stroke-width: 1.5;" x1="1203.5" x2="1364.5" y1="304" y2="304"/><line style="stroke: #A80036; stroke-width: 1.5;" x1="1203.5" x2="1364.5" y1="312" y2="312"/><!--MD5=[3ad2a79a7d7d539cf057dae47f26badf]
class DrawingPanel--><rect codeLine="43" fill="#FEFECE" filter="url(#fqbl43bjx8ayx)" height="48" id="DrawingPanel" style="stroke: #A80036; stroke-width: 1.5;" width="112" x="1604" y="488"/><ellipse cx="1619" cy="504" fill="#ADD1B2" rx="11" ry="11" style="stroke: #A80036; stroke-width: 1.0;"/><path d="M1621.3438,499.6719 C1620.4063,499.2344 1619.8125,499.0938 1618.9375,499.0938 C1616.3125,499.0938 1614.3125,501.1719 1614.3125,503.8906 L1614.3125,505.0156 C1614.3125,507.5938 1616.4219,509.4844 1619.3125,509.4844 C1620.5313,509.4844 1621.6875,509.1875 1622.4375,508.6406 C1623.0156,508.2344 1623.3438,507.7813 1623.3438,507.3906 C1623.3438,506.9375 1622.9531,506.5469 1622.4844,506.5469 C1622.2656,506.5469 1622.0625,506.625 1621.875,506.8125 C1621.4219,507.2969 1621.4219,507.2969 1621.2344,507.3906 C1620.8125,507.6563 1620.125,507.7813 1619.3594,507.7813 C1617.3125,507.7813 1616.0156,506.6875 1616.0156,504.9844 L1616.0156,503.8906 C1616.0156,502.1094 1617.2656,500.7969 1619,500.7969 C1619.5781,500.7969 1620.1875,500.9531 1620.6563,501.2031 C1621.1406,501.4844 1621.3125,501.7031 1621.4063,502.1094 C1621.4688,502.5156 1621.5,502.6406 1621.6406,502.7656 C1621.7813,502.9063 1622.0156,503.0156 1622.2344,503.0156 C1622.5,503.0156 1622.7656,502.875 1622.9375,502.6563 C1623.0469,502.5 1623.0781,502.3125 1623.0781,501.8906 L1623.0781,500.4688 C1623.0781,500.0313 1623.0625,499.9063 1622.9688,499.75 C1622.8125,499.4844 1622.5313,499.3438 1622.2344,499.3438 C1621.9375,499.3438 1621.7344,499.4375 1621.5156,499.75 L1621.3438,499.6719 Z " fill="#000000"/><text fill="#000000" font-family="sans-serif" font-size="12" lengthAdjust="spacingAndGlyphs" textLength="80" x="1633" y="508.1543">DrawingPanel</text><line style="stroke: #A80036; stroke-width: 1.5;" x1="1605" x2="1715" y1="520" y2="520"/><line style="stroke: #A80036; stroke-width: 1.5;" x1="1605" x2="1715" y1="528" y2="528"/><!--MD5=[36afe292eb27441132c327893668631d]
class JPanel--><rect fill="#FEFECE" filter="url(#fqbl43bjx8ayx)" height="48" id="JPanel" style="stroke: #A80036; stroke-width: 1.5;" width="67" x="1648.5" y="380"/><ellipse cx="1663.5" cy="396" fill="#ADD1B2" rx="11" ry="11" style="stroke: #A80036; stroke-width: 1.0;"/><path d="M1665.8438,391.6719 C1664.9063,391.2344 1664.3125,391.0938 1663.4375,391.0938 C1660.8125,391.0938 1658.8125,393.1719 1658.8125,395.8906 L1658.8125,397.0156 C1658.8125,399.5938 1660.9219,401.4844 1663.8125,401.4844 C1665.0313,401.4844 1666.1875,401.1875 1666.9375,400.6406 C1667.5156,400.2344 1667.8438,399.7813 1667.8438,399.3906 C1667.8438,398.9375 1667.4531,398.5469 1666.9844,398.5469 C1666.7656,398.5469 1666.5625,398.625 1666.375,398.8125 C1665.9219,399.2969 1665.9219,399.2969 1665.7344,399.3906 C1665.3125,399.6563 1664.625,399.7813 1663.8594,399.7813 C1661.8125,399.7813 1660.5156,398.6875 1660.5156,396.9844 L1660.5156,395.8906 C1660.5156,394.1094 1661.7656,392.7969 1663.5,392.7969 C1664.0781,392.7969 1664.6875,392.9531 1665.1563,393.2031 C1665.6406,393.4844 1665.8125,393.7031 1665.9063,394.1094 C1665.9688,394.5156 1666,394.6406 1666.1406,394.7656 C1666.2813,394.9063 1666.5156,395.0156 1666.7344,395.0156 C1667,395.0156 1667.2656,394.875 1667.4375,394.6563 C1667.5469,394.5 1667.5781,394.3125 1667.5781,393.8906 L1667.5781,392.4688 C1667.5781,392.0313 1667.5625,391.9063 1667.4688,391.75 C1667.3125,391.4844 1667.0313,391.3438 1666.7344,391.3438 C1666.4375,391.3438 1666.2344,391.4375 1666.0156,391.75 L1665.8438,391.6719 Z " fill="#000000"/><text fill="#000000" font-family="sans-serif" font-size="12" lengthAdjust="spacingAndGlyphs" textLength="35" x="1677.5" y="400.1543">JPanel</text><line style="stroke: #A80036; stroke-width: 1.5;" x1="1649.5" x2="1714.5" y1="412" y2="412"/><line style="stroke: #A80036; stroke-width: 1.5;" x1="1649.5" x2="1714.5" y1="420" y2="420"/><!--MD5=[d7976c3e31f2093d0743d92749b86f63]
class GraphicalInterface--><rect codeLine="45" fill="#FEFECE" filter="url(#fqbl43bjx8ayx)" height="48" id="GraphicalInterface" style="stroke: #A80036; stroke-width: 1.5;" width="141" x="1472.5" y="380"/><ellipse cx="1487.5" cy="396" fill="#ADD1B2" rx="11" ry="11" style="stroke: #A80036; stroke-width: 1.0;"/><path d="M1489.8438,391.6719 C1488.9063,391.2344 1488.3125,391.0938 1487.4375,391.0938 C1484.8125,391.0938 1482.8125,393.1719 1482.8125,395.8906 L1482.8125,397.0156 C1482.8125,399.5938 1484.9219,401.4844 1487.8125,401.4844 C1489.0313,401.4844 1490.1875,401.1875 1490.9375,400.6406 C1491.5156,400.2344 1491.8438,399.7813 1491.8438,399.3906 C1491.8438,398.9375 1491.4531,398.5469 1490.9844,398.5469 C1490.7656,398.5469 1490.5625,398.625 1490.375,398.8125 C1489.9219,399.2969 1489.9219,399.2969 1489.7344,399.3906 C1489.3125,399.6563 1488.625,399.7813 1487.8594,399.7813 C1485.8125,399.7813 1484.5156,398.6875 1484.5156,396.9844 L1484.5156,395.8906 C1484.5156,394.1094 1485.7656,392.7969 1487.5,392.7969 C1488.0781,392.7969 1488.6875,392.9531 1489.1563,393.2031 C1489.6406,393.4844 1489.8125,393.7031 1489.9063,394.1094 C1489.9688,394.5156 1490,394.6406 1490.1406,394.7656 C1490.2813,394.9063 1490.5156,395.0156 1490.7344,395.0156 C1491,395.0156 1491.2656,394.875 1491.4375,394.6563 C1491.5469,394.5 1491.5781,394.3125 1491.5781,393.8906 L1491.5781,392.4688 C1491.5781,392.0313 1491.5625,391.9063 1491.4688,391.75 C1491.3125,391.4844 1491.0313,391.3438 1490.7344,391.3438 C1490.4375,391.3438 1490.2344,391.4375 1490.0156,391.75 L1489.8438,391.6719 Z " fill="#000000"/><text fill="#000000" font-family="sans-serif" font-size="12" lengthAdjust="spacingAndGlyphs" textLength="109" x="1501.5" y="400.1543">GraphicalInterface</text><line style="stroke: #A80036; stroke-width: 1.5;" x1="1473.5" x2="1612.5" y1="412" y2="412"/><line style="stroke: #A80036; stroke-width: 1.5;" x1="1473.5" x2="1612.5" y1="420" y2="420"/><!--MD5=[6334a9df84847b1e3cc0f4b3bb7faca9]
class GamePainter--><rect codeLine="47" fill="#FEFECE" filter="url(#fqbl43bjx8ayx)" height="48" id="GamePainter" style="stroke: #A80036; stroke-width: 1.5;" width="109" x="1605.5" y="596"/><ellipse cx="1620.5" cy="612" fill="#B4A7E5" rx="11" ry="11" style="stroke: #A80036; stroke-width: 1.0;"/><path d="M1621.4531,608.7813 L1623.1719,608.7813 C1623.5625,608.7813 1623.75,608.75 1623.875,608.6719 C1624.1406,608.5156 1624.2813,608.2344 1624.2813,607.9375 C1624.2813,607.6719 1624.1719,607.4063 1623.9375,607.2344 C1623.7656,607.125 1623.625,607.0938 1623.1719,607.0938 L1618.0313,607.0938 C1617.5938,607.0938 1617.4688,607.1094 1617.3125,607.2031 C1617.0625,607.3594 1616.9063,607.6563 1616.9063,607.9375 C1616.9063,608.2188 1617.0469,608.4688 1617.2656,608.6406 C1617.4219,608.75 1617.6094,608.7813 1618.0313,608.7813 L1619.75,608.7813 L1619.75,615.2969 L1618.0313,615.2969 C1617.5938,615.2969 1617.4688,615.3125 1617.3125,615.4219 C1617.0625,615.5781 1616.9063,615.8594 1616.9063,616.1563 C1616.9063,616.4063 1617.0469,616.6719 1617.2656,616.8281 C1617.4219,616.9531 1617.625,617 1618.0313,617 L1623.1719,617 C1623.9219,617 1624.2813,616.7188 1624.2813,616.1563 C1624.2813,615.875 1624.1719,615.625 1623.9375,615.4531 C1623.7656,615.3281 1623.625,615.2969 1623.1719,615.2969 L1621.4531,615.2969 L1621.4531,608.7813 Z " fill="#000000"/><text fill="#000000" font-family="sans-serif" font-size="12" font-style="italic" lengthAdjust="spacingAndGlyphs" textLength="77" x="1634.5" y="616.1543">GamePainter</text><line style="stroke: #A80036; stroke-width: 1.5;" x1="1606.5" x2="1713.5" y1="628" y2="628"/><line style="stroke: #A80036; stroke-width: 1.5;" x1="1606.5" x2="1713.5" y1="636" y2="636"/><!--MD5=[0ebb1e4172d95877344b1d122ba82f65]
class MenuUi--><rect codeLine="49" fill="#FEFECE" filter="url(#fqbl43bjx8ayx)" height="48" id="MenuUi" style="stroke: #A80036; stroke-width: 1.5;" width="77" x="1360.5" y="380"/><ellipse cx="1375.5" cy="396" fill="#B4A7E5" rx="11" ry="11" style="stroke: #A80036; stroke-width: 1.0;"/><path d="M1376.4531,392.7813 L1378.1719,392.7813 C1378.5625,392.7813 1378.75,392.75 1378.875,392.6719 C1379.1406,392.5156 1379.2813,392.2344 1379.2813,391.9375 C1379.2813,391.6719 1379.1719,391.4063 1378.9375,391.2344 C1378.7656,391.125 1378.625,391.0938 1378.1719,391.0938 L1373.0313,391.0938 C1372.5938,391.0938 1372.4688,391.1094 1372.3125,391.2031 C1372.0625,391.3594 1371.9063,391.6563 1371.9063,391.9375 C1371.9063,392.2188 1372.0469,392.4688 1372.2656,392.6406 C1372.4219,392.75 1372.6094,392.7813 1373.0313,392.7813 L1374.75,392.7813 L1374.75,399.2969 L1373.0313,399.2969 C1372.5938,399.2969 1372.4688,399.3125 1372.3125,399.4219 C1372.0625,399.5781 1371.9063,399.8594 1371.9063,400.1563 C1371.9063,400.4063 1372.0469,400.6719 1372.2656,400.8281 C1372.4219,400.9531 1372.625,401 1373.0313,401 L1378.1719,401 C1378.9219,401 1379.2813,400.7188 1379.2813,400.1563 C1379.2813,399.875 1379.1719,399.625 1378.9375,399.4531 C1378.7656,399.3281 1378.625,399.2969 1378.1719,399.2969 L1376.4531,399.2969 L1376.4531,392.7813 Z " fill="#000000"/><text fill="#000000" font-family="sans-serif" font-size="12" font-style="italic" lengthAdjust="spacingAndGlyphs" textLength="45" x="1389.5" y="400.1543">MenuUi</text><line style="stroke: #A80036; stroke-width: 1.5;" x1="1361.5" x2="1436.5" y1="412" y2="412"/><line style="stroke: #A80036; stroke-width: 1.5;" x1="1361.5" x2="1436.5" y1="420" y2="420"/><!--MD5=[8d2ddd461e593964ccbd45e1418f0370]
class PacmanPainter--><rect codeLine="51" fill="#FEFECE" filter="url(#fqbl43bjx8ayx)" height="48" id="PacmanPainter" style="stroke: #A80036; stroke-width: 1.5;" width="117" x="1510.5" y="704"/><ellipse cx="1525.5" cy="720" fill="#ADD1B2" rx="11" ry="11" style="stroke: #A80036; stroke-width: 1.0;"/><path d="M1527.8438,715.6719 C1526.9063,715.2344 1526.3125,715.0938 1525.4375,715.0938 C1522.8125,715.0938 1520.8125,717.1719 1520.8125,719.8906 L1520.8125,721.0156 C1520.8125,723.5938 1522.9219,725.4844 1525.8125,725.4844 C1527.0313,725.4844 1528.1875,725.1875 1528.9375,724.6406 C1529.5156,724.2344 1529.8438,723.7813 1529.8438,723.3906 C1529.8438,722.9375 1529.4531,722.5469 1528.9844,722.5469 C1528.7656,722.5469 1528.5625,722.625 1528.375,722.8125 C1527.9219,723.2969 1527.9219,723.2969 1527.7344,723.3906 C1527.3125,723.6563 1526.625,723.7813 1525.8594,723.7813 C1523.8125,723.7813 1522.5156,722.6875 1522.5156,720.9844 L1522.5156,719.8906 C1522.5156,718.1094 1523.7656,716.7969 1525.5,716.7969 C1526.0781,716.7969 1526.6875,716.9531 1527.1563,717.2031 C1527.6406,717.4844 1527.8125,717.7031 1527.9063,718.1094 C1527.9688,718.5156 1528,718.6406 1528.1406,718.7656 C1528.2813,718.9063 1528.5156,719.0156 1528.7344,719.0156 C1529,719.0156 1529.2656,718.875 1529.4375,718.6563 C1529.5469,718.5 1529.5781,718.3125 1529.5781,717.8906 L1529.5781,716.4688 C1529.5781,716.0313 1529.5625,715.9063 1529.4688,715.75 C1529.3125,715.4844 1529.0313,715.3438 1528.7344,715.3438 C1528.4375,715.3438 1528.2344,715.4375 1528.0156,715.75 L1527.8438,715.6719 Z " fill="#000000"/><text fill="#000000" font-family="sans-serif" font-size="12" lengthAdjust="spacingAndGlyphs" textLength="85" x="1539.5" y="724.1543">PacmanPainter</text><line style="stroke: #A80036; stroke-width: 1.5;" x1="1511.5" x2="1626.5" y1="736" y2="736"/><line style="stroke: #A80036; stroke-width: 1.5;" x1="1511.5" x2="1626.5" y1="744" y2="744"/><!--MD5=[17722d8b511704903d3a6159b7ab66da]
class PropertyChangeListener--><rect fill="#FEFECE" filter="url(#fqbl43bjx8ayx)" height="48" id="PropertyChangeListener" style="stroke: #A80036; stroke-width: 1.5;" width="177" x="1393.5" y="596"/><ellipse cx="1408.5" cy="612" fill="#B4A7E5" rx="11" ry="11" style="stroke: #A80036; stroke-width: 1.0;"/><path d="M1409.4531,608.7813 L1411.1719,608.7813 C1411.5625,608.7813 1411.75,608.75 1411.875,608.6719 C1412.1406,608.5156 1412.2813,608.2344 1412.2813,607.9375 C1412.2813,607.6719 1412.1719,607.4063 1411.9375,607.2344 C1411.7656,607.125 1411.625,607.0938 1411.1719,607.0938 L1406.0313,607.0938 C1405.5938,607.0938 1405.4688,607.1094 1405.3125,607.2031 C1405.0625,607.3594 1404.9063,607.6563 1404.9063,607.9375 C1404.9063,608.2188 1405.0469,608.4688 1405.2656,608.6406 C1405.4219,608.75 1405.6094,608.7813 1406.0313,608.7813 L1407.75,608.7813 L1407.75,615.2969 L1406.0313,615.2969 C1405.5938,615.2969 1405.4688,615.3125 1405.3125,615.4219 C1405.0625,615.5781 1404.9063,615.8594 1404.9063,616.1563 C1404.9063,616.4063 1405.0469,616.6719 1405.2656,616.8281 C1405.4219,616.9531 1405.625,617 1406.0313,617 L1411.1719,617 C1411.9219,617 1412.2813,616.7188 1412.2813,616.1563 C1412.2813,615.875 1412.1719,615.625 1411.9375,615.4531 C1411.7656,615.3281 1411.625,615.2969 1411.1719,615.2969 L1409.4531,615.2969 L1409.4531,608.7813 Z " fill="#000000"/><text fill="#000000" font-family="sans-serif" font-size="12" font-style="italic" lengthAdjust="spacingAndGlyphs" textLength="145" x="1422.5" y="616.1543">PropertyChangeListener</text><line style="stroke: #A80036; stroke-width: 1.5;" x1="1394.5" x2="1569.5" y1="628" y2="628"/><line style="stroke: #A80036; stroke-width: 1.5;" x1="1394.5" x2="1569.5" y1="636" y2="636"/><!--MD5=[c98e9c1b21770c00511a6036e33d3a25]
class MenuPrincipalPainter--><rect codeLine="53" fill="#FEFECE" filter="url(#fqbl43bjx8ayx)" height="48" id="MenuPrincipalPainter" style="stroke: #A80036; stroke-width: 1.5;" width="153" x="1207.5" y="488"/><ellipse cx="1222.5" cy="504" fill="#ADD1B2" rx="11" ry="11" style="stroke: #A80036; stroke-width: 1.0;"/><path d="M1224.8438,499.6719 C1223.9063,499.2344 1223.3125,499.0938 1222.4375,499.0938 C1219.8125,499.0938 1217.8125,501.1719 1217.8125,503.8906 L1217.8125,505.0156 C1217.8125,507.5938 1219.9219,509.4844 1222.8125,509.4844 C1224.0313,509.4844 1225.1875,509.1875 1225.9375,508.6406 C1226.5156,508.2344 1226.8438,507.7813 1226.8438,507.3906 C1226.8438,506.9375 1226.4531,506.5469 1225.9844,506.5469 C1225.7656,506.5469 1225.5625,506.625 1225.375,506.8125 C1224.9219,507.2969 1224.9219,507.2969 1224.7344,507.3906 C1224.3125,507.6563 1223.625,507.7813 1222.8594,507.7813 C1220.8125,507.7813 1219.5156,506.6875 1219.5156,504.9844 L1219.5156,503.8906 C1219.5156,502.1094 1220.7656,500.7969 1222.5,500.7969 C1223.0781,500.7969 1223.6875,500.9531 1224.1563,501.2031 C1224.6406,501.4844 1224.8125,501.7031 1224.9063,502.1094 C1224.9688,502.5156 1225,502.6406 1225.1406,502.7656 C1225.2813,502.9063 1225.5156,503.0156 1225.7344,503.0156 C1226,503.0156 1226.2656,502.875 1226.4375,502.6563 C1226.5469,502.5 1226.5781,502.3125 1226.5781,501.8906 L1226.5781,500.4688 C1226.5781,500.0313 1226.5625,499.9063 1226.4688,499.75 C1226.3125,499.4844 1226.0313,499.3438 1225.7344,499.3438 C1225.4375,499.3438 1225.2344,499.4375 1225.0156,499.75 L1224.8438,499.6719 Z " fill="#000000"/><text fill="#000000" font-family="sans-serif" font-size="12" lengthAdjust="spacingAndGlyphs" textLength="121" x="1236.5" y="508.1543">MenuPrincipalPainter</text><line style="stroke: #A80036; stroke-width: 1.5;" x1="1208.5" x2="1359.5" y1="520" y2="520"/><line style="stroke: #A80036; stroke-width: 1.5;" x1="1208.5" x2="1359.5" y1="528" y2="528"/><!--MD5=[04935357b5c5a2aec56a7c93da5b843d]
class ActionListener--><rect fill="#FEFECE" filter="url(#fqbl43bjx8ayx)" height="48" id="ActionListener" style="stroke: #A80036; stroke-width: 1.5;" width="118" x="1207" y="380"/><ellipse cx="1222" cy="396" fill="#B4A7E5" rx="11" ry="11" style="stroke: #A80036; stroke-width: 1.0;"/><path d="M1222.9531,392.7813 L1224.6719,392.7813 C1225.0625,392.7813 1225.25,392.75 1225.375,392.6719 C1225.6406,392.5156 1225.7813,392.2344 1225.7813,391.9375 C1225.7813,391.6719 1225.6719,391.4063 1225.4375,391.2344 C1225.2656,391.125 1225.125,391.0938 1224.6719,391.0938 L1219.5313,391.0938 C1219.0938,391.0938 1218.9688,391.1094 1218.8125,391.2031 C1218.5625,391.3594 1218.4063,391.6563 1218.4063,391.9375 C1218.4063,392.2188 1218.5469,392.4688 1218.7656,392.6406 C1218.9219,392.75 1219.1094,392.7813 1219.5313,392.7813 L1221.25,392.7813 L1221.25,399.2969 L1219.5313,399.2969 C1219.0938,399.2969 1218.9688,399.3125 1218.8125,399.4219 C1218.5625,399.5781 1218.4063,399.8594 1218.4063,400.1563 C1218.4063,400.4063 1218.5469,400.6719 1218.7656,400.8281 C1218.9219,400.9531 1219.125,401 1219.5313,401 L1224.6719,401 C1225.4219,401 1225.7813,400.7188 1225.7813,400.1563 C1225.7813,399.875 1225.6719,399.625 1225.4375,399.4531 C1225.2656,399.3281 1225.125,399.2969 1224.6719,399.2969 L1222.9531,399.2969 L1222.9531,392.7813 Z " fill="#000000"/><text fill="#000000" font-family="sans-serif" font-size="12" font-style="italic" lengthAdjust="spacingAndGlyphs" textLength="86" x="1236" y="400.1543">ActionListener</text><line style="stroke: #A80036; stroke-width: 1.5;" x1="1208" x2="1324" y1="412" y2="412"/><line style="stroke: #A80036; stroke-width: 1.5;" x1="1208" x2="1324" y1="420" y2="420"/><!--MD5=[a20b49d534c803a47c0d272c4b94f75a]
class MenuPausePainter--><rect codeLine="55" fill="#FEFECE" filter="url(#fqbl43bjx8ayx)" height="48" id="MenuPausePainter" style="stroke: #A80036; stroke-width: 1.5;" width="139" x="1395.5" y="488"/><ellipse cx="1410.5" cy="504" fill="#ADD1B2" rx="11" ry="11" style="stroke: #A80036; stroke-width: 1.0;"/><path d="M1412.8438,499.6719 C1411.9063,499.2344 1411.3125,499.0938 1410.4375,499.0938 C1407.8125,499.0938 1405.8125,501.1719 1405.8125,503.8906 L1405.8125,505.0156 C1405.8125,507.5938 1407.9219,509.4844 1410.8125,509.4844 C1412.0313,509.4844 1413.1875,509.1875 1413.9375,508.6406 C1414.5156,508.2344 1414.8438,507.7813 1414.8438,507.3906 C1414.8438,506.9375 1414.4531,506.5469 1413.9844,506.5469 C1413.7656,506.5469 1413.5625,506.625 1413.375,506.8125 C1412.9219,507.2969 1412.9219,507.2969 1412.7344,507.3906 C1412.3125,507.6563 1411.625,507.7813 1410.8594,507.7813 C1408.8125,507.7813 1407.5156,506.6875 1407.5156,504.9844 L1407.5156,503.8906 C1407.5156,502.1094 1408.7656,500.7969 1410.5,500.7969 C1411.0781,500.7969 1411.6875,500.9531 1412.1563,501.2031 C1412.6406,501.4844 1412.8125,501.7031 1412.9063,502.1094 C1412.9688,502.5156 1413,502.6406 1413.1406,502.7656 C1413.2813,502.9063 1413.5156,503.0156 1413.7344,503.0156 C1414,503.0156 1414.2656,502.875 1414.4375,502.6563 C1414.5469,502.5 1414.5781,502.3125 1414.5781,501.8906 L1414.5781,500.4688 C1414.5781,500.0313 1414.5625,499.9063 1414.4688,499.75 C1414.3125,499.4844 1414.0313,499.3438 1413.7344,499.3438 C1413.4375,499.3438 1413.2344,499.4375 1413.0156,499.75 L1412.8438,499.6719 Z " fill="#000000"/><text fill="#000000" font-family="sans-serif" font-size="12" lengthAdjust="spacingAndGlyphs" textLength="107" x="1424.5" y="508.1543">MenuPausePainter</text><line style="stroke: #A80036; stroke-width: 1.5;" x1="1396.5" x2="1533.5" y1="520" y2="520"/><line style="stroke: #A80036; stroke-width: 1.5;" x1="1396.5" x2="1533.5" y1="528" y2="528"/><!--MD5=[82d9c97a467af7c0b2c072e754b85475]
class GameController--><rect codeLine="61" fill="#FEFECE" filter="url(#fqbl43bjx8ayx)" height="48" id="GameController" style="stroke: #A80036; stroke-width: 1.5;" width="125" x="625.5" y="596"/><ellipse cx="640.5" cy="612" fill="#B4A7E5" rx="11" ry="11" style="stroke: #A80036; stroke-width: 1.0;"/><path d="M641.4531,608.7813 L643.1719,608.7813 C643.5625,608.7813 643.75,608.75 643.875,608.6719 C644.1406,608.5156 644.2813,608.2344 644.2813,607.9375 C644.2813,607.6719 644.1719,607.4063 643.9375,607.2344 C643.7656,607.125 643.625,607.0938 643.1719,607.0938 L638.0313,607.0938 C637.5938,607.0938 637.4688,607.1094 637.3125,607.2031 C637.0625,607.3594 636.9063,607.6563 636.9063,607.9375 C636.9063,608.2188 637.0469,608.4688 637.2656,608.6406 C637.4219,608.75 637.6094,608.7813 638.0313,608.7813 L639.75,608.7813 L639.75,615.2969 L638.0313,615.2969 C637.5938,615.2969 637.4688,615.3125 637.3125,615.4219 C637.0625,615.5781 636.9063,615.8594 636.9063,616.1563 C636.9063,616.4063 637.0469,616.6719 637.2656,616.8281 C637.4219,616.9531 637.625,617 638.0313,617 L643.1719,617 C643.9219,617 644.2813,616.7188 644.2813,616.1563 C644.2813,615.875 644.1719,615.625 643.9375,615.4531 C643.7656,615.3281 643.625,615.2969 643.1719,615.2969 L641.4531,615.2969 L641.4531,608.7813 Z " fill="#000000"/><text fill="#000000" font-family="sans-serif" font-size="12" font-style="italic" lengthAdjust="spacingAndGlyphs" textLength="93" x="654.5" y="616.1543">GameController</text><line style="stroke: #A80036; stroke-width: 1.5;" x1="626.5" x2="749.5" y1="628" y2="628"/><line style="stroke: #A80036; stroke-width: 1.5;" x1="626.5" x2="749.5" y1="636" y2="636"/><!--MD5=[a230fefe8292b977220ca10efe5b6e4e]
class KeyListener--><rect fill="#FEFECE" filter="url(#fqbl43bjx8ayx)" height="48" id="KeyListener" style="stroke: #A80036; stroke-width: 1.5;" width="102" x="738" y="488"/><ellipse cx="753" cy="504" fill="#B4A7E5" rx="11" ry="11" style="stroke: #A80036; stroke-width: 1.0;"/><path d="M753.9531,500.7813 L755.6719,500.7813 C756.0625,500.7813 756.25,500.75 756.375,500.6719 C756.6406,500.5156 756.7813,500.2344 756.7813,499.9375 C756.7813,499.6719 756.6719,499.4063 756.4375,499.2344 C756.2656,499.125 756.125,499.0938 755.6719,499.0938 L750.5313,499.0938 C750.0938,499.0938 749.9688,499.1094 749.8125,499.2031 C749.5625,499.3594 749.4063,499.6563 749.4063,499.9375 C749.4063,500.2188 749.5469,500.4688 749.7656,500.6406 C749.9219,500.75 750.1094,500.7813 750.5313,500.7813 L752.25,500.7813 L752.25,507.2969 L750.5313,507.2969 C750.0938,507.2969 749.9688,507.3125 749.8125,507.4219 C749.5625,507.5781 749.4063,507.8594 749.4063,508.1563 C749.4063,508.4063 749.5469,508.6719 749.7656,508.8281 C749.9219,508.9531 750.125,509 750.5313,509 L755.6719,509 C756.4219,509 756.7813,508.7188 756.7813,508.1563 C756.7813,507.875 756.6719,507.625 756.4375,507.4531 C756.2656,507.3281 756.125,507.2969 755.6719,507.2969 L753.9531,507.2969 L753.9531,500.7813 Z " fill="#000000"/><text fill="#000000" font-family="sans-serif" font-size="12" font-style="italic" lengthAdjust="spacingAndGlyphs" textLength="70" x="767" y="508.1543">KeyListener</text><line style="stroke: #A80036; stroke-width: 1.5;" x1="739" x2="839" y1="520" y2="520"/><line style="stroke: #A80036; stroke-width: 1.5;" x1="739" x2="839" y1="528" y2="528"/><!--MD5=[cb62662ac00a6bbafa71e2e8e2c6aa47]
class MenuController--><rect codeLine="63" fill="#FEFECE" filter="url(#fqbl43bjx8ayx)" height="48" id="MenuController" style="stroke: #A80036; stroke-width: 1.5;" width="123" x="1010.5" y="488"/><ellipse cx="1025.5" cy="504" fill="#B4A7E5" rx="11" ry="11" style="stroke: #A80036; stroke-width: 1.0;"/><path d="M1026.4531,500.7813 L1028.1719,500.7813 C1028.5625,500.7813 1028.75,500.75 1028.875,500.6719 C1029.1406,500.5156 1029.2813,500.2344 1029.2813,499.9375 C1029.2813,499.6719 1029.1719,499.4063 1028.9375,499.2344 C1028.7656,499.125 1028.625,499.0938 1028.1719,499.0938 L1023.0313,499.0938 C1022.5938,499.0938 1022.4688,499.1094 1022.3125,499.2031 C1022.0625,499.3594 1021.9063,499.6563 1021.9063,499.9375 C1021.9063,500.2188 1022.0469,500.4688 1022.2656,500.6406 C1022.4219,500.75 1022.6094,500.7813 1023.0313,500.7813 L1024.75,500.7813 L1024.75,507.2969 L1023.0313,507.2969 C1022.5938,507.2969 1022.4688,507.3125 1022.3125,507.4219 C1022.0625,507.5781 1021.9063,507.8594 1021.9063,508.1563 C1021.9063,508.4063 1022.0469,508.6719 1022.2656,508.8281 C1022.4219,508.9531 1022.625,509 1023.0313,509 L1028.1719,509 C1028.9219,509 1029.2813,508.7188 1029.2813,508.1563 C1029.2813,507.875 1029.1719,507.625 1028.9375,507.4531 C1028.7656,507.3281 1028.625,507.2969 1028.1719,507.2969 L1026.4531,507.2969 L1026.4531,500.7813 Z " fill="#000000"/><text fill="#000000" font-family="sans-serif" font-size="12" font-style="italic" lengthAdjust="spacingAndGlyphs" textLength="91" x="1039.5" y="508.1543">MenuController</text><line style="stroke: #A80036; stroke-width: 1.5;" x1="1011.5" x2="1132.5" y1="520" y2="520"/><line style="stroke: #A80036; stroke-width: 1.5;" x1="1011.5" x2="1132.5" y1="528" y2="528"/><!--MD5=[445ca1d7457e22c3c57a49506646ef11]
class PacmanController--><rect codeLine="65" fill="#FEFECE" filter="url(#fqbl43bjx8ayx)" height="48" id="PacmanController" style="stroke: #A80036; stroke-width: 1.5;" width="136" x="804" y="704"/><ellipse cx="819" cy="720" fill="#ADD1B2" rx="11" ry="11" style="stroke: #A80036; stroke-width: 1.0;"/><path d="M821.3438,715.6719 C820.4063,715.2344 819.8125,715.0938 818.9375,715.0938 C816.3125,715.0938 814.3125,717.1719 814.3125,719.8906 L814.3125,721.0156 C814.3125,723.5938 816.4219,725.4844 819.3125,725.4844 C820.5313,725.4844 821.6875,725.1875 822.4375,724.6406 C823.0156,724.2344 823.3438,723.7813 823.3438,723.3906 C823.3438,722.9375 822.9531,722.5469 822.4844,722.5469 C822.2656,722.5469 822.0625,722.625 821.875,722.8125 C821.4219,723.2969 821.4219,723.2969 821.2344,723.3906 C820.8125,723.6563 820.125,723.7813 819.3594,723.7813 C817.3125,723.7813 816.0156,722.6875 816.0156,720.9844 L816.0156,719.8906 C816.0156,718.1094 817.2656,716.7969 819,716.7969 C819.5781,716.7969 820.1875,716.9531 820.6563,717.2031 C821.1406,717.4844 821.3125,717.7031 821.4063,718.1094 C821.4688,718.5156 821.5,718.6406 821.6406,718.7656 C821.7813,718.9063 822.0156,719.0156 822.2344,719.0156 C822.5,719.0156 822.7656,718.875 822.9375,718.6563 C823.0469,718.5 823.0781,718.3125 823.0781,717.8906 L823.0781,716.4688 C823.0781,716.0313 823.0625,715.9063 822.9688,715.75 C822.8125,715.4844 822.5313,715.3438 822.2344,715.3438 C821.9375,715.3438 821.7344,715.4375 821.5156,715.75 L821.3438,715.6719 Z " fill="#000000"/><text fill="#000000" font-family="sans-serif" font-size="12" lengthAdjust="spacingAndGlyphs" textLength="104" x="833" y="724.1543">PacmanController</text><line style="stroke: #A80036; stroke-width: 1.5;" x1="805" x2="939" y1="736" y2="736"/><line style="stroke: #A80036; stroke-width: 1.5;" x1="805" x2="939" y1="744" y2="744"/><!--MD5=[674bd89b7430eb4954394fb3dd93f803]
class FantomeController--><rect codeLine="67" fill="#FEFECE" filter="url(#fqbl43bjx8ayx)" height="48" id="FantomeController" style="stroke: #A80036; stroke-width: 1.5;" width="143" x="625.5" y="704"/><ellipse cx="640.5" cy="720" fill="#ADD1B2" rx="11" ry="11" style="stroke: #A80036; stroke-width: 1.0;"/><path d="M642.8438,715.6719 C641.9063,715.2344 641.3125,715.0938 640.4375,715.0938 C637.8125,715.0938 635.8125,717.1719 635.8125,719.8906 L635.8125,721.0156 C635.8125,723.5938 637.9219,725.4844 640.8125,725.4844 C642.0313,725.4844 643.1875,725.1875 643.9375,724.6406 C644.5156,724.2344 644.8438,723.7813 644.8438,723.3906 C644.8438,722.9375 644.4531,722.5469 643.9844,722.5469 C643.7656,722.5469 643.5625,722.625 643.375,722.8125 C642.9219,723.2969 642.9219,723.2969 642.7344,723.3906 C642.3125,723.6563 641.625,723.7813 640.8594,723.7813 C638.8125,723.7813 637.5156,722.6875 637.5156,720.9844 L637.5156,719.8906 C637.5156,718.1094 638.7656,716.7969 640.5,716.7969 C641.0781,716.7969 641.6875,716.9531 642.1563,717.2031 C642.6406,717.4844 642.8125,717.7031 642.9063,718.1094 C642.9688,718.5156 643,718.6406 643.1406,718.7656 C643.2813,718.9063 643.5156,719.0156 643.7344,719.0156 C644,719.0156 644.2656,718.875 644.4375,718.6563 C644.5469,718.5 644.5781,718.3125 644.5781,717.8906 L644.5781,716.4688 C644.5781,716.0313 644.5625,715.9063 644.4688,715.75 C644.3125,715.4844 644.0313,715.3438 643.7344,715.3438 C643.4375,715.3438 643.2344,715.4375 643.0156,715.75 L642.8438,715.6719 Z " fill="#000000"/><text fill="#000000" font-family="sans-serif" font-size="12" lengthAdjust="spacingAndGlyphs" textLength="111" x="654.5" y="724.1543">FantomeController</text><line style="stroke: #A80036; stroke-width: 1.5;" x1="626.5" x2="767.5" y1="736" y2="736"/><line style="stroke: #A80036; stroke-width: 1.5;" x1="626.5" x2="767.5" y1="744" y2="744"/><!--MD5=[b5f64f775e2f5d481192b90a919416a6]
class MenuPrincipalController--><rect codeLine="69" fill="#FEFECE" filter="url(#fqbl43bjx8ayx)" height="48" id="MenuPrincipalController" style="stroke: #A80036; stroke-width: 1.5;" width="172" x="786" y="596"/><ellipse cx="801" cy="612" fill="#ADD1B2" rx="11" ry="11" style="stroke: #A80036; stroke-width: 1.0;"/><path d="M803.3438,607.6719 C802.4063,607.2344 801.8125,607.0938 800.9375,607.0938 C798.3125,607.0938 796.3125,609.1719 796.3125,611.8906 L796.3125,613.0156 C796.3125,615.5938 798.4219,617.4844 801.3125,617.4844 C802.5313,617.4844 803.6875,617.1875 804.4375,616.6406 C805.0156,616.2344 805.3438,615.7813 805.3438,615.3906 C805.3438,614.9375 804.9531,614.5469 804.4844,614.5469 C804.2656,614.5469 804.0625,614.625 803.875,614.8125 C803.4219,615.2969 803.4219,615.2969 803.2344,615.3906 C802.8125,615.6563 802.125,615.7813 801.3594,615.7813 C799.3125,615.7813 798.0156,614.6875 798.0156,612.9844 L798.0156,611.8906 C798.0156,610.1094 799.2656,608.7969 801,608.7969 C801.5781,608.7969 802.1875,608.9531 802.6563,609.2031 C803.1406,609.4844 803.3125,609.7031 803.4063,610.1094 C803.4688,610.5156 803.5,610.6406 803.6406,610.7656 C803.7813,610.9063 804.0156,611.0156 804.2344,611.0156 C804.5,611.0156 804.7656,610.875 804.9375,610.6563 C805.0469,610.5 805.0781,610.3125 805.0781,609.8906 L805.0781,608.4688 C805.0781,608.0313 805.0625,607.9063 804.9688,607.75 C804.8125,607.4844 804.5313,607.3438 804.2344,607.3438 C803.9375,607.3438 803.7344,607.4375 803.5156,607.75 L803.3438,607.6719 Z " fill="#000000"/><text fill="#000000" font-family="sans-serif" font-size="12" lengthAdjust="spacingAndGlyphs" textLength="140" x="815" y="616.1543">MenuPrincipalController</text><line style="stroke: #A80036; stroke-width: 1.5;" x1="787" x2="957" y1="628" y2="628"/><line style="stroke: #A80036; stroke-width: 1.5;" x1="787" x2="957" y1="636" y2="636"/><!--MD5=[f91c5291f5a863d6403709060d1e298f]
class MenuPauseController--><rect codeLine="71" fill="#FEFECE" filter="url(#fqbl43bjx8ayx)" height="48" id="MenuPauseController" style="stroke: #A80036; stroke-width: 1.5;" width="158" x="993" y="596"/><ellipse cx="1008" cy="612" fill="#ADD1B2" rx="11" ry="11" style="stroke: #A80036; stroke-width: 1.0;"/><path d="M1010.3438,607.6719 C1009.4063,607.2344 1008.8125,607.0938 1007.9375,607.0938 C1005.3125,607.0938 1003.3125,609.1719 1003.3125,611.8906 L1003.3125,613.0156 C1003.3125,615.5938 1005.4219,617.4844 1008.3125,617.4844 C1009.5313,617.4844 1010.6875,617.1875 1011.4375,616.6406 C1012.0156,616.2344 1012.3438,615.7813 1012.3438,615.3906 C1012.3438,614.9375 1011.9531,614.5469 1011.4844,614.5469 C1011.2656,614.5469 1011.0625,614.625 1010.875,614.8125 C1010.4219,615.2969 1010.4219,615.2969 1010.2344,615.3906 C1009.8125,615.6563 1009.125,615.7813 1008.3594,615.7813 C1006.3125,615.7813 1005.0156,614.6875 1005.0156,612.9844 L1005.0156,611.8906 C1005.0156,610.1094 1006.2656,608.7969 1008,608.7969 C1008.5781,608.7969 1009.1875,608.9531 1009.6563,609.2031 C1010.1406,609.4844 1010.3125,609.7031 1010.4063,610.1094 C1010.4688,610.5156 1010.5,610.6406 1010.6406,610.7656 C1010.7813,610.9063 1011.0156,611.0156 1011.2344,611.0156 C1011.5,611.0156 1011.7656,610.875 1011.9375,610.6563 C1012.0469,610.5 1012.0781,610.3125 1012.0781,609.8906 L1012.0781,608.4688 C1012.0781,608.0313 1012.0625,607.9063 1011.9688,607.75 C1011.8125,607.4844 1011.5313,607.3438 1011.2344,607.3438 C1010.9375,607.3438 1010.7344,607.4375 1010.5156,607.75 L1010.3438,607.6719 Z " fill="#000000"/><text fill="#000000" font-family="sans-serif" font-size="12" lengthAdjust="spacingAndGlyphs" textLength="126" x="1022" y="616.1543">MenuPauseController</text><line style="stroke: #A80036; stroke-width: 1.5;" x1="994" x2="1150" y1="628" y2="628"/><line style="stroke: #A80036; stroke-width: 1.5;" x1="994" x2="1150" y1="636" y2="636"/><!--MD5=[a64a835c3d62471a77f615251fdde58a]
class Position--><rect codeLine="73" fill="#FEFECE" filter="url(#fqbl43bjx8ayx)" height="48" id="Position" style="stroke: #A80036; stroke-width: 1.5;" width="78" x="625" y="488"/><ellipse cx="640" cy="504" fill="#ADD1B2" rx="11" ry="11" style="stroke: #A80036; stroke-width: 1.0;"/><path d="M642.3438,499.6719 C641.4063,499.2344 640.8125,499.0938 639.9375,499.0938 C637.3125,499.0938 635.3125,501.1719 635.3125,503.8906 L635.3125,505.0156 C635.3125,507.5938 637.4219,509.4844 640.3125,509.4844 C641.5313,509.4844 642.6875,509.1875 643.4375,508.6406 C644.0156,508.2344 644.3438,507.7813 644.3438,507.3906 C644.3438,506.9375 643.9531,506.5469 643.4844,506.5469 C643.2656,506.5469 643.0625,506.625 642.875,506.8125 C642.4219,507.2969 642.4219,507.2969 642.2344,507.3906 C641.8125,507.6563 641.125,507.7813 640.3594,507.7813 C638.3125,507.7813 637.0156,506.6875 637.0156,504.9844 L637.0156,503.8906 C637.0156,502.1094 638.2656,500.7969 640,500.7969 C640.5781,500.7969 641.1875,500.9531 641.6563,501.2031 C642.1406,501.4844 642.3125,501.7031 642.4063,502.1094 C642.4688,502.5156 642.5,502.6406 642.6406,502.7656 C642.7813,502.9063 643.0156,503.0156 643.2344,503.0156 C643.5,503.0156 643.7656,502.875 643.9375,502.6563 C644.0469,502.5 644.0781,502.3125 644.0781,501.8906 L644.0781,500.4688 C644.0781,500.0313 644.0625,499.9063 643.9688,499.75 C643.8125,499.4844 643.5313,499.3438 643.2344,499.3438 C642.9375,499.3438 642.7344,499.4375 642.5156,499.75 L642.3438,499.6719 Z " fill="#000000"/><text fill="#000000" font-family="sans-serif" font-size="12" lengthAdjust="spacingAndGlyphs" textLength="46" x="654" y="508.1543">Position</text><line style="stroke: #A80036; stroke-width: 1.5;" x1="626" x2="702" y1="520" y2="520"/><line style="stroke: #A80036; stroke-width: 1.5;" x1="626" x2="702" y1="528" y2="528"/><!--MD5=[3240d3ec818dfd61089f4e5df95ea03b]
class PropertyChangeSupport--><rect fill="#FEFECE" filter="url(#fqbl43bjx8ayx)" height="48" id="PropertyChangeSupport" style="stroke: #A80036; stroke-width: 1.5;" width="176" x="393" y="380"/><ellipse cx="408" cy="396" fill="#ADD1B2" rx="11" ry="11" style="stroke: #A80036; stroke-width: 1.0;"/><path d="M410.3438,391.6719 C409.4063,391.2344 408.8125,391.0938 407.9375,391.0938 C405.3125,391.0938 403.3125,393.1719 403.3125,395.8906 L403.3125,397.0156 C403.3125,399.5938 405.4219,401.4844 408.3125,401.4844 C409.5313,401.4844 410.6875,401.1875 411.4375,400.6406 C412.0156,400.2344 412.3438,399.7813 412.3438,399.3906 C412.3438,398.9375 411.9531,398.5469 411.4844,398.5469 C411.2656,398.5469 411.0625,398.625 410.875,398.8125 C410.4219,399.2969 410.4219,399.2969 410.2344,399.3906 C409.8125,399.6563 409.125,399.7813 408.3594,399.7813 C406.3125,399.7813 405.0156,398.6875 405.0156,396.9844 L405.0156,395.8906 C405.0156,394.1094 406.2656,392.7969 408,392.7969 C408.5781,392.7969 409.1875,392.9531 409.6563,393.2031 C410.1406,393.4844 410.3125,393.7031 410.4063,394.1094 C410.4688,394.5156 410.5,394.6406 410.6406,394.7656 C410.7813,394.9063 411.0156,395.0156 411.2344,395.0156 C411.5,395.0156 411.7656,394.875 411.9375,394.6563 C412.0469,394.5 412.0781,394.3125 412.0781,393.8906 L412.0781,392.4688 C412.0781,392.0313 412.0625,391.9063 411.9688,391.75 C411.8125,391.4844 411.5313,391.3438 411.2344,391.3438 C410.9375,391.3438 410.7344,391.4375 410.5156,391.75 L410.3438,391.6719 Z " fill="#000000"/><text fill="#000000" font-family="sans-serif" font-size="12" lengthAdjust="spacingAndGlyphs" textLength="144" x="422" y="400.1543">PropertyChangeSupport</text><line style="stroke: #A80036; stroke-width: 1.5;" x1="394" x2="568" y1="412" y2="412"/><line style="stroke: #A80036; stroke-width: 1.5;" x1="394" x2="568" y1="420" y2="420"/><!--MD5=[0e5d5e62a567c710f1f950119a75c4f5]
reverse link Piece to PieceAttaque--><path d="M128.449,548.168 C149.081,563.79 172.804,581.752 191.198,595.678 " fill="none" id="Piece-backto-PieceAttaque" style="stroke: #A80036; stroke-width: 1.0;"/><polygon fill="none" points="124.098,553.654,112.378,536,132.549,542.492,124.098,553.654" style="stroke: #A80036; stroke-width: 1.0;"/><!--MD5=[97ed113f9b8f4498e901b285bb32dd23]
reverse link Piece to PieceScore--><path d="M82,556.024 C82,569.579 82,584.038 82,595.678 " fill="none" id="Piece-backto-PieceScore" style="stroke: #A80036; stroke-width: 1.0;"/><polygon fill="none" points="75.0001,556,82,536,89.0001,556,75.0001,556" style="stroke: #A80036; stroke-width: 1.0;"/><!--MD5=[23c2e1d93bec45b594c0e59eee096c03]
reverse link Personnage to Pacman--><path d="M311.871,340.024 C313.405,353.579 315.042,368.038 316.36,379.678 " fill="none" id="Personnage-backto-Pacman" style="stroke: #A80036; stroke-width: 1.0;"/><polygon fill="none" points="304.898,340.661,309.604,320,318.809,339.086,304.898,340.661" style="stroke: #A80036; stroke-width: 1.0;"/><!--MD5=[6bed81755f3c853b7b67737437729881]
reverse link Game to PacmanGame--><path d="M267.019,104.227 C253.412,119.097 238.262,135.652 226.341,148.678 " fill="none" id="Game-backto-PacmanGame" style="stroke: #A80036; stroke-width: 1.0; stroke-dasharray: 7.0,7.0;"/><polygon fill="none" points="262.286,99.029,280.952,89,272.615,108.481,262.286,99.029" style="stroke: #A80036; stroke-width: 1.0;"/><!--MD5=[201fe6c69ced6cbb8be2878d2e77e551]
reverse link Personnage to Fantome--><path d="M265.908,334.122 C264.924,335.086 263.954,336.046 263,337 C249.203,350.797 234.453,367.001 223.03,379.9 " fill="none" id="Personnage-backto-Fantome" style="stroke: #A80036; stroke-width: 1.0;"/><polygon fill="none" points="261.212,328.929,280.56,320.289,270.823,339.109,261.212,328.929" style="stroke: #A80036; stroke-width: 1.0;"/><!--MD5=[8765b3e7644a082e74ce289568725641]
reverse link RuntimeException to PlateauException--><path d="M1083,109.024 C1083,122.579 1083,137.038 1083,148.678 " fill="none" id="RuntimeException-backto-PlateauException" style="stroke: #A80036; stroke-width: 1.0;"/><polygon fill="none" points="1076,109,1083,89,1090,109,1076,109" style="stroke: #A80036; stroke-width: 1.0;"/><!--MD5=[4afabb6f3c46c6ba44f529e96217200f]
reverse link JPanel to DrawingPanel--><path d="M1673.07,448.024 C1670.26,461.579 1667.26,476.038 1664.84,487.678 " fill="none" id="JPanel-backto-DrawingPanel" style="stroke: #A80036; stroke-width: 1.0;"/><polygon fill="none" points="1666.31,446.161,1677.23,428,1680.02,449.006,1666.31,446.161" style="stroke: #A80036; stroke-width: 1.0;"/><!--MD5=[b1c9693fabb413ec3993054968e77f59]
reverse link GamePainter to PacmanPainter--><path d="M1627.18,659.227 C1614.42,674.097 1600.2,690.652 1589.02,703.678 " fill="none" id="GamePainter-backto-PacmanPainter" style="stroke: #A80036; stroke-width: 1.0; stroke-dasharray: 7.0,7.0;"/><polygon fill="none" points="1621.92,654.616,1640.25,644,1632.54,663.735,1621.92,654.616" style="stroke: #A80036; stroke-width: 1.0;"/><!--MD5=[df39770a1a8c99d6be1cd48158bae1ce]
reverse link PropertyChangeListener to PacmanPainter--><path d="M1513.76,659.702 C1525.87,674.448 1539.28,690.791 1549.86,703.678 " fill="none" id="PropertyChangeListener-backto-PacmanPainter" style="stroke: #A80036; stroke-width: 1.0; stroke-dasharray: 7.0,7.0;"/><polygon fill="none" points="1508.16,663.901,1500.88,644,1518.98,655.019,1508.16,663.901" style="stroke: #A80036; stroke-width: 1.0;"/><!--MD5=[4fa429dadb8e014257c1fd7703a41552]
reverse link MenuUi to MenuPrincipalPainter--><path d="M1359.32,441.573 C1342.74,456.859 1323.96,474.167 1309.3,487.678 " fill="none" id="MenuUi-backto-MenuPrincipalPainter" style="stroke: #A80036; stroke-width: 1.0; stroke-dasharray: 7.0,7.0;"/><polygon fill="none" points="1354.6,436.408,1374.05,428,1364.09,446.702,1354.6,436.408" style="stroke: #A80036; stroke-width: 1.0;"/><!--MD5=[da86c9708c9360729108b2325316bb1d]
reverse link ActionListener to MenuPrincipalPainter--><path d="M1273.31,448.024 C1275.61,461.579 1278.06,476.038 1280.04,487.678 " fill="none" id="ActionListener-backto-MenuPrincipalPainter" style="stroke: #A80036; stroke-width: 1.0; stroke-dasharray: 7.0,7.0;"/><polygon fill="none" points="1266.35,448.89,1269.91,428,1280.16,446.546,1266.35,448.89" style="stroke: #A80036; stroke-width: 1.0;"/><!--MD5=[9aac2ffa6a82d8819286e957fd040555]
reverse link MenuUi to MenuPausePainter--><path d="M1423.99,445.134 C1432.93,459.499 1442.71,475.207 1450.48,487.678 " fill="none" id="MenuUi-backto-MenuPausePainter" style="stroke: #A80036; stroke-width: 1.0; stroke-dasharray: 7.0,7.0;"/><polygon fill="none" points="1417.95,448.678,1413.32,428,1429.83,441.278,1417.95,448.678" style="stroke: #A80036; stroke-width: 1.0;"/><!--MD5=[01178a6e2e6ed1ea2bca65d458795efa]
reverse link ActionListener to MenuPausePainter--><path d="M1343.86,429.304 C1355.56,433.951 1367.28,439.202 1378,445 C1400.01,456.91 1422.45,474.085 1439.03,487.929 " fill="none" id="ActionListener-backto-MenuPausePainter" style="stroke: #A80036; stroke-width: 1.0; stroke-dasharray: 7.0,7.0;"/><polygon fill="none" points="1341.31,435.825,1325.01,422.286,1346.2,422.705,1341.31,435.825" style="stroke: #A80036; stroke-width: 1.0;"/><!--MD5=[02b9b48f63d6938771d416b8e06dd01d]
reverse link KeyListener to GameController--><path d="M753.028,550.753 C738.744,565.744 722.765,582.514 710.222,595.678 " fill="none" id="KeyListener-backto-GameController" style="stroke: #A80036; stroke-width: 1.0;"/><polygon fill="none" points="748.22,545.651,767.085,536,758.356,555.309,748.22,545.651" style="stroke: #A80036; stroke-width: 1.0;"/><!--MD5=[64e787f999a1edf0f06c7e5d69ad8504]
reverse link GameController to PacmanController--><path d="M744.427,654.295 C752.332,658.917 760.362,663.59 768,668 C788.674,679.936 811.761,693.055 830.92,703.884 " fill="none" id="GameController-backto-PacmanController" style="stroke: #A80036; stroke-width: 1.0; stroke-dasharray: 7.0,7.0;"/><polygon fill="none" points="740.703,660.225,726.993,644.068,747.786,648.15,740.703,660.225" style="stroke: #A80036; stroke-width: 1.0;"/><!--MD5=[453e1098b6e85d99c318058c641e899e]
reverse link GameController to FantomeController--><path d="M691.653,664.024 C692.804,677.579 694.032,692.038 695.02,703.678 " fill="none" id="GameController-backto-FantomeController" style="stroke: #A80036; stroke-width: 1.0; stroke-dasharray: 7.0,7.0;"/><polygon fill="none" points="684.67,664.521,689.953,644,698.62,663.336,684.67,664.521" style="stroke: #A80036; stroke-width: 1.0;"/><!--MD5=[04dbd189aeae9cb67fda314c0e2b3909]
reverse link MenuController to MenuPrincipalController--><path d="M1010.81,545.431 C980.066,561.725 943.528,581.09 915.657,595.862 " fill="none" id="MenuController-backto-MenuPrincipalController" style="stroke: #A80036; stroke-width: 1.0; stroke-dasharray: 7.0,7.0;"/><polygon fill="none" points="1007.65,539.181,1028.6,536,1014.21,551.551,1007.65,539.181" style="stroke: #A80036; stroke-width: 1.0;"/><!--MD5=[d81c57e9caa7c22c69d655b0f3efc90b]
reverse link MenuController to MenuPauseController--><path d="M1072,556.024 C1072,569.579 1072,584.038 1072,595.678 " fill="none" id="MenuController-backto-MenuPauseController" style="stroke: #A80036; stroke-width: 1.0; stroke-dasharray: 7.0,7.0;"/><polygon fill="none" points="1065,556,1072,536,1079,556,1065,556" style="stroke: #A80036; stroke-width: 1.0;"/><!--MD5=[43cc9f7c242d82bc19b8665c21832521]
link PacmanGame to Monde--><path codeLine="78" d="M201.001,197.044 C197.288,218.437 191.787,250.132 188.056,271.63 " fill="none" id="PacmanGame-Monde" style="stroke: #A80036; stroke-width: 1.0;"/><text fill="#000000" font-family="sans-serif" font-size="13" lengthAdjust="spacingAndGlyphs" textLength="8" x="180.0697" y="260.9448">1</text><!--MD5=[88e01de693689057d3fd2cbe2e22e16c]
link Personnage to Cmd--><path codeLine="79" d="M358.258,296 C439.317,296 520.376,296 601.435,296 " fill="none" id="Personnage-Cmd" style="stroke: #A80036; stroke-width: 1.0;"/><text fill="#000000" font-family="sans-serif" font-size="13" lengthAdjust="spacingAndGlyphs" textLength="8" x="585.6731" y="291.3479">1</text><!--MD5=[94590f98c9d8026f03a25ab38f2bc172]
link Personnage to Position--><path codeLine="80" d="M358.047,298.525 C428.557,301.586 551.027,310.64 586,337 C635.304,374.162 654.168,449.526 660.776,487.707 " fill="none" id="Personnage-Position" style="stroke: #A80036; stroke-width: 1.0;"/><text fill="#000000" font-family="sans-serif" font-size="13" lengthAdjust="spacingAndGlyphs" textLength="8" x="651.0152" y="477.0405">1</text><!--MD5=[9bc13f2d03cc562d73ffb001e2cf52fb]
link Monde to Pacman--><path codeLine="81" d="M220.68,312.215 C234.35,318.784 249.556,327.219 262,337 C277.593,349.256 292.154,366.252 302.655,379.926 " fill="none" id="Monde-Pacman" style="stroke: #A80036; stroke-width: 1.0;"/><text fill="#000000" font-family="sans-serif" font-size="13" lengthAdjust="spacingAndGlyphs" textLength="8" x="289.4416" y="368.9191">1</text><!--MD5=[ba7537cd33f4321e6c8b81b8db0ebd91]
link Monde to Fantome--><path codeLine="82" d="M188.123,320 C191.288,337.658 195.64,361.941 198.82,379.678 " fill="none" id="Monde-Fantome" style="stroke: #A80036; stroke-width: 1.0;"/><text fill="#000000" font-family="sans-serif" font-size="13" lengthAdjust="spacingAndGlyphs" textLength="8" x="188.8261" y="369.0045">4</text><!--MD5=[482e775f0060d4991b46b7c0f1244495]
link Monde to Labyrinthe--><path codeLine="83" d="M160.042,320.156 C154.422,325.648 148.476,331.507 143,337 C128.914,351.129 113.325,367.196 101.059,379.939 " fill="none" id="Monde-Labyrinthe" style="stroke: #A80036; stroke-width: 1.0;"/><text fill="#000000" font-family="sans-serif" font-size="13" lengthAdjust="spacingAndGlyphs" textLength="8" x="97.6869" y="368.9354">1</text><!--MD5=[d2be1b9de5a92493c4627687a5493822]
link Monde to PropertyChangeSupport--><path codeLine="84" d="M220.7,314.231 C226.401,316.438 232.294,318.461 238,320 C296.812,335.866 316.542,316.77 374,337 C402.205,346.93 430.865,365.134 451.417,379.912 " fill="none" id="Monde-PropertyChangeSupport" style="stroke: #A80036; stroke-width: 1.0;"/><text fill="#000000" font-family="sans-serif" font-size="13" lengthAdjust="spacingAndGlyphs" textLength="8" x="434.8114" y="368.9015">1</text><!--MD5=[467e73af50108c572e2516ca96bcfd53]
link Labyrinthe to Position--><path codeLine="85" d="M126.115,423.546 C131.742,425.279 137.456,426.823 143,428 C243.699,449.382 272.19,429.757 374,445 C464.897,458.609 569.593,485.201 624.955,500.143 " fill="none" id="Labyrinthe-Position" style="stroke: #A80036; stroke-width: 1.0;"/><text fill="#000000" font-family="sans-serif" font-size="13" lengthAdjust="spacingAndGlyphs" textLength="8" x="609.0186" y="493.6532">1</text><!--MD5=[3a8c929be66cf2dcd8cad4023ea2e992]
link Labyrinthe to Piece--><path codeLine="86" d="M79.651,428 C80.1507,445.658 80.8379,469.941 81.34,487.678 " fill="none" id="Labyrinthe-Piece" style="stroke: #A80036; stroke-width: 1.0;"/><text fill="#000000" font-family="sans-serif" font-size="13" lengthAdjust="spacingAndGlyphs" textLength="7" x="73.326" y="477.0045">*</text><!--MD5=[e4c0d6529e140f9a1a29ad7e4758cf33]
link FileReader to FileReader--><path codeLine="87" d="M176.18,44.85 C195.153,43.834 211,50.551 211,65 C211,79.449 195.153,86.166 176.18,85.15 " fill="none" id="FileReader-FileReader" style="stroke: #A80036; stroke-width: 1.0;"/><text fill="#000000" font-family="sans-serif" font-size="13" lengthAdjust="spacingAndGlyphs" textLength="8" x="183.8439" y="84.0846">1</text><!--MD5=[db0dd88c9dc4898692f1cf90577bd762]
link MenuPrincipalPainter to MenuPrincipalController--><path codeLine="90" d="M1207.27,534.852 C1205.84,535.239 1204.41,535.623 1203,536 C1120.15,558.144 1025.17,581.782 958.262,598.145 " fill="none" id="MenuPrincipalPainter-MenuPrincipalController" style="stroke: #A80036; stroke-width: 1.0;"/><text fill="#000000" font-family="sans-serif" font-size="13" lengthAdjust="spacingAndGlyphs" textLength="8" x="966.0189" y="592.6949">1</text><!--MD5=[c00abdb8f88a41f0b52418f7d58bb4e6]
link MenuPausePainter to MenuPauseController--><path codeLine="91" d="M1395.19,531.829 C1326.82,550.271 1222.76,578.337 1151.29,597.613 " fill="none" id="MenuPausePainter-MenuPauseController" style="stroke: #A80036; stroke-width: 1.0;"/><text fill="#000000" font-family="sans-serif" font-size="13" lengthAdjust="spacingAndGlyphs" textLength="8" x="1158.9683" y="591.9308">1</text><!--MD5=[fead969f6af7d8574470731c6d1452db]
link GraphicalInterface to DrawingPanel--><path codeLine="93" d="M1568.39,428 C1587.88,445.658 1614.68,469.941 1634.26,487.678 " fill="none" id="GraphicalInterface-DrawingPanel" style="stroke: #A80036; stroke-width: 1.0;"/><text fill="#000000" font-family="sans-serif" font-size="13" lengthAdjust="spacingAndGlyphs" textLength="8" x="1619.0109" y="477.0045">1</text><!--MD5=[a6b78f167cceb8a755105e5e50477a11]
link GameEngineGraphical to Game--><path codeLine="94" d="M1202.48,275.989 C998.645,228.456 473.338,105.956 335.519,73.816 " fill="none" id="GameEngineGraphical-Game" style="stroke: #A80036; stroke-width: 1.0;"/><text fill="#000000" font-family="sans-serif" font-size="13" lengthAdjust="spacingAndGlyphs" textLength="8" x="343.7263" y="71.1853">1</text><!--MD5=[96f5d1ff4124b566d5d7a48176a08b16]
link GameEngineGraphical to GamePainter--><path codeLine="95" d="M1365.53,298.455 C1488.21,301.496 1708.63,310.606 1733,337 C1793,401.979 1765.49,453.352 1734,536 C1724.99,559.632 1705.83,580.812 1689.26,595.862 " fill="none" id="GameEngineGraphical-GamePainter" style="stroke: #A80036; stroke-width: 1.0;"/><text fill="#000000" font-family="sans-serif" font-size="13" lengthAdjust="spacingAndGlyphs" textLength="8" x="1687.7329" y="584.8387">1</text><!--MD5=[9feef538a68573ecfa0f053b9ee875e4]
link GameEngineGraphical to GameController--><path codeLine="96" d="M1210.56,320.045 C1203.18,324.718 1196.43,330.311 1191,337 C1134.17,407.063 1216.15,473.594 1151,536 C1088.79,595.594 852.116,577.395 768,596 C762.356,597.248 756.522,598.668 750.696,600.175 " fill="none" id="GameEngineGraphical-GameController" style="stroke: #A80036; stroke-width: 1.0;"/><text fill="#000000" font-family="sans-serif" font-size="13" lengthAdjust="spacingAndGlyphs" textLength="8" x="758.4077" y="594.0901">1</text><!--MD5=[9be206aaebfe095febcdb733745d3244]
link GameEngineGraphical to GraphicalInterface--><path codeLine="97" d="M1365.9,309.003 C1394.91,315.093 1427.23,324.042 1455,337 C1478.19,347.822 1501.21,365.398 1517.89,379.692 " fill="none" id="GameEngineGraphical-GraphicalInterface" style="stroke: #A80036; stroke-width: 1.0;"/><text fill="#000000" font-family="sans-serif" font-size="13" lengthAdjust="spacingAndGlyphs" textLength="8" x="1502.7944" y="369.0219">1</text><!--MD5=[70182f3f2ea81c7c6fa9fad0d5cb2181]
link GameEngineGraphical to MenuController--><path codeLine="98" d="M1202.5,313.509 C1187.57,319.187 1172.96,326.799 1161,337 C1113.11,377.846 1087.89,450.857 1077.64,487.973 " fill="none" id="GameEngineGraphical-MenuController" style="stroke: #A80036; stroke-width: 1.0;"/><text fill="#000000" font-family="sans-serif" font-size="13" lengthAdjust="spacingAndGlyphs" textLength="8" x="1070.0603" y="476.9781">2</text><!--MD5=[ab5cb5a7f93a04ab2b32847ce446ef5a]
link GameEngineGraphical to MenuUi--><path codeLine="99" d="M1320.66,320.174 C1327.99,325.383 1335.44,331.12 1342,337 C1356.43,349.939 1370.68,366.439 1381.32,379.704 " fill="none" id="GameEngineGraphical-MenuUi" style="stroke: #A80036; stroke-width: 1.0;"/><text fill="#000000" font-family="sans-serif" font-size="13" lengthAdjust="spacingAndGlyphs" textLength="8" x="1368.0355" y="369.0368">2</text><!--MD5=[dd428f42614802df7105aec30a17bcaa]
link DrawingPanel to GamePainter--><path codeLine="100" d="M1660,536 C1660,553.658 1660,577.941 1660,595.678 " fill="none" id="DrawingPanel-GamePainter" style="stroke: #A80036; stroke-width: 1.0;"/><text fill="#000000" font-family="sans-serif" font-size="13" lengthAdjust="spacingAndGlyphs" textLength="8" x="1651.025" y="585.0045">1</text><!--MD5=[4c310c390fae2bee7fd4fe40f33ba5cc]
@startuml
package model{
    
    interface Personnage {}
    
    interface Piece {}
    
    class PieceAttaque extends Piece {}
    
    class PieceScore extends Piece {}
    
    class Pacman extends Personnage {}
    
    class PacmanGame implements Game {}
    
    class Labyrinthe {}
    
    class FileReader {}
    
    class Monde {}
    
    class Fantome extends Personnage {}
    
    
}

package exception {

    class PlateauException extends RuntimeException {}

}


package engine{

    enum Cmd {}
    
    interface Game {}
    
    class GameEngineGraphical {}
    
package views{

    class DrawingPanel extends JPanel {}
    
    class GraphicalInterface  {}
    
    interface GamePainter {}
    
    interface MenuUi {}
    
    class PacmanPainter implements GamePainter, PropertyChangeListener {}
    
    class MenuPrincipalPainter implements MenuUi, ActionListener {}
    
    class MenuPausePainter implements MenuUi, ActionListener {}
    
}

package controllers{

    interface GameController extends KeyListener {}
    
    interface MenuController {}
    
    class PacmanController implements GameController {}
    
    class FantomeController implements GameController {}

    class MenuPrincipalController implements MenuController {}
    
    class MenuPauseController implements MenuController {}
    
    class Position {}
    
}
}

PacmanGame - -"1" Monde
Personnage - -"1" Cmd
Personnage - -"1" Position
Monde - -"1" Pacman
Monde - -"4" Fantome
Monde - -"1" Labyrinthe
Monde - -"1" PropertyChangeSupport
Labyrinthe - -"1" Position
Labyrinthe - -"*" Piece
FileReader - -"1" FileReader


MenuPrincipalPainter - -"1" MenuPrincipalController
MenuPausePainter - -"1" MenuPauseController

GraphicalInterface - -"1" DrawingPanel
GameEngineGraphical - -"1" Game
GameEngineGraphical - -"1" GamePainter
GameEngineGraphical - -"1" GameController
GameEngineGraphical - -"1" GraphicalInterface
GameEngineGraphical - -"2" MenuController
GameEngineGraphical - -"2" MenuUi
DrawingPanel - -"1" GamePainter
@enduml

PlantUML version 1.2020.20beta11(Unknown compile time)
(GPL source distribution)
Java Runtime: Java(TM) SE Runtime Environment
JVM: Java HotSpot(TM) 64-Bit Server VM
Default Encoding: UTF-8
Language: en
Country: US
--></g></svg>